<svg id="Outline" xmlns="http://www.w3.org/2000/svg" width="45.994" height="45.994" viewBox="0 0 45.994 45.994">
  <path id="Path_5652" data-name="Path 5652" d="M61.227,336.432H55.861v-3.066a.767.767,0,0,0-.767-.767H39.764V328H38.23v4.6H22.9a.767.767,0,0,0-.767.767v3.066H16.767A.767.767,0,0,0,16,337.2v6.133a.767.767,0,0,0,.767.767H29.032a.767.767,0,0,0,.767-.767V337.2a.767.767,0,0,0-.767-.767H23.666v-2.3H38.23v2.3H32.864a.767.767,0,0,0-.767.767v6.133a.767.767,0,0,0,.767.767H45.13a.767.767,0,0,0,.767-.767V337.2a.767.767,0,0,0-.767-.767H39.764v-2.3H54.328v2.3H48.962a.767.767,0,0,0-.767.767v6.133a.767.767,0,0,0,.767.767H61.227a.767.767,0,0,0,.767-.767V337.2A.767.767,0,0,0,61.227,336.432Zm-32.962,6.133H17.533v-4.6H28.265Zm16.1,0H33.631v-4.6H44.363Zm16.1,0H49.729v-4.6H60.461Z" transform="translate(-16 -298.104)" fill="#707070"/>
  <path id="Path_5653" data-name="Path 5653" d="M48,448h1.533v1.533H48Z" transform="translate(-44.934 -406.605)" fill="#707070"/>
  <path id="Path_5654" data-name="Path 5654" d="M80,448h4.6v1.533H80Z" transform="translate(-73.867 -406.605)" fill="#707070"/>
  <path id="Path_5655" data-name="Path 5655" d="M216,448h1.533v1.533H216Z" transform="translate(-196.836 -406.605)" fill="#707070"/>
  <path id="Path_5656" data-name="Path 5656" d="M248,448h4.6v1.533H248Z" transform="translate(-225.77 -406.605)" fill="#707070"/>
  <path id="Path_5657" data-name="Path 5657" d="M384,448h1.533v1.533H384Z" transform="translate(-348.738 -406.605)" fill="#707070"/>
  <path id="Path_5658" data-name="Path 5658" d="M416,448h4.6v1.533H416Z" transform="translate(-377.672 -406.605)" fill="#707070"/>
  <path id="Path_5659" data-name="Path 5659" d="M171.931,45.13V19.066A3.07,3.07,0,0,0,168.864,16h-13.8A3.07,3.07,0,0,0,152,19.066V45.13a3.07,3.07,0,0,0,3.066,3.066h4.6V46.663h-4.6a1.535,1.535,0,0,1-1.533-1.533V19.066a1.535,1.535,0,0,1,1.533-1.533h13.8a1.535,1.535,0,0,1,1.533,1.533V45.13a1.535,1.535,0,0,1-1.533,1.533h-4.6V48.2h4.6A3.07,3.07,0,0,0,171.931,45.13Z" transform="translate(-138.968 -16)" fill="#707070"/>
  <path id="Path_5660" data-name="Path 5660" d="M232,48h1.533v1.533H232Z" transform="translate(-211.303 -44.934)" fill="#707070"/>
  <path id="Path_5661" data-name="Path 5661" d="M264,48h1.533v1.533H264Z" transform="translate(-240.236 -44.934)" fill="#707070"/>
  <path id="Path_5662" data-name="Path 5662" d="M200,92.6v1.533h1.61a3.81,3.81,0,0,0,.559,1.346l-1.14,1.14,1.084,1.084,1.14-1.14a3.811,3.811,0,0,0,1.346.56v1.61h1.533v-1.61a3.811,3.811,0,0,0,1.346-.559l1.14,1.14,1.084-1.084-1.14-1.14a3.81,3.81,0,0,0,.56-1.346h1.61V92.6h-1.61a3.81,3.81,0,0,0-.559-1.346l1.14-1.14-1.085-1.084-1.14,1.14a3.811,3.811,0,0,0-1.345-.56V88H204.6v1.61a3.811,3.811,0,0,0-1.346.56l-1.14-1.14-1.084,1.084,1.14,1.14a3.81,3.81,0,0,0-.56,1.345Zm5.366-1.533a2.3,2.3,0,1,1-2.3,2.3A2.3,2.3,0,0,1,205.366,91.066Z" transform="translate(-182.369 -81.101)" fill="#707070"/>
  <path id="Path_5663" data-name="Path 5663" d="M192,224h1.533v1.533H192Z" transform="translate(-175.136 -204.069)" fill="#707070"/>
  <path id="Path_5664" data-name="Path 5664" d="M224,224h9.2v1.533H224Z" transform="translate(-204.069 -204.069)" fill="#707070"/>
  <path id="Path_5665" data-name="Path 5665" d="M192,256h12.265v1.533H192Z" transform="translate(-175.136 -233.003)" fill="#707070"/>
  <path id="Path_5666" data-name="Path 5666" d="M248,296h1.533v1.533H248Z" transform="translate(-225.77 -269.17)" fill="#707070"/>
</svg>
