<svg id="Layer_1" data-name="Layer 1" xmlns="http://www.w3.org/2000/svg" viewBox="0 0 684.95 516.11"><defs><style>.cls-1{fill:#b7bfcf;}.cls-2{fill:#bb4d2e;}.cls-3{fill:#f59289;}.cls-4,.cls-9{fill:#2e1407;}.cls-5{fill:#311c19;}.cls-10,.cls-5,.cls-6,.cls-9{fill-rule:evenodd;}.cls-6,.cls-7{fill:#f8f4f1;}.cls-8{fill:#d5cda0;}.cls-10{fill:#f1e7de;}</style></defs><path class="cls-1" d="M179.52,151.45A15.46,15.46,0,0,1,195,136H542.72a15.45,15.45,0,0,1,15.46,15.46V425a15.44,15.44,0,0,1-15.46,15.45H195A15.45,15.45,0,0,1,179.52,425Z"/><path class="cls-2" d="M359.58,127.49c10.81,24.73-10.05,58-10.05,58l-48.68,37.86L280,327.64s-58.6-24-58.59-61.05c0-48.68,40.05-48.68,40.05-48.68s-28.75-22.2-13.91-60.28c20.47-52.55,64.14-37.87,64.14-37.87s31.65-29.44,47.91,7.73"/><path class="cls-3" d="M327.05,230.72s18.32,1.38,27.37-13.62-1.53-34.29-1.53-34.29l-18.26-39.87s-17.7,18.65-31.63,20.7c-22.24,3.26-16.06,25.67-16.06,25.67s-22-10.9-22,11.08c0,15.52,18.32,18.66,18.32,18.66l2.09,39.81s1.92,8.16,23.63,6.56c22.34-1.64,24.29-12.74,24.29-12.74Z"/><polygon class="cls-4" points="331.76 246.5 327.81 230.58 300.5 222.98 331.76 246.5"/><path class="cls-5" d="M272.76,198a1.54,1.54,0,0,1,2.11-.57L286.28,204a1.55,1.55,0,0,1-1.55,2.68l-11.4-6.56a1.54,1.54,0,0,1-.57-2.11"/><path class="cls-5" d="M326,200.23a1.16,1.16,0,0,0-2.31.2l1.15-.09-1.15.1h0s0,0,0,0a1.37,1.37,0,0,0,0,.16,3.93,3.93,0,0,0,.11.5,6.71,6.71,0,0,0,.61,1.57,6.54,6.54,0,0,0,4.11,3.21,6.33,6.33,0,0,0,5.45-1,8.63,8.63,0,0,0,1.43-1.26,5.08,5.08,0,0,0,.38-.45,1.1,1.1,0,0,0,.11-.14l0,0h0l-1-.66,1,.66a1.16,1.16,0,0,0-1.91-1.32h0l-.06.08c-.06.08-.15.19-.27.32a6.35,6.35,0,0,1-1.05.92,4,4,0,0,1-3.49.67,4.24,4.24,0,0,1-2.7-2.08,4.62,4.62,0,0,1-.41-1c0-.14-.05-.24-.06-.31v-.06"/><path class="cls-5" d="M330.58,170.87a1.16,1.16,0,0,1,1.49.68c.16.4.3.79.44,1.17,1.28,3.42,2.08,5.56,3.61,7.59,1.68,2.24,4.29,4.4,9.59,7.74a1.46,1.46,0,0,1,.72,1.44,1.7,1.7,0,0,1-.67,1.07,7.86,7.86,0,0,1-1.71.94c-.34.16-.71.31-1.07.47A23.07,23.07,0,0,0,340,193.4a1.16,1.16,0,1,1-1.23-2,26.59,26.59,0,0,1,3.39-1.65l.9-.39.23-.11c-4.62-3-7.26-5.17-9.07-7.57s-2.66-4.79-3.9-8.14l-.46-1.2a1.17,1.17,0,0,1,.68-1.5m13.75,17.86s0,0,0,0l0,0"/><path class="cls-4" d="M335.54,162c1.66-.72,3.92.83,5.06,3.46s.7,5.34-1,6.06-3.92-.84-5.05-3.47-.71-5.34,1-6"/><path class="cls-4" d="M318.54,177.47c1.66-.71,3.92.84,5.06,3.47s.7,5.34-1,6.06-3.92-.84-5.06-3.47-.7-5.34,1-6.06"/><path class="cls-6" d="M322.36,196.2a10.82,10.82,0,1,0-13.13-7.86,10.83,10.83,0,0,0,13.13,7.86m.38,1.49a12.36,12.36,0,1,0-15-9,12.35,12.35,0,0,0,15,9"/><rect class="cls-7" x="297.37" y="178.85" width="1.55" height="22.46" transform="translate(88 474.45) rotate(-86.05)"/><path class="cls-6" d="M348.58,180a10.82,10.82,0,1,0-13.13-7.86A10.82,10.82,0,0,0,348.58,180m.37,1.5a12.37,12.37,0,1,0-15-9,12.37,12.37,0,0,0,15,9"/><path class="cls-6" d="M333.84,174.81a7.24,7.24,0,0,0-2.12.67,4,4,0,0,0-1.43,1.88,8,8,0,0,0-.35,1c0,.13-.06.23-.08.3s0,.06,0,.07v0h0l-.76-.15-.75-.16h0v0a.65.65,0,0,1,0-.11c0-.08.05-.21.1-.36a8.7,8.7,0,0,1,.41-1.15,5.41,5.41,0,0,1,2.07-2.6,8.75,8.75,0,0,1,2.62-.86c.41-.07.77-.12,1-.15l.31,0H335l.05.77.06.77H335l-.28,0-.92.13"/><path class="cls-8" d="M276.12,269.68c-27.05,28.59-36.32,170-36.32,170H357.26l31,31.32a54.08,54.08,0,0,0,85.79-11.95L530.36,357l-57.19-15.46-44.82,60.28s-67.25-135.26-92-147.6c-10.82-5.41-20.48-4.74-31.69-2.32-13.19,2.85-19.31,8-28.59,17.77"/><path class="cls-7" d="M501.83,209.93a7.71,7.71,0,0,1,8.22-3.09l75,18.75a4.64,4.64,0,0,1,2.74,7l-75.74,114.9a7.72,7.72,0,0,1-8.36,3.23l-78.16-19.93a4.63,4.63,0,0,1-2.65-7.14Z"/><path class="cls-5" d="M504.89,233.94a.76.76,0,0,1,.94-.55l48.68,12.36a.77.77,0,0,1,.56.94.78.78,0,0,1-.94.56l-48.69-12.37a.76.76,0,0,1-.55-.94m-7,10.81a.77.77,0,0,1,.94-.54l49.46,13.13a.77.77,0,1,1-.38,1.5L498.49,245.7a.78.78,0,0,1-.56-.95m-6.18,11.58a.78.78,0,0,1,1-.53l48.68,13.91a.77.77,0,0,1,.53,1,.76.76,0,0,1-.94.53l-48.69-13.91a.78.78,0,0,1-.54-1"/><path class="cls-3" d="M533.36,336.61l-9.18,18.85-25.51-6.18,16.23-16.23-1.71-24a3.1,3.1,0,0,1,5.31-2.37l12,12.41a15.46,15.46,0,0,1,2.82,17.52"/><path class="cls-9" d="M310.15,351.79a1.56,1.56,0,0,1,2.1.6l47.91,86.55a1.55,1.55,0,0,1-2.71,1.5l-47.91-86.55a1.55,1.55,0,0,1,.61-2.1"/><path class="cls-8" d="M410.58,215.59l-95.05,43.27s18,83.13,45.6,66.46c28.15-17,58-33.55,80.9-45.9a69.51,69.51,0,0,0,36.64-64.48L472.4,91.17l-57.19,13.91Z"/><path class="cls-9" d="M345.58,258.35a1.57,1.57,0,0,1,2.15.42l37.86,56.42a1.55,1.55,0,0,1-2.57,1.72L345.16,260.5a1.55,1.55,0,0,1,.42-2.15"/><path class="cls-3" d="M467.76,92.72l-50.23,11.59,4.64-30.14,24.33-24.9A1.54,1.54,0,0,1,449,51.1l-9,16.11,14.69-10L477,22.82a1.54,1.54,0,0,1,2.7,1.48L463.9,59.49,498,24.07a1.55,1.55,0,0,1,2.51,1.76Z"/><path class="cls-10" d="M26.51,97.35A4.63,4.63,0,0,0,21.88,102V211.72a4.63,4.63,0,0,0,4.63,4.64H208.89a4.64,4.64,0,0,0,4.64-4.64V166.23L223.88,161a4.64,4.64,0,0,0,0-8.28l-10.35-5.23V102a4.64,4.64,0,0,0-4.64-4.64Z"/><path class="cls-6" d="M53.56,136a.77.77,0,0,1,.77-.77H181.84a.77.77,0,1,1,0,1.54H54.33a.77.77,0,0,1-.77-.77m0,22.41a.78.78,0,0,1,.77-.77H181.84a.77.77,0,1,1,0,1.54H54.33a.77.77,0,0,1-.77-.77m10,19.32a.76.76,0,0,1,.77-.77H171.8a.77.77,0,1,1,0,1.54H64.38a.76.76,0,0,1-.77-.77"/></svg>