<svg xmlns="http://www.w3.org/2000/svg" width="536.616" height="488.412" viewBox="0 0 536.616 488.412">
  <g id="Layer_2" data-name="Layer 2" transform="translate(-224.576 -144.87)">
    <rect id="Rectangle_955" data-name="Rectangle 955" width="207.814" height="247.042" transform="translate(415.781 155.05)" fill="#fff"/>
    <path id="Path_5583" data-name="Path 5583" d="M573.476,401.128H365.8a1.276,1.276,0,0,1-1.357-1.357V152.728a1.276,1.276,0,0,1,1.357-1.357H573.612a1.276,1.276,0,0,1,1.357,1.357V399.77a1.479,1.479,0,0,1-1.493,1.357Zm-206.321-2.715h205.1V154.085h-205.1Z" transform="translate(49.983 2.322)"/>
    <rect id="Rectangle_956" data-name="Rectangle 956" width="27.69" height="19.41" transform="translate(440.214 188.306)" fill="#cbcbca"/>
    <rect id="Rectangle_957" data-name="Rectangle 957" width="27.69" height="19.41" transform="translate(483.921 188.306)" fill="#cbcbca"/>
    <rect id="Rectangle_958" data-name="Rectangle 958" width="27.69" height="19.41" transform="translate(527.629 188.306)" fill="#cbcbca"/>
    <rect id="Rectangle_959" data-name="Rectangle 959" width="27.69" height="19.41" transform="translate(571.2 188.306)" fill="#cbcbca"/>
    <rect id="Rectangle_960" data-name="Rectangle 960" width="27.69" height="19.41" transform="translate(440.214 222.783)" fill="#cbcbca"/>
    <rect id="Rectangle_961" data-name="Rectangle 961" width="27.69" height="19.41" transform="translate(483.921 222.783)" fill="#cbcbca"/>
    <rect id="Rectangle_962" data-name="Rectangle 962" width="27.69" height="19.41" transform="translate(527.629 222.783)" fill="#cbcbca"/>
    <rect id="Rectangle_963" data-name="Rectangle 963" width="27.69" height="19.41" transform="translate(571.2 222.783)" fill="#cbcbca"/>
    <rect id="Rectangle_964" data-name="Rectangle 964" width="27.69" height="19.41" transform="translate(440.214 257.261)" fill="#cbcbca"/>
    <rect id="Rectangle_965" data-name="Rectangle 965" width="27.69" height="19.41" transform="translate(483.921 257.261)" fill="#cbcbca"/>
    <rect id="Rectangle_966" data-name="Rectangle 966" width="27.69" height="19.41" transform="translate(527.629 257.261)" fill="#cbcbca"/>
    <rect id="Rectangle_967" data-name="Rectangle 967" width="27.69" height="19.41" transform="translate(571.2 257.261)" fill="#cbcbca"/>
    <path id="Path_5584" data-name="Path 5584" d="M517.823,280.085H365.8a1.357,1.357,0,0,1,0-2.715H517.823a1.276,1.276,0,0,1,1.357,1.357A1.357,1.357,0,0,1,517.823,280.085Z" transform="translate(49.984 47.351)"/>
    <path id="Path_5585" data-name="Path 5585" d="M530.341,280.085H486.5a1.357,1.357,0,0,1,0-2.715h43.843a1.357,1.357,0,0,1,0,2.715Z" transform="translate(93.119 47.352)"/>
    <line id="Line_214" data-name="Line 214" x2="27.69" y2="19.41" transform="translate(527.629 222.783)" fill="none"/>
    <path id="Path_5586" data-name="Path 5586" d="M475.888,223.4a1.928,1.928,0,0,1-.814-.271l-27.69-19.41a1.357,1.357,0,0,1,1.629-2.172l27.69,19.41a1.222,1.222,0,0,1,.271,1.9,1.235,1.235,0,0,1-1.086.543Z" transform="translate(79.431 20.156)"/>
    <line id="Line_215" data-name="Line 215" y1="19.41" x2="27.69" transform="translate(527.629 222.783)" fill="none"/>
    <path id="Path_5587" data-name="Path 5587" d="M448.19,223.4a1.235,1.235,0,0,1-1.086-.543,1.439,1.439,0,0,1,.271-1.9l27.691-19.41a1.357,1.357,0,1,1,1.629,2.172L449,223.124A.991.991,0,0,1,448.19,223.4Z" transform="translate(79.439 20.156)"/>
    <path id="Path_5588" data-name="Path 5588" d="M383.8,166.452a1.276,1.276,0,0,1-1.357-1.357V146.227a1.357,1.357,0,0,1,2.715,0v18.868a1.276,1.276,0,0,1-1.357,1.357Z" transform="translate(56.416)"/>
    <path id="Path_5589" data-name="Path 5589" d="M413.1,166.452a1.276,1.276,0,0,1-1.357-1.357V146.227a1.357,1.357,0,1,1,2.715,0v18.868A1.357,1.357,0,0,1,413.1,166.452Z" transform="translate(66.887)"/>
    <path id="Path_5590" data-name="Path 5590" d="M442.3,166.452a1.276,1.276,0,0,1-1.357-1.357V146.227a1.357,1.357,0,0,1,2.715,0v18.868a1.276,1.276,0,0,1-1.357,1.357Z" transform="translate(77.322)"/>
    <path id="Path_5591" data-name="Path 5591" d="M471.5,166.452a1.276,1.276,0,0,1-1.357-1.357V146.227a1.357,1.357,0,0,1,2.715,0v18.868a1.276,1.276,0,0,1-1.357,1.357Z" transform="translate(87.757)"/>
    <path id="Path_5592" data-name="Path 5592" d="M500.8,166.452a1.276,1.276,0,0,1-1.357-1.357V146.227a1.357,1.357,0,0,1,2.715,0v18.868A1.357,1.357,0,0,1,500.8,166.452Z" transform="translate(98.228)"/>
    <path id="Path_5593" data-name="Path 5593" d="M306.867,257.435,301.03,208.57l50.087,1.493,1.9,4.344s9.5.543,10.18,5.565-8.416,5.837-10.045,7.33c-3.122,2.715-3.936,7.873-4.208,12.352a15.664,15.664,0,0,1-19.682,12.9l-.543-.136-.95,7.737s-9.23.95-14.8-1.222Z" transform="translate(27.323 22.765)" fill="#fff"/>
    <path id="Path_5594" data-name="Path 5594" d="M268.954,365.341c.407-7.33,5.972-36.106,5.972-36.106l.543-2.986a22.125,22.125,0,0,1-11.4-27.419c5.972-16.831,13.709-38.414,15.745-42.757,3.529-7.33,12.352-9.909,12.352-9.909l49.68-1.493,6.515.814c8.551,1.086,13.031,8.009,15.474,14.8l5.7,15.746-7.33,28.641c.814,7.058,7.33,65.7,7.33,65.7Z" transform="translate(13.655 35.666)" fill="#fff"/>
    <path id="Path_5595" data-name="Path 5595" d="M378.955,222.062c-16.56-2.443-18.325,15.067-18.325,15.067l24.84,6.787S398.094,225.007,378.955,222.062Z" transform="translate(48.622 27.503)" fill="#fff"/>
    <rect id="Rectangle_968" data-name="Rectangle 968" width="251.114" height="184.033" transform="translate(237.816 446.818)" fill="#fff"/>
    <path id="Path_5596" data-name="Path 5596" d="M233.43,551.621V367.588c0-.611.543-1.018,1.357-1.018H485.9c.814,0,1.357.407,1.357,1.018V551.621c0,.611-.543,1.018-1.357,1.018H234.787C233.973,552.639,233.43,552.137,233.43,551.621ZM484.409,368.606h-248.4v182h248.4Z" transform="translate(3.164 79.23)"/>
    <path id="Path_5597" data-name="Path 5597" d="M374.043,456.95l-.95,15.2s39.5,22.94,39.364,28.1-6.787,3.393-6.787,3.393L332.1,482.061l9.5-33.391Z" transform="translate(38.426 108.57)" fill="#fff"/>
    <path id="Path_5598" data-name="Path 5598" d="M405.871,505.233l-73.61-21.582a1.357,1.357,0,0,1-.95-1.629l9.5-33.391a1.357,1.357,0,0,1,1.629-.95l32.577,8.416a1.358,1.358,0,0,1,.95,1.357l-.95,14.388c12.352,7.33,39.364,23.618,39.228,28.912a4.9,4.9,0,0,1-1.9,3.936,6.5,6.5,0,0,1-3.8,1.086A5.7,5.7,0,0,1,405.871,505.233Zm-63.118-54.39-8.687,30.812,72.348,21.175a6.121,6.121,0,0,0,4.344-.271c.271-.136.814-.543.814-1.765-.543-3.122-20.089-16.017-38.685-26.876a1.425,1.425,0,0,1-.679-1.222l.95-14.117Z" transform="translate(38.13 108.203)"/>
    <path id="Path_5599" data-name="Path 5599" d="M404.474,347.752a36.649,36.649,0,0,1,24.3,37.464l-9.637,122.3-72.62-15.2,22.532-104.382-96.917-8.28V333.5h92.3Z" transform="translate(16.994 67.412)" fill="#bdb9ff"/>
    <path id="Path_5600" data-name="Path 5600" d="M322.73,385.347l13.845,6.515s1.086,45.608,5.7,47.915,6.244-4.344,6.244-4.344l16.424-74.927-33.8-7.737Z" transform="translate(35.078 74.298)" fill="#fff"/>
    <path id="Path_5601" data-name="Path 5601" d="M341.928,441.5c-4.751-2.443-5.972-33.934-6.38-48.323l-13.031-6.108a1.561,1.561,0,0,1-.679-1.629l8.28-32.713a1.357,1.357,0,0,1,1.629-.95l33.8,7.737a1.357,1.357,0,0,1,1.086,1.629l-16.424,74.927c-.136.543-1.086,4.344-3.8,5.565a3.937,3.937,0,0,1-1.9.407A7.29,7.29,0,0,1,341.928,441.5Zm-9.23-86.736-7.737,30.269,12.759,5.972a1.357,1.357,0,0,1,.814,1.222c.407,21.582,2.443,44.929,4.887,46.829,1.086.543,1.765.271,1.9.136a6.176,6.176,0,0,0,2.308-3.665l16.153-73.57Z" transform="translate(34.747 73.93)"/>
    <path id="Path_5602" data-name="Path 5602" d="M343.434,364.568c-.136-.95-10.587-94.745-11.4-101.8a1.364,1.364,0,1,1,2.715-.271c.814,7.058,11.266,100.853,11.4,101.8a1.588,1.588,0,0,1-1.222,1.493h-.136A1.357,1.357,0,0,1,343.434,364.568Z" transform="translate(38.399 41.597)"/>
    <path id="Path_5603" data-name="Path 5603" d="M380,228.248s1.086,7.466,1.493,8.823,1.222,6.108,4.208,4.887,2.172-10.316,1.086-13.031-2.85-2.443-2.85-2.443C382.715,226.076,380,228.248,380,228.248Z" transform="translate(55.544 29.148)" fill="#fff"/>
    <path id="Path_5604" data-name="Path 5604" d="M383.681,243.531c-1.9-.95-2.579-3.8-2.986-5.294l-.136-.407c-.407-1.357-1.493-8.144-1.629-8.959a1.479,1.479,0,0,1,.543-1.222c.95-.679,3.258-2.443,5.022-2.172,1.086,0,2.85.679,3.936,3.393.814,2.308,2.579,12.9-1.9,14.8a7,7,0,0,1-1.493.271,2.023,2.023,0,0,1-1.357-.407Zm.271-15.61a7.546,7.546,0,0,0-2.308,1.222c.407,2.986,1.086,7.058,1.357,7.873l.136.543c.271.814.814,3.122,1.629,3.529.136.136.271.136.679,0,1.765-.679,1.493-8.28.407-11.266-.543-1.222-1.086-1.629-1.357-1.629S384.224,228.192,383.953,227.921Z" transform="translate(55.161 28.797)"/>
    <path id="Path_5605" data-name="Path 5605" d="M380.44,235.146c2.308,1.222,4.887-3.936,5.565-5.7s1.9-7.058,0-8.416-5.837,0-5.837,0C376.775,222.658,378.132,233.924,380.44,235.146Z" transform="translate(54.874 27.002)" fill="#fff"/>
    <path id="Path_5606" data-name="Path 5606" d="M380.22,236.684c-2.172-1.222-3.122-6.787-2.986-10.316.136-3.258,1.086-5.294,2.715-6.108h.136c.407-.136,4.479-1.629,7.058.136,3.393,2.172.679,9.637.543,9.909s-2.172,5.43-5.022,6.515a2.987,2.987,0,0,1-1.086.136A4.818,4.818,0,0,1,380.22,236.684Zm.814-13.981c-.407.271-.95,1.086-1.086,2.986-.407,3.8.95,8.144,1.629,8.687h.136c1.086-.407,2.715-3.258,3.393-5.022.95-2.579,1.493-6.244.543-6.787a2.891,2.891,0,0,0-1.629-.407,9.026,9.026,0,0,0-3.027.543Z" transform="translate(54.551 26.685)"/>
    <path id="Path_5607" data-name="Path 5607" d="M373.819,229.48c.407,1.629,1.222,5.022,4.344,5.294s4.072-3.665,4.072-8.28-1.765-10.859-4.344-10.18a8.877,8.877,0,0,0-4.344,3.258S373.276,227.946,373.819,229.48Z" transform="translate(53.214 25.514)" fill="#fff"/>
    <path id="Path_5608" data-name="Path 5608" d="M378.506,236.46c-3.665-.407-4.887-4.072-5.43-5.837l-.136-.407c-.543-1.765-.407-8.416-.407-10.452,0-.271.136-.407.272-.679a10.248,10.248,0,0,1,5.158-3.8,3.054,3.054,0,0,1,2.579.679c2.172,1.9,3.393,6.923,3.393,10.859q0,6.312-2.443,8.551a4.317,4.317,0,0,1-2.715,1.086Zm0-18.325a4.887,4.887,0,0,0-3.258,2.443,69.5,69.5,0,0,0,.272,8.959l.136.407c.679,1.9,1.357,3.8,3.122,3.936a.842.842,0,0,0,.95-.271c.407-.407,1.493-1.9,1.493-6.651,0-3.529-1.222-7.6-2.443-8.687a.421.421,0,0,0-.271-.136Z" transform="translate(52.871 25.144)"/>
    <path id="Path_5609" data-name="Path 5609" d="M362.936,221.448c-.271-3.258,1.9-6.244,3.665-6.787,4.479-1.357,9.366,1.357,10.859,6.651s2.715,12.488,0,13.438-5.565-.543-6.515-4.615-2.443-10.723-2.443-10.723" transform="translate(49.438 24.818)" fill="#fff"/>
    <path id="Path_5610" data-name="Path 5610" d="M373.233,235.921a7.126,7.126,0,0,1-3.393-5.158c-.95-4.072-2.443-10.723-2.443-10.723l2.715-.543s1.493,6.651,2.443,10.723a4.737,4.737,0,0,0,2.036,3.393,3.719,3.719,0,0,0,2.715.136c1.086-.271,1.222-4.479-.814-11.673a8.715,8.715,0,0,0-4.072-5.158,6.9,6.9,0,0,0-5.158-.543c-.95.272-2.851,2.715-2.715,5.43a1.364,1.364,0,0,1-2.715.271c-.136-3.936,2.308-7.6,4.751-8.28a9.5,9.5,0,0,1,7.194.814,11.226,11.226,0,0,1,5.294,6.787c1.493,5.022,3.393,13.709-.814,15.067a5.43,5.43,0,0,1-2.036.407A4.887,4.887,0,0,1,373.233,235.921Z" transform="translate(49.049 24.502)"/>
    <path id="Path_5611" data-name="Path 5611" d="M352.249,229.128h0a3.081,3.081,0,0,1,2.307-3.665l55.788-13.574a3.081,3.081,0,0,1,3.665,2.308h0a3.081,3.081,0,0,1-2.308,3.665l-55.788,13.574a2.973,2.973,0,0,1-3.665-2.308Z" transform="translate(45.601 23.925)" fill="#fff"/>
    <path id="Path_5612" data-name="Path 5612" d="M351.267,229.911a4.439,4.439,0,0,1,3.258-5.43l55.788-13.574a4.194,4.194,0,0,1,3.393.543,4.072,4.072,0,0,1,2.036,2.715,4.438,4.438,0,0,1-3.258,5.43L356.7,233.169h0a2.985,2.985,0,0,1-1.086.136A4.479,4.479,0,0,1,351.267,229.911Zm4.751.679,55.788-13.709a1.642,1.642,0,0,0,1.222-2.036,2.118,2.118,0,0,0-.814-1.086,2.349,2.349,0,0,0-1.357-.136L355.068,227.2c-.407.136-.95.407-1.086.814a2.348,2.348,0,0,0-.136,1.357,2.118,2.118,0,0,0,.814,1.086,2.348,2.348,0,0,0,1.357.136Z" transform="translate(45.225 23.549)"/>
    <path id="Path_5613" data-name="Path 5613" d="M344.148,267.67h54.974L377.4,345.176H322.43Z" transform="translate(34.97 43.886)" fill="#fff"/>
    <path id="Path_5614" data-name="Path 5614" d="M321.714,346.312a1.357,1.357,0,0,1-.271-1.222l21.718-77.37a1.629,1.629,0,0,1,1.357-.95h54.974a1.67,1.67,0,0,1,1.086.543,1.357,1.357,0,0,1,.271,1.222L379.13,345.9a1.629,1.629,0,0,1-1.357.95H322.8A1.67,1.67,0,0,1,321.714,346.312Zm75.877-76.827H345.468l-20.9,74.656h52.123Z" transform="translate(34.601 43.564)"/>
    <circle id="Ellipse_87" data-name="Ellipse 87" cx="1.765" cy="1.765" r="1.765" transform="translate(365.137 241.379)"/>
    <circle id="Ellipse_88" data-name="Ellipse 88" cx="1.765" cy="1.765" r="1.765" transform="translate(357.672 242.194)"/>
    <path id="Path_5615" data-name="Path 5615" d="M309.767,249a1.374,1.374,0,0,1,.95-2.579c4.208,1.629,10.588,1.357,13.167,1.222l.814-6.651a1.364,1.364,0,1,1,2.715.271l-.95,7.737c-.136.679-.543,1.222-1.222,1.222a25.441,25.441,0,0,1-4.887.271A31.22,31.22,0,0,1,309.767,249Z" transform="translate(30.123 33.913)"/>
    <path id="Path_5616" data-name="Path 5616" d="M359.788,196.676c-8.823-10.18-22.668-9.637-27.826-7.466s-9.23,1.9-14.117.814c-9.23-2.036-10.995,2.85-13.438,8.823-6.923-3.8-14.117-2.579-17.51,2.986-4.887,8.144,3.665,12.624-4.208,19.818s-1.629,12.352-.95,20.225-11.809,21.039-11.809,21.039L318.524,278.8s-2.036-7.6.95-12.624a19.288,19.288,0,0,0,.407-20.361c-2.715-4.751.814-10.18,3.393-15.61s-2.443-12.759-2.443-12.759h43.436S366.847,204.413,359.788,196.676Z" transform="translate(16.208 15.384)" fill="#bdb9ff"/>
    <path id="Path_5617" data-name="Path 5617" d="M297.262,199.5c0-.136-1.9-8.144-9.637-9.909a1.384,1.384,0,1,1,.543-2.715c9.366,2.172,11.538,11.538,11.673,11.945a1.493,1.493,0,0,1-1.086,1.629h-.271C297.94,200.452,297.262,200.045,297.262,199.5Z" transform="translate(22.132 15.001)"/>
    <path id="Path_5618" data-name="Path 5618" d="M317.488,250.655a1.357,1.357,0,0,1,1.086-2.443c6.108,2.85,11.809,2.986,16.153.407a14.28,14.28,0,0,0,6.787-10.18c.271-4.479.95-10.18,4.615-13.3a13.709,13.709,0,0,1,3.393-1.493c3.665-1.222,6.515-2.443,6.244-4.615-.407-3.122-6.651-4.208-8.823-4.344a1.48,1.48,0,0,1-1.222-1.493,1.588,1.588,0,0,1,1.493-1.222c1.086,0,10.588.679,11.4,6.651.543,4.615-4.615,6.244-8.009,7.466a9.052,9.052,0,0,0-2.443.95c-2.85,2.443-3.393,7.737-3.665,11.4a17.212,17.212,0,0,1-8.144,12.352,15.909,15.909,0,0,1-8.416,2.308,27.147,27.147,0,0,1-10.452-2.443Z" transform="translate(32.99 23.98)"/>
    <path id="Path_5619" data-name="Path 5619" d="M330.819,347.56,277.2,328.149a23.591,23.591,0,0,1-14.117-30c6.108-17.1,13.845-38.549,15.881-42.893,3.665-7.737,12.759-10.452,13.167-10.588a1.357,1.357,0,0,1,.679,2.579c-.136,0-8.416,2.579-11.538,9.23-1.629,3.393-7.058,18.189-15.746,42.757a20.822,20.822,0,0,0,12.488,26.469l52.259,18.867,10.18-33.256-46.151-9.094a1.384,1.384,0,1,1,.543-2.715l47.644,9.5a1.737,1.737,0,0,1,.95.679,1.439,1.439,0,0,1,.136,1.086l-10.995,35.97a1.357,1.357,0,0,1-.679.814c-.136.136-.272.136-.543.136A1.032,1.032,0,0,1,330.819,347.56Z" transform="translate(13.279 35.665)"/>
    <circle id="Ellipse_89" data-name="Ellipse 89" cx="8.416" cy="8.416" r="8.416" transform="translate(389.977 341.825)" fill="#bdb9ff"/>
    <path id="Path_5620" data-name="Path 5620" d="M314.93,324.246s15.338,6.923,25.519,9.366c7.466,1.765,13.167,2.443,15.067-.95,1.765-3.122-4.479-6.108-4.479-6.108s12.759,1.629,12.759-3.8c0-1.493-.272-3.258-3.936-5.43,4.344.271,5.837-2.579,6.108-4.615s-2.172-4.615-5.158-4.887c5.158-2.443,4.615-6.244,4.615-6.244s-.543-5.022-7.737-2.85-21.175.543-21.175.543,3.393-11.538,4.751-16.967c-2.85-2.579-6.108,5.43-10.18,7.466s-7.737,7.33-7.737,7.33Z" transform="translate(32.29 48.934)" fill="#fff"/>
    <path id="Path_5621" data-name="Path 5621" d="M340.711,335.1c-10.18-2.579-25.111-9.23-25.79-9.5a1.466,1.466,0,0,1-.679-1.629l8.28-27.012a.5.5,0,0,1,.136-.407c.136-.136,3.936-5.565,8.28-7.737a17,17,0,0,0,4.208-4.072c1.765-2.172,3.258-3.936,5.158-4.072a3.231,3.231,0,0,1,2.307.95,1.357,1.357,0,0,1,.407,1.357c-1.086,4.208-3.393,12.081-4.344,15.474,3.936.407,13.71.95,19.139-.679,2.986-.95,5.43-.814,7.194.407a5.158,5.158,0,0,1,2.308,3.529,6.787,6.787,0,0,1-2.715,6.108,8.675,8.675,0,0,1,2.036,1.765,4.832,4.832,0,0,1,1.222,3.665,6.488,6.488,0,0,1-4.072,5.294,5.66,5.66,0,0,1,1.9,4.479,4.072,4.072,0,0,1-1.493,3.258c-1.9,1.629-5.294,2.172-8.144,2.172a7.288,7.288,0,0,1,1.357,2.172,3.841,3.841,0,0,1-.271,2.986c-1.357,2.308-3.8,3.122-6.923,3.122a34.91,34.91,0,0,1-9.5-1.629Zm10.588-9.909c3.122.407,8.823.407,10.723-1.222a1.48,1.48,0,0,0,.543-1.222c0-1.086,0-2.308-3.258-4.208a1.656,1.656,0,0,1-.679-1.629,1.358,1.358,0,0,1,1.357-.95c4.072.272,4.615-2.579,4.751-3.393a2.348,2.348,0,0,0-.679-1.629,5.2,5.2,0,0,0-3.258-1.765,1.439,1.439,0,0,1-1.222-1.086,1.561,1.561,0,0,1,.814-1.493c4.072-2.036,3.8-4.751,3.8-4.887a2.362,2.362,0,0,0-1.086-1.629c-.95-.679-2.715-.679-4.887,0-7.33,2.308-21.175.679-21.718.679a1.358,1.358,0,0,1-.95-.543,1.439,1.439,0,0,1-.136-1.086c0-.136,2.85-9.909,4.344-15.61a20.364,20.364,0,0,0-2.85,2.986,18.435,18.435,0,0,1-5.022,4.751,24.975,24.975,0,0,0-7.194,6.787L316.821,323.7c3.665,1.629,15.746,6.787,24.161,8.823,5.837,1.357,12.081,2.443,13.574-.271a.638.638,0,0,0,.136-.814c-.407-1.357-2.579-2.715-3.936-3.393a1.466,1.466,0,0,1-.679-1.629,1.629,1.629,0,0,1,1.357-.95S351.57,325.463,351.3,325.192Z" transform="translate(32.028 48.531)"/>
    <path id="Path_5622" data-name="Path 5622" d="M336.788,303.537a1.276,1.276,0,0,1-1.357-1.357,1.357,1.357,0,0,1,1.357-1.357c6.38.136,16.56-.95,16.7-.95a1.357,1.357,0,0,1,1.493,1.222,1.588,1.588,0,0,1-1.222,1.493c-.271,0-8.687.95-15.2.95Z" transform="translate(39.615 55.391)"/>
    <path id="Path_5623" data-name="Path 5623" d="M334.633,308.75a1.357,1.357,0,0,1,.679-2.579c6.108,1.493,17.782,1.086,17.917,1.086a1.357,1.357,0,1,1,0,2.715h-3.936a67.554,67.554,0,0,1-14.66-1.222Z" transform="translate(39.055 57.644)"/>
    <path id="Path_5624" data-name="Path 5624" d="M345.686,317.425c-.407,0-10.723-1.086-15.067-3.665a1.4,1.4,0,1,1,1.357-2.443c3.8,2.172,13.845,3.258,13.981,3.258a1.357,1.357,0,0,1,1.222,1.493,1.439,1.439,0,0,1-1.357,1.222.136.136,0,0,0-.136.136Z" transform="translate(37.64 59.421)"/>
    <path id="Path_5625" data-name="Path 5625" d="M347.722,276.722l-5.7-15.746c-2.986-8.416-7.873-13.031-14.252-13.845l-6.515-.814a1.364,1.364,0,0,1,.272-2.715l6.515.814c7.6.95,13.167,6.244,16.56,15.61l5.7,15.746a1.357,1.357,0,0,1-.814,1.765.5.5,0,0,1-.407.136A1.357,1.357,0,0,1,347.722,276.722Z" transform="translate(34.111 35.282)"/>
    <path id="Path_5626" data-name="Path 5626" d="M379.314,277l9.909-28.5L355.7,241.57,346.33,277Z" transform="translate(43.512 34.558)" fill="#fff"/>
    <path id="Path_5627" data-name="Path 5627" d="M345.514,278.21a1.357,1.357,0,0,1-.271-1.222l9.366-35.563a1.48,1.48,0,0,1,1.629-.95l33.527,6.923c.407.136.814.271.95.679a1.018,1.018,0,0,1,.136,1.086L380.941,277.8a1.357,1.357,0,0,1-1.222.95H346.735A1.48,1.48,0,0,1,345.514,278.21Zm42.35-28.369-30.812-6.38L348.5,276.038h30.269Z" transform="translate(43.106 34.16)"/>
    <path id="Path_5628" data-name="Path 5628" d="M373.769,236.264c-.272-1.9-1.765-4.208-4.887-6.923,4.887-2.443,5.429-9.909,2.85-11.13s-7.194,5.158-11.673,7.466-2.986,5.158-2.308,10.588-1.222,14.66-1.222,14.66,19.953,4.208,22.94,4.751,5.565-4.887,6.38-7.466a62.054,62.054,0,0,1,3.936-8.008" transform="translate(47.157 26.155)" fill="#fff"/>
    <path id="Path_5629" data-name="Path 5629" d="M379.334,257.452l-22.94-4.751a1.357,1.357,0,0,1-1.086-1.629c0-.136,1.765-9.094,1.222-14.252-.136-.95-.271-1.9-.407-2.715-.543-3.665-1.086-6.787,3.393-9.094a24.432,24.432,0,0,0,5.022-3.8c2.986-2.579,5.565-4.751,7.873-3.665a4.792,4.792,0,0,1,2.308,4.479,10.1,10.1,0,0,1-3.529,8.008q3.665,3.461,4.072,6.515a1.364,1.364,0,0,1-2.715.271c-.136-1.222-.95-3.122-4.344-6.108a1.656,1.656,0,0,1-.407-1.222,1.208,1.208,0,0,1,.679-1.086,7.873,7.873,0,0,0,3.665-6.651c0-1.222-.407-1.9-.679-2.036-.679-.407-3.258,1.765-4.887,3.258a26.127,26.127,0,0,1-5.565,4.208c-2.579,1.357-2.579,2.579-1.9,6.38q.2,1.222.407,2.85a59.046,59.046,0,0,1-1.086,13.71l21.718,4.479c1.357.271,3.665-3.122,4.751-6.515a78.242,78.242,0,0,1,4.072-8.28,1.4,1.4,0,1,1,2.443,1.357,68.087,68.087,0,0,0-3.8,7.737c-.136.271-2.85,8.416-7.194,8.416a3.815,3.815,0,0,0-1.086.136Z" transform="translate(46.709 25.87)"/>
    <path id="Path_5630" data-name="Path 5630" d="M267.723,345.484a1.6,1.6,0,0,1-1.493-1.493c.543-7.33,6.244-37.871,6.515-39.228a1.384,1.384,0,0,1,2.715.543c0,.407-5.972,31.763-6.38,38.957a1.357,1.357,0,0,1-1.357,1.222Z" transform="translate(14.886 56.744)"/>
    <path id="Path_5631" data-name="Path 5631" d="M355.636,423.106,240.53,371.933a25.152,25.152,0,0,1-14.66-31.355h0a25.084,25.084,0,0,1,29.048-16.56l120.263,25.79Z" transform="translate(0 63.822)" fill="#bdb9ff"/>
    <path id="Path_5632" data-name="Path 5632" d="M366.179,351.132l-116.056-24.84a1.384,1.384,0,0,1,.543-2.715l116.056,24.84a1.369,1.369,0,0,1-.272,2.715Z" transform="translate(8.732 63.856)"/>
    <path id="Path_5633" data-name="Path 5633" d="M765.625,505.37H231.98a1.295,1.295,0,1,1,0-2.579H765.774a1.408,1.408,0,0,1,1.021.356,1.166,1.166,0,0,1,.389.934,1.315,1.315,0,0,1-.487.94A1.571,1.571,0,0,1,765.625,505.37Z" transform="translate(-5.994 127.911)"/>
    <path id="Path_5634" data-name="Path 5634" d="M566.122,348.394s5.077-29.727,25.1-30.921c13.452-.9,12.705,10.452,5.525,15.08s-28.681,12.8-30.745,26.455C566.122,353.62,566.122,348.394,566.122,348.394Z" transform="translate(122.016 61.666)" fill="#cbcbca"/>
    <path id="Path_5635" data-name="Path 5635" d="M575.178,306.547s-13.452-42.418-31.342-31.668c-5.837,3.882-4.194,15.542,9.705,19.573,13.451,3.882,21.718,16.438,21.718,27.935Z" transform="translate(112.96 45.838)" fill="#cbcbca"/>
    <path id="Path_5636" data-name="Path 5636" d="M566.122,274.392s4.778-31.966,43.436-43.436c16.587-4.181,24.053-1.195,27.785,2.389s3.9,17.931-20.618,26.007S566,280.528,566,299.192C566.122,289.636,566.122,274.392,566.122,274.392Z" transform="translate(122.016 30.037)" fill="#cbcbca"/>
    <path id="Path_5637" data-name="Path 5637" d="M580.026,274.846s0-51.838-38.007-58.367c-12.542-1.195-19.872,7.479-11.049,17.483S580.026,254.526,580.026,274.846Z" transform="translate(108.112 25.552)" fill="#cbcbca"/>
    <path id="Path_5638" data-name="Path 5638" d="M617.745,536.308h-76.8L529,409.76H629.69Z" transform="translate(108.793 94.665)" fill="#cbcbca"/>
    <path id="Path_5639" data-name="Path 5639" d="M632.2,438.4H528.073a1.493,1.493,0,1,1,0-2.986H632.2a1.493,1.493,0,0,1,0,2.986Z" transform="translate(107.928 103.832)"/>
    <path id="Path_5640" data-name="Path 5640" d="M566.485,469.16a1.357,1.357,0,0,1-1.493-1.493V254.233a1.493,1.493,0,0,1,2.986,0V467.667A1.493,1.493,0,0,1,566.485,469.16Z" transform="translate(121.653 38.55)"/>
  </g>
</svg>
