<svg id="Layer_1" data-name="Layer 1" xmlns="http://www.w3.org/2000/svg" viewBox="0 0 684.95 516.11"><defs><style>.cls-1{fill:#f99184;}.cls-2,.cls-8{fill:#f8f4f1;}.cls-2,.cls-6{fill-rule:evenodd;}.cls-3{fill:#bd4d2d;}.cls-4{fill:#c0c8d3;}.cls-5{fill:#fff;}.cls-6{fill:#311c19;}.cls-7{fill:#2e1407;}.cls-9{fill:#5a74ca;}.cls-10{fill:#d5cda0;}</style></defs><rect class="cls-1" x="148.18" y="63.39" width="390.16" height="309.75" rx="15.92"/><path class="cls-2" d="M337,115.58c24.31,24.81,22.34,65.64-4.42,91.19-19.18,18.32-45.89,23.81-68.43,16.31A41.87,41.87,0,0,1,236,248.24c7.85,13,5.44,30.57-6.7,42.16-14,13.4-35.72,13.71-48.46.71s-11.71-34.41,2.31-47.81a37.18,37.18,0,0,1,13.33-8.2c-10.88-14.75-8.73-36.22,5.78-50.08a41.59,41.59,0,0,1,21.45-10.93c-2.63-20,4.45-41.47,20.9-57.18,26.75-25.55,68.15-26.15,92.46-1.33"/><path class="cls-3" d="M445.21,163.9l-.69,36.55L471.17,215l17.66-31.7,6.45-11.08a2.17,2.17,0,0,0-3.52-2.5l-6.49,7.5,8.64-22.07a2.17,2.17,0,0,0-3.86-2l-10.86,17.15,7.93-25.78a2.17,2.17,0,0,0-3.9-1.81l-14.14,22.05,8.29-25.66a2.17,2.17,0,0,0-3.94-1.75l-21.7,38-2.23-11.87a2.16,2.16,0,0,0-4.29.33"/><path class="cls-4" d="M301.85,224.56s23.09-1.52,37.43,10.22c32.64,26.73,43,35.37,43,35.37L438,196.26l43.79,14.15L408,322.16a31.85,31.85,0,0,1-49.33,4.73L339.28,307.1l7.16,67.62L181.62,370s-6.37-100.63,21.5-128.15c21-20.73,54.14-17.29,54.14-17.29Z"/><path class="cls-5" d="M254.81,230.16a6.37,6.37,0,0,1,6.46-6.3l41.8.61a6.37,6.37,0,0,1,6.27,6L317,373.14h-63.7Z"/><path class="cls-4" d="M233.38,345.63l15.42-66.42a30.06,30.06,0,0,0-58-15.54L166.34,344A38.25,38.25,0,0,0,183,387.77L283.54,449l39-48.74Z"/><path class="cls-3" d="M343.26,418.74l-23.89-14.15-30.26,37,34.24,18.87,8,34.43a1.59,1.59,0,0,0,3.14-.36V460.41L350,491a1.6,1.6,0,0,0,1.42.87h9.77a1.59,1.59,0,0,0,1.55-1.94l-9.91-43.66L366,460.87A1.59,1.59,0,0,0,368.5,459Z"/><path class="cls-6" d="M343.54,451.82a1.6,1.6,0,0,0-1,2l12.74,37.74a1.59,1.59,0,1,0,3-1l-12.74-37.74a1.6,1.6,0,0,0-2-1"/><path class="cls-6" d="M247.43,289.87a1.59,1.59,0,0,0-2,1l-15.93,46.39A1.6,1.6,0,0,0,230,339l39,30.8a1.59,1.59,0,0,0,2-2.5l-38.13-30.11,15.56-45.31a1.61,1.61,0,0,0-1-2"/><path class="cls-3" d="M335,211.48c-13.09,12.27-30.91,6-30.91,6v17.33s-1.56,17.84-24.22,13.42c-22-4.3-22.59-21.28-22.59-21.28l6.53-32.73s-17.29-8-13.1-23.24c5.43-19.72,24.71-7.9,28-5.73-1.09-1.05-2.14-4.86,20.78-14.56,27.87-11.79,36.14-17.26,36.14-17.26l7.24,44s5.23,21.77-7.86,34"/><polygon class="cls-7" points="304.25 235.56 304.25 217.48 279.83 202.7 304.25 235.56"/><path class="cls-6" d="M259.1,170.66a1.59,1.59,0,0,1,2.25,0l9.54,9.52a1.6,1.6,0,0,1-2.26,2.26l-9.53-9.52a1.58,1.58,0,0,1,0-2.25"/><path class="cls-6" d="M314.25,192.7a1.26,1.26,0,0,1,1.79.12,1.31,1.31,0,0,1-.06,1.83l-.86-1,.86,1h0l0,0-.13.1a3.75,3.75,0,0,1-.46.33,7,7,0,0,1-1.64.79,7.13,7.13,0,0,1-5.71-.6,7.43,7.43,0,0,1-3.72-5,10.4,10.4,0,0,1-.25-2.13c0-.27,0-.49,0-.65a1,1,0,0,1,0-.2v-.08h0l1.26.21-1.26-.21a1.22,1.22,0,0,1,1.42-1.07,1.36,1.36,0,0,1,1.1,1.48h0v.14c0,.1,0,.26,0,.46a7.62,7.62,0,0,0,.19,1.55A4.67,4.67,0,0,0,309.1,193a4.57,4.57,0,0,0,3.73.42,4.35,4.35,0,0,0,1.08-.52l.28-.19.05-.05"/><path class="cls-6" d="M316.31,158.94a1.19,1.19,0,0,1,1.3,1.08l.12,1.26c.33,3.7.54,6,1.5,8.42,1.06,2.65,3.06,5.46,7.41,10.17a1.48,1.48,0,0,1,.33,1.63,1.78,1.78,0,0,1-1,.88,8.5,8.5,0,0,1-1.94.46l-1.2.17a23.36,23.36,0,0,0-3.31.61,1.19,1.19,0,0,1-.68-2.29,27.86,27.86,0,0,1,3.83-.71l1-.14.23,0c-3.76-4.16-5.78-7-6.92-9.85s-1.33-5.43-1.66-9c0-.42-.08-.86-.12-1.31a1.2,1.2,0,0,1,1.08-1.3m8.79,21.23h0"/><path class="cls-7" d="M327.91,157.94c1.84-.25,3.67,1.88,4.08,4.77s-.76,5.43-2.6,5.68-3.67-1.88-4.08-4.76.76-5.43,2.6-5.69"/><path class="cls-7" d="M305,163.83c1.85-.26,3.67,1.88,4.08,4.76s-.76,5.43-2.6,5.69-3.67-1.88-4.08-4.77.76-5.43,2.6-5.68"/><path class="cls-6" d="M390.83,122.79l-6.47,11.06a3.18,3.18,0,0,0,2.75,4.79H399l.47.67a69.47,69.47,0,0,0,56.79,29.21c38.28,0,69.27-30.64,69.27-68.38s-31-68.37-69.27-68.37S387,62.4,387,100.14a67.35,67.35,0,0,0,3.65,22Zm-1.74-.17L383,133.05a4.78,4.78,0,0,0,4.12,7.19h11a71,71,0,0,0,58.08,29.87c39.14,0,70.87-31.33,70.87-70s-31.73-70-70.87-70-70.87,31.33-70.87,70a69.2,69.2,0,0,0,3.74,22.48"/><path class="cls-8" d="M439.6,100.14a8.76,8.76,0,1,1-8.76-8.65,8.7,8.7,0,0,1,8.76,8.65"/><path class="cls-9" d="M466.67,100.14a8.76,8.76,0,1,1-8.75-8.65,8.7,8.7,0,0,1,8.75,8.65"/><path class="cls-10" d="M493.75,100.14A8.76,8.76,0,1,1,485,91.49a8.7,8.7,0,0,1,8.76,8.65"/></svg>