<svg id="fintech" xmlns="http://www.w3.org/2000/svg" width="40.601" height="45.994" viewBox="0 0 40.601 45.994">
  <path id="Path_5674" data-name="Path 5674" d="M37.82,118.133h5.255a.629.629,0,1,0,0-1.258H37.82a.629.629,0,0,0,0,1.258Z" transform="translate(-26.522 -74.878)" fill="#707070"/>
  <path id="Path_5675" data-name="Path 5675" d="M70.122,7.625H68.64a.629.629,0,0,0,0,1.258h1.482a.629.629,0,1,0,0-1.258Z" transform="translate(-46.268 -4.885)" fill="#707070"/>
  <path id="Path_5676" data-name="Path 5676" d="M47.474,12.038H35.348V2.066A2.068,2.068,0,0,0,33.283,0H9.568A2.068,2.068,0,0,0,7.5,2.066V43.928a2.068,2.068,0,0,0,2.066,2.066H33.282a2.068,2.068,0,0,0,2.066-2.066V32.789l3.228-3.227h8.9a.629.629,0,0,0,.629-.629V12.666a.629.629,0,0,0-.627-.629ZM21.967,29.562h8.9L34.09,32.79v6.468H8.758V6.737H34.09v5.3H21.967a.629.629,0,0,0-.629.629V28.934a.629.629,0,0,0,.629.629ZM8.758,2.066a.81.81,0,0,1,.808-.808H33.282a.81.81,0,0,1,.808.808V5.48H8.758ZM34.09,43.928a.81.81,0,0,1-.808.808H9.566a.81.81,0,0,1-.808-.808V40.514H34.09ZM46.847,28.3h-8.53a.629.629,0,0,0-.444.184l-3.152,3.152-3.152-3.152a.629.629,0,0,0-.444-.184H22.6V13.3h24.25Z" transform="translate(-7.5)" fill="#707070"/>
  <path id="Path_5677" data-name="Path 5677" d="M59.6,47.458h2.512a.629.629,0,0,0,0-1.258H60.754v-.937a.629.629,0,1,0-1.258,0v.942a2.086,2.086,0,0,0-1.984,2.08v1.092a.629.629,0,0,0,.629.629h3.34v.463a.829.829,0,0,1-.826.826H58.141a.629.629,0,0,0,0,1.258H59.5v.973a.629.629,0,1,0,1.258,0V52.55a2.086,2.086,0,0,0,1.984-2.08V49.378a.629.629,0,0,0-.629-.629H58.77v-.464A.829.829,0,0,1,59.6,47.458Z" transform="translate(-39.541 -28.596)" fill="#707070"/>
  <path id="Path_5678" data-name="Path 5678" d="M81.5,45.264a.629.629,0,0,0,.629.629h9.48a.629.629,0,0,0,0-1.258H82.13a.629.629,0,0,0-.63.629Z" transform="translate(-54.91 -28.596)" fill="#707070"/>
  <path id="Path_5679" data-name="Path 5679" d="M91.613,56.085h-9.48a.629.629,0,0,0,0,1.258h9.48a.629.629,0,0,0,0-1.258Z" transform="translate(-54.912 -35.932)" fill="#707070"/>
  <path id="Path_5680" data-name="Path 5680" d="M86.873,67.534h-4.74a.629.629,0,0,0,0,1.258h4.74a.629.629,0,1,0,0-1.258Z" transform="translate(-54.912 -43.267)" fill="#707070"/>
</svg>
