<svg id="credit-card" xmlns="http://www.w3.org/2000/svg" width="44.51" height="45.994" viewBox="0 0 44.51 45.994">
  <path id="Path_5667" data-name="Path 5667" d="M126.677,464h-5.935a.742.742,0,1,0,0,1.484h5.935a.742.742,0,1,0,0-1.484Z" transform="translate(-110.356 -421.715)" fill="#707070"/>
  <path id="Path_5668" data-name="Path 5668" d="M57.914,22.095H42.706V10.6A2.6,2.6,0,0,0,40.11,8H18.6A2.6,2.6,0,0,0,16,10.6V51.4a2.6,2.6,0,0,0,2.6,2.6H40.11a2.6,2.6,0,0,0,2.6-2.6V40.641H57.914a2.6,2.6,0,0,0,2.6-2.6V24.691a2.6,2.6,0,0,0-2.6-2.6ZM32.854,9.484l-.371,1.484H26.223l-.371-1.484ZM41.223,51.4A1.114,1.114,0,0,1,40.11,52.51H18.6A1.114,1.114,0,0,1,17.484,51.4V10.6A1.114,1.114,0,0,1,18.6,9.484h5.726l.6,2.405a.742.742,0,0,0,.72.562h7.418a.742.742,0,0,0,.72-.562l.6-2.406H40.11A1.114,1.114,0,0,1,41.223,10.6Zm1.484-18.175h2.226V36.19H42.706Zm16.32,4.822a1.114,1.114,0,0,1-1.113,1.113H42.706V37.674h2.967a.742.742,0,0,0,.742-.742V32.481a.742.742,0,0,0-.742-.742H42.706V29.513h16.32Zm0-10.015H42.706V26.546h16.32Zm0-2.967H42.706V23.579H57.914a1.114,1.114,0,0,1,1.113,1.113Z" transform="translate(-16 -8)" fill="#707070"/>
  <path id="Path_5669" data-name="Path 5669" d="M383.418,264h-6.677a.742.742,0,0,0,0,1.484h6.677a.742.742,0,0,0,0-1.484Z" transform="translate(-342.617 -240.261)" fill="#707070"/>
  <path id="Path_5670" data-name="Path 5670" d="M383.418,288h-6.677a.742.742,0,0,0,0,1.484h6.677a.742.742,0,0,0,0-1.484Z" transform="translate(-342.617 -262.036)" fill="#707070"/>
  <path id="Path_5671" data-name="Path 5671" d="M419.709,312h-2.967a.742.742,0,0,0,0,1.484h2.967a.742.742,0,1,0,0-1.484Z" transform="translate(-378.908 -283.81)" fill="#707070"/>
  <path id="Path_5672" data-name="Path 5672" d="M72.9,160a8.9,8.9,0,1,0,8.9,8.9A8.9,8.9,0,0,0,72.9,160Zm0,16.32a7.418,7.418,0,1,1,7.418-7.418A7.418,7.418,0,0,1,72.9,176.32Z" transform="translate(-59.549 -145.905)" fill="#707070"/>
  <path id="Path_5673" data-name="Path 5673" d="M120.377,224.217l-4.738,4.738-2.453-1.839a.742.742,0,1,0-.89,1.187l2.967,2.226a.742.742,0,0,0,.97-.069l5.193-5.193a.742.742,0,1,0-1.049-1.049Z" transform="translate(-103.097 -203.97)" fill="#707070"/>
</svg>
