<svg xmlns="http://www.w3.org/2000/svg" width="654.408" height="488.412" viewBox="0 0 654.408 488.412">
  <g id="Layer_27" data-name="Layer 27" transform="translate(-230.92 -208.855)">
    <path id="Path_5481" data-name="Path 5481" d="M600.7,456.347s-16.739-112.267-25.8-131.793-10.752-36.729-38.277-40.169-33.529-59.075-33.529-59.075l-52.624,2.426s1.462,11.474-8.6,11.7-13.573,3.664.189,12.266,6.4,27.37,14.382,32.686a90.473,90.473,0,0,0,17.461,8.6s-15.706,6.417-20.334,15.328-12.163,25.22-11.836,33.408S446.349,387,457.1,386.485s12.369-2.426,12.369-2.426L456,436.219S558.066,473.481,600.7,456.347Z" transform="translate(145.542 11.853)" fill="#fff"/>
    <path id="Path_5482" data-name="Path 5482" d="M369.566,265.958l-5.316-43.541,66.989-3.527L425.7,270.826l-55.48.447Z" transform="translate(96.038 7.228)" fill="#fff"/>
    <path id="Path_5483" data-name="Path 5483" d="M575.612,410.3a14.726,14.726,0,0,1-14.588,14.588H475.473a14.623,14.623,0,0,1,0-29.245h85.551A14.571,14.571,0,0,1,575.611,410.3Z" transform="translate(165.62 134.542)" fill="#fff"/>
    <path id="Path_5484" data-name="Path 5484" d="M561.023,395.68H475.473a14.623,14.623,0,0,0,0,29.245h85.551a14.726,14.726,0,0,0,14.588-14.588,14.571,14.571,0,0,0-14.588-14.657Zm0,24.979H475.473a10.167,10.167,0,0,1,0-20.334h85.551a10.167,10.167,0,0,1,0,20.334Z" transform="translate(165.62 134.571)"/>
    <path id="Path_5485" data-name="Path 5485" d="M455.452,551.683h-.447a2.1,2.1,0,0,1-1.548-2.649l34.7-137.263a2.173,2.173,0,1,1,4.2,1.118l-34.7,137.246a2.632,2.632,0,0,1-2.2,1.548Z" transform="translate(160.231 144.991)"/>
    <path id="Path_5486" data-name="Path 5486" d="M549.325,551.612a2.3,2.3,0,0,1-2.2-1.72L512.407,412.853a2.185,2.185,0,0,1,4.215-1.118L551.3,548.963a2.271,2.271,0,0,1-1.548,2.649Z" transform="translate(202.727 145.061)"/>
    <path id="Path_5487" data-name="Path 5487" d="M495.074,551.663a2.082,2.082,0,0,1-2.2-2.2V412.2a2.219,2.219,0,0,1,4.421,0V549.461a2.1,2.1,0,0,1-2.219,2.2Z" transform="translate(188.682 145.011)"/>
    <path id="Path_5488" data-name="Path 5488" d="M458.124,449.052l-17.908,49.08-90.9-28.523s-8.171-2.649-4.645-8.172,59.9-1.72,59.9-1.72l13.917-24.308Z" transform="translate(81.298 163.189)" fill="#fff"/>
    <path id="Path_5489" data-name="Path 5489" d="M441.168,501.27h-.654l-90.849-28.505c-.654-.224-5.3-2-6.881-5.746a6.451,6.451,0,0,1,.877-5.746c3.544-5.539,38.913-4.2,60.572-2.873L417.5,435.193a2.03,2.03,0,0,1,2.649-.895l39.567,13.762a2.289,2.289,0,0,1,1.325,1.1,2.408,2.408,0,0,1,0,1.72l-17.874,49.063a1.944,1.944,0,0,1-2,1.325ZM370.893,461.7c-12.386,0-21.882.671-23.654,2-.447.877-.447,1.548-.224,1.72a6.52,6.52,0,0,0,3.974,2.873l88.854,27.852,16.36-44.883-35.576-12.369-13.04,22.76a2.667,2.667,0,0,1-2,1.118c-11.715-.619-24.36-1.067-34.681-1.067Z" transform="translate(80.346 162.253)"/>
    <path id="Path_5490" data-name="Path 5490" d="M510.629,459.741l3.75,55.05H419.763s-9.273-.447-6.623-6.193c3.32-7.518,55.927-19.233,55.927-19.233l-.224-30.725Z" transform="translate(130.911 179.922)" fill="#fff"/>
    <path id="Path_5491" data-name="Path 5491" d="M515.346,517.681H420.73c-1.1,0-6.623-.43-8.6-3.75a5.8,5.8,0,0,1-.206-5.522c3.3-7.518,41.545-16.807,55.686-20.11V459.552a2.013,2.013,0,0,1,.671-1.548,2.408,2.408,0,0,1,1.548-.654l41.769,1.1a2.357,2.357,0,0,1,2.219,2l3.75,55.05a2.96,2.96,0,0,1-.671,1.72A3.114,3.114,0,0,1,515.346,517.681Zm-43.317-55.91v28.282a2.151,2.151,0,0,1-1.72,2.219c-24.755,5.522-52.59,13.917-54.362,17.908a2.1,2.1,0,0,0-.224,1.531c.654.895,3.32,1.548,4.868,1.72h92.157l-3.3-50.611Z" transform="translate(129.944 178.992)"/>
    <path id="Path_5492" data-name="Path 5492" d="M430.55,543.721l87.082-4.421L495.543,420.616l74.266-3.1,2.426-52.16H435.419Z" transform="translate(143.795 112.732)" fill="#fcdc74"/>
    <path id="Path_5493" data-name="Path 5493" d="M777.228,331.235H296.661a2.219,2.219,0,1,1,0-4.421H777.228a2.082,2.082,0,0,1,2.2,2.219,2.2,2.2,0,0,1-2.2,2.2Z" transform="translate(45.615 84.96)"/>
    <path id="Path_5494" data-name="Path 5494" d="M300.559,611.8h-.224a2.58,2.58,0,0,1-2-2.426l38.982-280.7a2.222,2.222,0,0,1,4.421.447L302.761,610.05A2.133,2.133,0,0,1,300.559,611.8Z" transform="translate(48.563 84.869)"/>
    <path id="Path_5495" data-name="Path 5495" d="M588.234,611.8a2.34,2.34,0,0,1-2.2-1.978l-38.948-280.7a2.222,2.222,0,1,1,4.421-.447l38.913,280.685a2.082,2.082,0,0,1-2,2.426Z" transform="translate(227.727 84.869)"/>
    <rect id="Rectangle_954" data-name="Rectangle 954" width="166.87" height="13.487" transform="translate(365.259 400.506)" fill="#fff"/>
    <path id="Path_5496" data-name="Path 5496" d="M476.8,336.858H309.93a2.1,2.1,0,0,1-2.219-2.2V321.169A2.1,2.1,0,0,1,309.93,319H476.8a2.1,2.1,0,0,1,2.219,2.219v13.487A2.219,2.219,0,0,1,476.8,336.858Zm-164.668-4.421H474.6v-9.066H312.15v9.066Z" transform="translate(55.311 79.337)"/>
    <path id="Path_5497" data-name="Path 5497" d="M283.31,265.4H403.336l44.195,94.376H327.522Z" transform="translate(37.737 40.73)" fill="#fff"/>
    <path id="Path_5498" data-name="Path 5498" d="M448.429,363H328.4a2.116,2.116,0,0,1-2-1.325L282.213,267.3a2.632,2.632,0,0,1,.206-2.2,2.271,2.271,0,0,1,1.72-1.118H404.166a2.116,2.116,0,0,1,1.978,1.325L450.356,359.7a2.563,2.563,0,0,1-.224,2.2,1.944,1.944,0,0,1-1.7,1.1Zm-118.46-4.37H444.9L402.91,268.676H287.976Z" transform="translate(36.838 39.707)"/>
    <path id="Path_5499" data-name="Path 5499" d="M322.11,309.193l15.483-22.983,15.466,22.983Z" transform="translate(65.685 55.719)" fill="#fcdc74"/>
    <path id="Path_5500" data-name="Path 5500" d="M475.139,291.708a22.655,22.655,0,0,1-11.268-2.873A24.222,24.222,0,0,1,452.6,274.471c-3.544-13.487-6.64-21.676-7.965-22.777-.654-.43-1.72-.877-3.1-1.548-4.2-1.978-9.5-4.421-10.167-8.6a7.226,7.226,0,0,1,1.72-6.193c3.974-4.628,13.04-4.628,14.141-4.628a2.219,2.219,0,1,1,0,4.421c-1.978,0-8.6.654-10.821,3.1a2.718,2.718,0,0,0-.671,2.649c.224,1.978,4.868,3.974,7.741,5.3,1.548.671,2.649,1.325,3.75,1.72s3.991,2.649,9.961,25.409a18.287,18.287,0,0,0,9.049,11.492,19.37,19.37,0,0,0,16.136,1.118,2.308,2.308,0,0,1,1.325,4.421,29.379,29.379,0,0,1-8.567,1.359Z" transform="translate(144.295 15.746)"/>
    <circle id="Ellipse_79" data-name="Ellipse 79" cx="2.873" cy="2.873" r="2.873" transform="translate(604.415 255.948)"/>
    <circle id="Ellipse_80" data-name="Ellipse 80" cx="2.873" cy="2.873" r="2.873" transform="translate(616.561 257.944)"/>
    <path id="Path_5501" data-name="Path 5501" d="M440.32,244.9h55.256l8.842,86.858,64.1-27.628s-20.644-73.165-55.256-68.967c-3.767-11.492-9.066-26.734-38.913-26.3C440.32,209.311,440.32,244.9,440.32,244.9Z" transform="translate(150.832)" fill="#fcdc74"/>
    <path id="Path_5502" data-name="Path 5502" d="M483.8,229.473a2,2,0,0,1-1.1-.224,2.236,2.236,0,0,1-.877-3.1c.224-.224,3.75-6.623,9.943-6.623a2.219,2.219,0,0,1,0,4.421c-3.75,0-5.969,4.2-6.193,4.421A1.72,1.72,0,0,1,483.8,229.473Z" transform="translate(180.504 7.689)"/>
    <path id="Path_5503" data-name="Path 5503" d="M481.624,273.561s-9.513-8.6-11.939-12.163-6.417-5.3-8.842-1.548a10.477,10.477,0,0,0,.654,9.513C463.441,271.565,476.309,276.21,481.624,273.561Z" transform="translate(165.008 35.218)" fill="#fff"/>
    <path id="Path_5504" data-name="Path 5504" d="M478.331,277.629c-6.881,0-15.689-3.544-17.668-5.969-2.219-3.1-2.666-9.29-.671-12.163a6.245,6.245,0,0,1,5.3-3.1h0a8.773,8.773,0,0,1,7.088,4.645c1.978,2.873,9.049,9.513,11.492,11.939a2.254,2.254,0,0,1,.654,2,3.44,3.44,0,0,1-1.325,1.72,13.488,13.488,0,0,1-4.868.929Zm-13.04-16.756c-.206,0-.877,0-1.548,1.118a9.117,9.117,0,0,0,.671,7.07c1.1,1.325,8.172,3.974,13.487,4.2a86.623,86.623,0,0,1-9.066-9.513c-1.1-1.72-2.426-2.873-3.544-2.873Z" transform="translate(164.086 34.247)"/>
    <path id="Path_5505" data-name="Path 5505" d="M462.724,291.855a17.323,17.323,0,0,0,8.842-2,125.6,125.6,0,0,0,3.441,13.264l25.2-18.562s-4.645-13.762-12.816-16.807-23.431-5.3-34.7,0c-3.768,2.219-5.161,7.088,0,8.6-3.1,2.2-6.64,7.948.654,10.322-3.1,2.443-2.873,5.316-.877,7.518,5.3,5.969,16.584,2.873,20.558,2.873" transform="translate(157.122 40.131)" fill="#fff"/>
    <path id="Path_5506" data-name="Path 5506" d="M475.973,306.441h-.654a1.944,1.944,0,0,1-1.325-1.548c0-.224-.671-2-1.325-4.421-.447,0-.895.224-1.548.224-5.316.654-14.365,1.72-19.233-3.991a7,7,0,0,1-1.1-8.4,6.056,6.056,0,0,1-2.873-4.2,8.894,8.894,0,0,1,1.978-6.417,4.594,4.594,0,0,1-1.72-3.527,8.034,8.034,0,0,1,4.421-7.518c11.492-5.522,26.957-3.974,36.677-.224,9.066,3.544,13.934,17.685,14.158,18.132a2.1,2.1,0,0,1-.895,2.426l-25.2,18.562A1.617,1.617,0,0,1,475.973,306.441Zm.224-8.842c.224,1.1.671,1.978.895,2.873l21.435-15.689c-1.72-4.215-5.746-11.939-10.838-13.935-7.294-2.873-22.089-5.3-32.927,0-1.325.877-2.2,2.219-2,3.1s1.118,1.1,1.72,1.325a2.133,2.133,0,0,1,1.548,1.72,2.1,2.1,0,0,1-.877,2.2,5.694,5.694,0,0,0-2.6,4.421c.206,1.118,1.531,1.72,2.873,2.219a2.5,2.5,0,0,1,1.531,1.72,2.236,2.236,0,0,1-.877,2.2,3.234,3.234,0,0,0-1.548,2.219,3.44,3.44,0,0,0,.895,2.2c3.3,3.974,10.6,3.1,15.242,2.426h.877a8.325,8.325,0,0,1-.43-2.2,23.259,23.259,0,0,1-7.07.877,2.219,2.219,0,1,1,0-4.421,13.436,13.436,0,0,0,7.5-1.548,2.254,2.254,0,0,1,2-.224,2.356,2.356,0,0,1,1.325,1.548,31.516,31.516,0,0,0,1.325,6.881Z" transform="translate(156.277 39.032)"/>
    <path id="Path_5507" data-name="Path 5507" d="M452.2,275.778a2.34,2.34,0,0,1-2-1.1,2.236,2.236,0,0,1,.895-3.1,23.154,23.154,0,0,1,10.821-3.1,2.219,2.219,0,1,1,0,4.421,17.2,17.2,0,0,0-8.4,2.649A3.853,3.853,0,0,1,452.2,275.778Z" transform="translate(157.737 42.945)"/>
    <path id="Path_5508" data-name="Path 5508" d="M452.575,281.908a2.305,2.305,0,0,1-1.978-1.1,2.236,2.236,0,0,1,.877-3.1,29.056,29.056,0,0,1,10.838-3.32,2.2,2.2,0,0,1,2.2,2.219,2.082,2.082,0,0,1-2.2,2.2,24.257,24.257,0,0,0-8.842,2.649A1.17,1.17,0,0,1,452.575,281.908Z" transform="translate(158.016 47.205)"/>
    <path id="Path_5509" data-name="Path 5509" d="M536.547,325.256l-33.374-50.181L460.75,305.8l66.3,60.572a23.344,23.344,0,0,0,15.483,5.969h0a22.949,22.949,0,0,0,22.553-27.2c-5.746-30.725-11.715-70.275-23.207-78.463" transform="translate(165.548 41.652)" fill="#fff"/>
    <path id="Path_5510" data-name="Path 5510" d="M543.554,375.607a25.684,25.684,0,0,1-17.014-6.623l-66.266-60.572a2.529,2.529,0,0,1-.654-1.72,2.735,2.735,0,0,1,.877-1.72l42.44-30.725a2.374,2.374,0,0,1,1.72-.447,2.305,2.305,0,0,1,1.548.877l33.374,50.181a2.24,2.24,0,1,1-3.767,2.426L503.78,279.115l-38.242,27.852,64.322,58.576a20.745,20.745,0,0,0,34.251-19.233c-.654-3.527-1.325-7.294-2-11.044-4.851-26.3-10.821-59.23-20.11-66.094a2.205,2.205,0,0,1,2.649-3.527c10.614,7.724,16.36,38.9,21.882,68.812.671,3.767,1.325,7.518,2,11.062A25.65,25.65,0,0,1,543.554,375.8Z" transform="translate(164.734 40.588)"/>
    <path id="Path_5511" data-name="Path 5511" d="M464.028,337.874l22.364-42.216L441.079,281.07l-14.795,54.379a21.074,21.074,0,0,0,20.334,26.734h0a22.364,22.364,0,0,0,14.141-5.3l12.593-11.268" transform="translate(140.164 52.017)" fill="#fff"/>
    <path id="Path_5512" data-name="Path 5512" d="M447.533,365.131a23.5,23.5,0,0,1-22.553-29.624l14.812-54.138c.224-.671.447-1.118,1.1-1.325a2.339,2.339,0,0,1,1.72-.224l45.313,14.588a1.961,1.961,0,0,1,1.325,1.325,2.408,2.408,0,0,1,0,1.72L466.887,339.67a2.276,2.276,0,0,1-3.974-2.219l21.177-39.946-40.668-13.057-14.158,52.177a18.955,18.955,0,0,0,30.862,19.25l12.593-11.268a2.167,2.167,0,0,1,3.1.224,2.133,2.133,0,0,1-.224,3.1L463,359.2A23.258,23.258,0,0,1,447.533,365.131Z" transform="translate(139.197 51.064)"/>
    <path id="Path_5513" data-name="Path 5513" d="M446.61,375.412s14.365-57.475,16.584-68.812" transform="translate(155.363 70.406)" fill="#fff"/>
    <path id="Path_5514" data-name="Path 5514" d="M447.477,378.559h-.43a2.082,2.082,0,0,1-1.548-2.649c.206-.671,14.365-57.475,16.567-68.812a2.255,2.255,0,1,1,4.421.894c-2.2,11.492-15.913,66.524-16.567,68.95A2.735,2.735,0,0,1,447.477,378.559Z" transform="translate(154.495 69.462)"/>
    <path id="Path_5515" data-name="Path 5515" d="M440.57,292.53s4.2-17.908,15.035-22.76" transform="translate(151.012 43.877)" fill="#fff"/>
    <path id="Path_5516" data-name="Path 5516" d="M441.568,295.566h-.447a2.082,2.082,0,0,1-1.531-2.649c.206-.654,4.628-19.009,16.119-24.084a2.168,2.168,0,1,1,1.72,3.974c-9.5,4.2-13.762,21-13.762,21.211a2.649,2.649,0,0,1-2.1,1.548Z" transform="translate(150.238 43.043)"/>
    <path id="Path_5517" data-name="Path 5517" d="M455.35,290.3s4.421-6.176,6.623-6.4" transform="translate(161.658 54.055)" fill="#fff"/>
    <path id="Path_5518" data-name="Path 5518" d="M456.32,293.46a3.028,3.028,0,0,1-1.325-.447,2,2,0,0,1-.447-3.1c1.72-2.649,5.3-7.07,8.171-7.294a2.1,2.1,0,0,1,2.443,2,2.2,2.2,0,0,1-2,2.426,26.276,26.276,0,0,0-5.075,5.522,2.03,2.03,0,0,1-1.772.895Z" transform="translate(160.688 53.114)"/>
    <path id="Path_5519" data-name="Path 5519" d="M519.2,301s12.833,55.48,19.233,89.731" transform="translate(207.65 66.373)" fill="#fff"/>
    <path id="Path_5520" data-name="Path 5520" d="M539.373,393.856a2.133,2.133,0,0,1-2.2-1.72c-6.417-34.045-19.009-89.077-19.233-89.748a2.254,2.254,0,1,1,4.421-.877c.224.654,12.816,55.91,19.233,89.955a2.426,2.426,0,0,1-1.72,2.649.688.688,0,0,0-.5-.258Z" transform="translate(206.709 65.432)"/>
    <path id="Path_5521" data-name="Path 5521" d="M614.378,368.3l-120.232-22.02a40.823,40.823,0,0,0-42.371,19.147L371.11,500.042l86.566,33.752,29.245-120.7,117.961,18.2a36.3,36.3,0,0,0,41.769-38.019L645.1,367.2Z" transform="translate(100.98 98.505)" fill="#fcdc74"/>
    <path id="Path_5522" data-name="Path 5522" d="M422.3,508.681h-.447a2.116,2.116,0,0,1-1.548-2.649L449.55,385.352a2.408,2.408,0,0,1,2.443-1.72l118.03,18.132a2.168,2.168,0,0,1,1.72,2.426,2.2,2.2,0,0,1-2.426,1.72L453.283,388,424.537,506.7a2.305,2.305,0,0,1-2.236,1.978Z" transform="translate(136.355 125.89)"/>
    <path id="Path_5523" data-name="Path 5523" d="M443.868,388.76h-.447l-10.821-1.72a2.254,2.254,0,1,1,.877-4.421l10.838,1.72a2.288,2.288,0,0,1,1.72,2.649A2.15,2.15,0,0,1,443.868,388.76Z" transform="translate(143.964 125.131)"/>
    <path id="Path_5524" data-name="Path 5524" d="M366.966,277.205H364.3a1.978,1.978,0,0,1-1.978-2.426,2.082,2.082,0,0,1,2.426-2c.224,0,30.5,2.219,36.247-18.786a2.17,2.17,0,1,1,4.2,1.1C399.5,275.433,375.189,277.205,366.966,277.205Z" transform="translate(94.612 31.35)"/>
    <path id="Path_5525" data-name="Path 5525" d="M426.659,274.029H377.545a2.219,2.219,0,0,1,0-4.421h47.085l5.075-47.291-62.1,3.32,5.075,41.1a2.185,2.185,0,0,1-1.978,2.443,2.219,2.219,0,0,1-2.443-2l-5.247-43.541a2.392,2.392,0,0,1,.447-1.72,3.6,3.6,0,0,1,1.548-.877l66.971-3.544a2.46,2.46,0,0,1,1.72.671,2.5,2.5,0,0,1,.671,1.72l-5.522,51.936a2.357,2.357,0,0,1-2.185,2.2Z" transform="translate(95.13 6.227)"/>
    <path id="Path_5526" data-name="Path 5526" d="M375.409,240.431a3.183,3.183,0,0,1-1.342-.447,2.168,2.168,0,0,1-.654-3.1c.224-.43,6.881-10.167,17.908-10.167a2.219,2.219,0,0,1,0,4.421c-8.6,0-14.158,8.189-14.158,8.189A2.253,2.253,0,0,1,375.409,240.431Z" transform="translate(102.357 12.868)"/>
    <path id="Path_5527" data-name="Path 5527" d="M378.862,242.157a3.182,3.182,0,0,1-1.325-.447,2.15,2.15,0,0,1-.654-3.079c.224-.224,4.645-6.64,11.715-6.64a2.219,2.219,0,0,1,0,4.421c-4.868,0-8.189,4.645-8.189,4.645A1.72,1.72,0,0,1,378.862,242.157Z" transform="translate(104.857 16.664)"/>
    <path id="Path_5528" data-name="Path 5528" d="M382.087,244.2a3.235,3.235,0,0,1-1.325-.43,2.168,2.168,0,0,1-.671-3.1,7.673,7.673,0,0,1,6.193-3.544,2.219,2.219,0,0,1,0,4.421,3.768,3.768,0,0,0-2.649,1.548,1.428,1.428,0,0,1-1.548,1.1Z" transform="translate(107.171 20.367)"/>
    <path id="Path_5529" data-name="Path 5529" d="M400.562,240.341a2.787,2.787,0,0,1-1.72-.877c0-.224-5.522-8.189-14.141-8.189a2.219,2.219,0,1,1,0-4.421c10.821,0,17.461,9.737,17.667,10.167a2.168,2.168,0,0,1-.654,3.1,10.051,10.051,0,0,1-1.153.224Z" transform="translate(109.03 12.958)"/>
    <path id="Path_5530" data-name="Path 5530" d="M394.593,242.067a2.787,2.787,0,0,1-1.72-.877s-3.32-4.645-8.171-4.645a2.219,2.219,0,1,1,0-4.421,14.967,14.967,0,0,1,11.715,6.623,2.185,2.185,0,0,1-.671,3.1,10.068,10.068,0,0,1-1.153.224Z" transform="translate(109.03 16.754)"/>
    <path id="Path_5531" data-name="Path 5531" d="M389.07,244.11a2.666,2.666,0,0,1-1.72-.877,3.767,3.767,0,0,0-2.649-1.548,2.219,2.219,0,1,1,0-4.421,7.621,7.621,0,0,1,6.176,3.544,2.15,2.15,0,0,1-.654,3.079A1.72,1.72,0,0,1,389.07,244.11Z" transform="translate(109.03 20.457)"/>
    <path id="Path_5532" data-name="Path 5532" d="M883.432,494.2H232.64a1.72,1.72,0,1,1,0-3.441H883.6a1.617,1.617,0,0,1,1.72,1.72,1.72,1.72,0,0,1-1.892,1.72Z" transform="translate(0 203.056)"/>
  </g>
</svg>
