<svg id="Layer_1" data-name="Layer 1" xmlns="http://www.w3.org/2000/svg" xmlns:xlink="http://www.w3.org/1999/xlink" viewBox="0 0 727.57 604.25"><defs><style>.cls-1{fill:none;}.cls-2{clip-path:url(#clip-path);}.cls-3{clip-path:url(#clip-path-2);}.cls-18,.cls-4{fill:#f1e7de;}.cls-12,.cls-5{fill:#f8f4f1;}.cls-6,.cls-7{fill:#fff;}.cls-12,.cls-15,.cls-17,.cls-18,.cls-20,.cls-7,.cls-8,.cls-9{fill-rule:evenodd;}.cls-21,.cls-8{fill:#c0c8d3;}.cls-19,.cls-9{fill:#f99184;}.cls-10{fill:#d5cda0;}.cls-11{fill:#f59289;}.cls-13,.cls-15{fill:#2e1407;}.cls-14{fill:#5a74ca;}.cls-16,.cls-17{fill:#311c19;}.cls-20{fill:#ae4f39;}</style><clipPath id="clip-path"><rect class="cls-1" x="83.29" y="41.18" width="519.23" height="542"/></clipPath><clipPath id="clip-path-2"><rect class="cls-1" x="83.29" y="41.18" width="519.23" height="542"/></clipPath></defs><g class="cls-2"><g class="cls-3"><path class="cls-4" d="M303.38,41.18h209a8.09,8.09,0,0,1,8.1,8.1V199.11a8.1,8.1,0,0,1-8.1,8.1h-209a8.1,8.1,0,0,1-8.1-8.1V49.28a8.09,8.09,0,0,1,8.1-8.1"/><path class="cls-5" d="M314.85,93.29A7.11,7.11,0,0,1,322,86.18h36.76a7.11,7.11,0,0,1,7.12,7.11v90.77a7.12,7.12,0,0,1-7.12,7.12H322a7.12,7.12,0,0,1-7.12-7.12Z"/><path class="cls-5" d="M374.85,93.29A7.11,7.11,0,0,1,382,86.18H495.73a7.11,7.11,0,0,1,7.12,7.11v33.77a7.12,7.12,0,0,1-7.12,7.12H382a7.12,7.12,0,0,1-7.12-7.12Z"/><path class="cls-5" d="M374.85,150.29a7.11,7.11,0,0,1,7.12-7.11H495.73a7.11,7.11,0,0,1,7.12,7.11v33.77a7.12,7.12,0,0,1-7.12,7.12H382a7.12,7.12,0,0,1-7.12-7.12Z"/><rect class="cls-6" x="295.68" y="74.69" width="224.34" height="1"/><path class="cls-7" d="M309.86,62.86A3.86,3.86,0,1,0,306,59a3.85,3.85,0,0,0,3.86,3.86m0,1A4.86,4.86,0,1,0,305,59a4.86,4.86,0,0,0,4.86,4.86"/><path class="cls-7" d="M322.82,62.86A3.86,3.86,0,1,0,319,59a3.86,3.86,0,0,0,3.86,3.86m0,1A4.86,4.86,0,1,0,318,59a4.87,4.87,0,0,0,4.86,4.86"/><path class="cls-7" d="M335.78,62.86A3.86,3.86,0,1,0,331.92,59a3.86,3.86,0,0,0,3.86,3.86m0,1A4.86,4.86,0,1,0,330.92,59a4.87,4.87,0,0,0,4.86,4.86"/><path class="cls-8" d="M295.79,144.24a27.18,27.18,0,1,0-27.18-27.18,27.18,27.18,0,0,0,27.18,27.18m0,1a28.18,28.18,0,1,0-28.18-28.18,28.18,28.18,0,0,0,28.18,28.18"/><path class="cls-9" d="M283.63,116a1,1,0,0,1,1.41,0l10.73,10.73L313.3,111a1,1,0,0,1,1.34,1.49L296.4,128.89a1,1,0,0,1-1.38,0l-11.39-11.39a1,1,0,0,1,0-1.42"/><path class="cls-8" d="M560.55,97.51h-116a6.12,6.12,0,0,0-6.12,6.12v75.43a6.12,6.12,0,0,0,6.12,6.12h116a6.12,6.12,0,0,0,6.11-6.12V103.63a6.12,6.12,0,0,0-6.11-6.12m-116-1a7.12,7.12,0,0,0-7.12,7.12v75.43a7.12,7.12,0,0,0,7.12,7.12h116a7.11,7.11,0,0,0,7.11-7.12V103.63a7.11,7.11,0,0,0-7.11-7.12Z"/><path class="cls-10" d="M512.15,141.35A29.18,29.18,0,1,1,483,112.17a29.17,29.17,0,0,1,29.17,29.18"/><path class="cls-11" d="M551.59,141.35a29.18,29.18,0,1,1-29.18-29.18,29.18,29.18,0,0,1,29.18,29.18"/><path class="cls-12" d="M502.7,162.85a29.17,29.17,0,0,0,0-43,29.15,29.15,0,0,0,0,43"/><path class="cls-13" d="M172.5,582.21V545l-42.94,6.2-.95,10c-21,9.54-45.32,16.21-45.32,21,0,1.91,47.23.48,89.21,0"/><path class="cls-13" d="M216.86,582.21V545l42.93,6.2,1,10c21,9.54,45.31,16.21,45.31,21,0,1.91-47.22.48-89.2,0"/><polygon class="cls-14" points="130.52 551.68 137.35 292.68 236.85 292.68 261.23 551.68 215.91 551.68 188.24 350.38 172.98 551.68 130.52 551.68"/><path class="cls-10" d="M132.18,166.83c-8.05,34.74,0,142.53,0,142.53H240.93l4.75-69.68,11.49,8.45a21.12,21.12,0,0,0,29.13-4L337,179.5l-25.87-13.73-38.54,35.9S252.54,170,243,157.85C233,145,209.26,141,209.26,141H178.2s-40.93,3.94-46,25.87"/><path class="cls-5" d="M173.85,149.68a10,10,0,0,1,10-10h20a10,10,0,0,1,10,10v159.5h-40Z"/><path class="cls-11" d="M323.82,147.82l-12.68,19L334.9,180l7.7-12.7a7.38,7.38,0,0,0-.85-8.8L334.9,151l10.34-17.78a1.06,1.06,0,0,0-1.58-1.35Z"/><path class="cls-15" d="M337.22,152.8a1.11,1.11,0,0,1,.1,1.56l-7.92,9a1.11,1.11,0,0,1-1.66-1.47l7.92-9a1.11,1.11,0,0,1,1.56-.1m3.64,4.71a1.11,1.11,0,0,1,.2,1.55l-3.7,4.75a1.11,1.11,0,1,1-1.75-1.36l3.7-4.75a1.1,1.1,0,0,1,1.55-.19"/><path class="cls-11" d="M234.33,194.13,220.4,211.8l11.26,18.87,23.81-11.84,8.21-3.71a1.43,1.43,0,0,0-.88-2.7l-7.2,1.46,12.54-8.63a1.43,1.43,0,0,0-1.32-2.52l-12.38,4.76L269.92,196a1.44,1.44,0,0,0-1.35-2.5l-18.4,6.8,12.39-10.44A1.43,1.43,0,0,0,261,187.5L234.9,199.87l1.87-4.28a1.43,1.43,0,0,0-2.44-1.46"/><path class="cls-10" d="M159.21,231.76l10.9-55.41A19.36,19.36,0,0,0,166.6,161c-10.06-13.42-31.27-8.59-34.52,7.87l-16.93,85.79a21.11,21.11,0,0,0,30.09,23l92.52-45.89L223.09,208Z"/><path class="cls-15" d="M238.22,232.31a1.11,1.11,0,0,1-.48,1.49L139.55,284a1.11,1.11,0,1,1-1-2l98.19-50.15a1.11,1.11,0,0,1,1.49.48"/><path class="cls-15" d="M167.25,193.19a1.11,1.11,0,0,1,.86,1.31l-7.51,36.56,47.73-18.28a1.1,1.1,0,1,1,.79,2.06l-49.62,19a1.11,1.11,0,0,1-1.48-1.26l7.92-38.54a1.12,1.12,0,0,1,1.31-.86"/><path class="cls-16" d="M154.56,106.53c2.86-25.76,18.12-35.78,18.12-35.78s34.25-30,58.39-3.32-15.93,56.27-15.93,56.27l-32.25,19.58s-31.2-11-28.33-36.75"/><path class="cls-11" d="M209.13,135.17s11,2.86,18.12-5.25,2.87-21,2.87-21L223.44,82.7s-11.79,5.18-16.7,12.4c-8.11,11.93-15.26,10-15.26,10s-14.31-8.59-16.7,4.77c-1.68,9.43,9.07,13.35,9.07,13.35L180,141.85s.95,11,14.31,12.4c13.75,1.47,14.79-6.2,14.79-6.2Z"/><polygon class="cls-13" points="209.13 144.71 209.6 135.17 193.86 127.54 209.13 144.71"/><path class="cls-17" d="M179.93,109.4a.77.77,0,0,1,1.06-.09l6.2,5.25a.75.75,0,0,1,.09,1.06.76.76,0,0,1-1.06.09l-6.2-5.25a.75.75,0,0,1-.09-1.06"/><path class="cls-17" d="M209.28,117.49a.67.67,0,0,0-1.34-.13l.66.07a3.21,3.21,0,0,0-.66-.06h0v0a.34.34,0,0,1,0,.09c0,.07,0,.18,0,.3a4.27,4.27,0,0,0,.19,1,3.75,3.75,0,0,0,2,2.25,3.66,3.66,0,0,0,3.21,0,4.71,4.71,0,0,0,.94-.57c.12-.08.2-.16.27-.21l.07-.07,0,0h0s0,0-.47-.48l.48.48a.67.67,0,0,0-.95-1h0l0,0-.19.16a4,4,0,0,1-.69.41,2.31,2.31,0,0,1-2.06,0,2.46,2.46,0,0,1-1.32-1.46,2.61,2.61,0,0,1-.12-.63,1.36,1.36,0,0,1,0-.18v0"/><path class="cls-17" d="M213.29,99.13a.76.76,0,0,1,.87.61c.05.26.09.51.13.75a17.75,17.75,0,0,0,1.35,5c.77,1.54,2.11,3.13,5,5.74a.94.94,0,0,1,.29,1,1.09,1.09,0,0,1-.54.59,5,5,0,0,1-1.15.39l-.7.16a14.82,14.82,0,0,0-1.94.54.74.74,0,0,1-1-.41.75.75,0,0,1,.41-1,16.74,16.74,0,0,1,2.26-.63l.58-.14.09,0a20.54,20.54,0,0,1-4.63-5.57,19.12,19.12,0,0,1-1.48-5.38c0-.26-.09-.52-.14-.79a.76.76,0,0,1,.61-.87m6.36,12.37s0,0,0,0h0"/><path class="cls-13" d="M220.16,97.94c1.09-.25,2.29.94,2.69,2.66s-.16,3.33-1.25,3.58-2.29-.94-2.69-2.67.16-3.32,1.25-3.57"/><path class="cls-13" d="M206.8,102.71c1.09-.25,2.29.94,2.69,2.66s-.16,3.33-1.25,3.58-2.29-.94-2.69-2.67.17-3.32,1.25-3.57"/><path class="cls-18" d="M518,311.1a1,1,0,0,1,1-.93h67.74a1,1,0,0,1,1,.95L602.53,579.2a1,1,0,0,1-2,.12L585.8,312.17H519.94L501.4,579.33a1,1,0,0,1-2-.14Z"/><path class="cls-18" d="M271.86,311.1a1,1,0,0,1,1-.93H340.6a1,1,0,0,1,1,.95l14.79,270a1,1,0,1,1-2,.11l-14.74-269H273.79L255.25,581.24a1,1,0,1,1-2-.14Z"/><rect class="cls-19" x="264.75" y="294.95" width="332.97" height="20.99" rx="4.77"/><path class="cls-10" d="M563.1,205c-7.52,11.22-18.86,16.8-25.31,12.46s-5.59-16.93,1.93-28.14,18.86-16.8,25.32-12.46,5.59,16.93-1.94,28.14"/><path class="cls-10" d="M516.82,205.44c11.71,8.25,17.56,20.08,13.09,26.44s-17.6,4.82-29.3-3.42S483,208.37,487.52,202s17.6-4.83,29.3,3.42"/><path class="cls-20" d="M554.14,191.56a.51.51,0,0,1,.17.69l-13.85,22.64a36.37,36.37,0,0,0-5.34,19v26.67a.5.5,0,0,1-.5.5.5.5,0,0,1-.5-.5V234.12l-25-17.64a.5.5,0,0,1-.12-.7.51.51,0,0,1,.69-.12l24.42,17.24a37.41,37.41,0,0,1,5.47-18.53l13.86-22.64a.49.49,0,0,1,.68-.17"/><path class="cls-21" d="M519.82,256.6a3.7,3.7,0,0,1,3.32-5.33h24.43a3.71,3.71,0,0,1,3.33,5.33l-4.2,8.56a3.71,3.71,0,0,0-.25,2.56l5.86,22.63a3.71,3.71,0,0,1-3.59,4.64H522a3.72,3.72,0,0,1-3.59-4.64l5.87-22.63a3.71,3.71,0,0,0-.26-2.56Z"/><path class="cls-13" d="M289.55,287.09a4.63,4.63,0,0,1,4.63-4.63H426.41a4.63,4.63,0,0,1,4.63,4.63v3.7a4.62,4.62,0,0,1-4.63,4.62H294.18a4.62,4.62,0,0,1-4.63-4.62Z"/><path class="cls-13" d="M364.27,222.62a4.63,4.63,0,0,1,4.34-3H463.1a4.63,4.63,0,0,1,4.31,6.31l-27.13,69.52H337.64Z"/><path class="cls-12" d="M405.72,262.1a5.84,5.84,0,1,0-2.92-7.73,5.83,5.83,0,0,0,2.92,7.73m-.83,1.82A7.84,7.84,0,1,0,401,253.55a7.85,7.85,0,0,0,3.91,10.37"/><path class="cls-15" d="M129.61,217.75a.51.51,0,0,0-.69.16l.42.27-.42-.27h0v0a.44.44,0,0,0-.06.1l-.25.4c-.21.35-.51.88-.9,1.56a.49.49,0,1,0,.86.49c.39-.67.69-1.19.9-1.53l.24-.4.06-.1,0,0M126,224.11a.5.5,0,0,0-.68.21c-.68,1.28-1.43,2.74-2.23,4.36a.49.49,0,0,0,.22.67.5.5,0,0,0,.67-.22c.8-1.62,1.55-3.07,2.22-4.35a.49.49,0,0,0-.2-.67m-4.39,8.79a.49.49,0,0,0-.66.24c-.65,1.4-1.32,2.89-2,4.45a.5.5,0,1,0,.91.4q1-2.33,2-4.43a.5.5,0,0,0-.25-.66m-3.92,8.95a.49.49,0,0,0-.65.27c-.6,1.47-1.21,3-1.81,4.58a.51.51,0,0,0,.29.64.5.5,0,0,0,.65-.29q.89-2.36,1.79-4.55a.49.49,0,0,0-.27-.65M114.18,251a.5.5,0,0,0-.64.3c-.53,1.52-1.06,3.07-1.57,4.66a.49.49,0,0,0,.32.63.51.51,0,0,0,.63-.32c.51-1.58,1-3.13,1.57-4.63a.5.5,0,0,0-.31-.64m-3.05,9.31a.5.5,0,0,0-.62.34c-.46,1.54-.91,3.12-1.33,4.72a.48.48,0,0,0,.35.61.49.49,0,0,0,.61-.35q.64-2.38,1.33-4.7a.5.5,0,0,0-.34-.62m-2.56,9.45a.5.5,0,0,0-.6.37c-.37,1.58-.73,3.17-1.07,4.79a.5.5,0,0,0,.39.59.49.49,0,0,0,.59-.38c.34-1.61.69-3.2,1.06-4.77a.49.49,0,0,0-.37-.6m-2,9.58a.5.5,0,0,0-.58.4c-.28,1.6-.54,3.22-.78,4.85a.5.5,0,0,0,1,.15c.24-1.62.5-3.23.78-4.82a.51.51,0,0,0-.41-.58M105.12,289a.5.5,0,0,0-.55.44q-.27,2.43-.45,4.89a.5.5,0,1,0,1,.08c.13-1.63.28-3.25.46-4.86a.5.5,0,0,0-.45-.55m-.77,9.76a.51.51,0,0,0-.52.48c-.06,1.63-.09,3.27-.1,4.92a.5.5,0,0,0,.5.5.5.5,0,0,0,.5-.5c0-1.63,0-3.26.1-4.88a.5.5,0,0,0-.48-.52m0,9.8a.5.5,0,0,0-.48.52c.06,1.63.16,3.26.29,4.9a.5.5,0,0,0,.54.46.5.5,0,0,0,.46-.54c-.13-1.62-.23-3.24-.29-4.86a.5.5,0,0,0-.52-.48m.75,9.76a.5.5,0,0,0-.44.55c.21,1.62.45,3.25.72,4.87a.51.51,0,0,0,.58.41.51.51,0,0,0,.41-.58c-.28-1.61-.51-3.21-.71-4.82a.5.5,0,0,0-.56-.43m1.61,9.65a.5.5,0,0,0-.38.6c.35,1.59.74,3.19,1.17,4.78a.5.5,0,0,0,.61.35.49.49,0,0,0,.35-.61c-.42-1.58-.81-3.16-1.16-4.74a.49.49,0,0,0-.59-.38m2.52,9.47a.51.51,0,0,0-.33.63c.51,1.55,1,3.1,1.64,4.64a.5.5,0,0,0,.64.29.5.5,0,0,0,.29-.65q-.87-2.28-1.61-4.59a.51.51,0,0,0-.63-.32m3.43,9.16a.49.49,0,0,0-.25.66q.5,1.13,1,2.25c.35.74.71,1.47,1.08,2.2a.51.51,0,0,0,.67.22.5.5,0,0,0,.22-.68c-.36-.71-.72-1.44-1.06-2.17s-.69-1.48-1-2.23a.5.5,0,0,0-.66-.25m4.37,8.69a.51.51,0,0,0-.18.69c.82,1.4,1.69,2.78,2.59,4.13a.5.5,0,0,0,.69.14.51.51,0,0,0,.14-.7q-1.33-2-2.56-4.08a.5.5,0,0,0-.68-.18m5.33,8.09a.51.51,0,0,0-.1.7c1,1.3,2,2.56,3,3.8a.5.5,0,1,0,.76-.64q-1.56-1.84-3-3.76a.5.5,0,0,0-.7-.1m6.21,7.43a.49.49,0,0,0,0,.7q1.68,1.77,3.43,3.46a.51.51,0,0,0,.7-.73q-1.75-1.66-3.4-3.41a.5.5,0,0,0-.71,0m7,6.73a.49.49,0,0,0,.05.7c1.22,1.06,2.48,2.1,3.76,3.1a.5.5,0,1,0,.61-.78q-1.89-1.5-3.72-3.07a.49.49,0,0,0-.7.05m7.58,6a.5.5,0,0,0,.12.7q2,1.41,4,2.75a.51.51,0,0,0,.7-.15.5.5,0,0,0-.15-.69q-2-1.32-4-2.72a.51.51,0,0,0-.7.11m125.85-35.39c-.8.18-1.6.4-2.42.65a22.47,22.47,0,0,0-2.34.83.49.49,0,0,0-.27.65.5.5,0,0,0,.65.28,23.25,23.25,0,0,1,2.25-.81c.8-.24,1.58-.45,2.36-.63a.51.51,0,0,0,.37-.6.5.5,0,0,0-.6-.37m4.47-.3a.5.5,0,0,0,.55.45,29.2,29.2,0,0,1,4.83-.11.51.51,0,0,0,.53-.47.49.49,0,0,0-.47-.53,31.15,31.15,0,0,0-5,.11.5.5,0,0,0-.45.55m-12.94,4.24a.5.5,0,0,0-.69-.15,32.55,32.55,0,0,0-4,3,.49.49,0,0,0-.05.7.51.51,0,0,0,.71.05,32.87,32.87,0,0,1,3.83-2.89.49.49,0,0,0,.16-.69m22.73-3.78a.51.51,0,0,0,.36.61,21.72,21.72,0,0,1,4.5,1.7.5.5,0,0,0,.46-.89A22.82,22.82,0,0,0,283.8,348a.51.51,0,0,0-.61.36M253,358.43a.5.5,0,0,0-.71,0,48,48,0,0,0-3.09,3.84.49.49,0,0,0,.11.69.5.5,0,0,0,.7-.1,48,48,0,0,1,3-3.77.49.49,0,0,0,0-.7M151.17,388.94a.49.49,0,0,0,.18.68c1.39.83,2.79,1.63,4.22,2.41a.5.5,0,1,0,.48-.88c-1.42-.77-2.81-1.56-4.19-2.39a.51.51,0,0,0-.69.18M292,352.66a.49.49,0,0,0,0,.7,19,19,0,0,1,3.18,3.58.5.5,0,0,0,.83-.57,21,21,0,0,0-3.35-3.76.51.51,0,0,0-.71.05m-44.82,13.58a.5.5,0,0,0-.68.17c-.84,1.38-1.63,2.82-2.39,4.31a.52.52,0,0,0,.22.68.51.51,0,0,0,.68-.23q1.11-2.21,2.34-4.24a.5.5,0,0,0-.17-.69M159.66,393.6a.5.5,0,0,0,.23.67q2.18,1.08,4.39,2.09a.5.5,0,0,0,.66-.25.49.49,0,0,0-.25-.66c-1.46-.67-2.92-1.36-4.36-2.07a.5.5,0,0,0-.67.22m83-18.67a.5.5,0,0,0-.66.26q-.94,2.24-1.78,4.59a.51.51,0,0,0,.31.64.5.5,0,0,0,.63-.31c.55-1.54,1.14-3.06,1.76-4.53a.49.49,0,0,0-.26-.65m-74.2,22.71a.51.51,0,0,0,.27.65q2.25.93,4.53,1.78a.5.5,0,0,0,.64-.3.5.5,0,0,0-.29-.64q-2.26-.84-4.49-1.77a.51.51,0,0,0-.66.28m129.25-37.1a.5.5,0,0,0-.29.65,22,22,0,0,1,1.2,4.65.5.5,0,0,0,1-.14,22.91,22.91,0,0,0-1.26-4.87.5.5,0,0,0-.64-.29M177.54,401.06a.5.5,0,0,0,.31.64c1.53.52,3.08,1,4.63,1.48a.48.48,0,0,0,.62-.33.5.5,0,0,0-.33-.62q-2.31-.71-4.6-1.48a.49.49,0,0,0-.63.31m61.8-16.94a.51.51,0,0,0-.62.34c-.45,1.56-.87,3.15-1.25,4.76a.5.5,0,0,0,1,.23q.56-2.4,1.23-4.71a.5.5,0,0,0-.34-.62m-52.54,19.8a.5.5,0,0,0,.35.61q2.34.64,4.71,1.2a.49.49,0,0,0,.6-.36.5.5,0,0,0-.37-.61q-2.34-.56-4.68-1.2a.5.5,0,0,0-.61.36m112.57-33.74a.5.5,0,0,0-.52.48,28.14,28.14,0,0,1-.67,4.79.5.5,0,0,0,1,.22,29,29,0,0,0,.69-5,.51.51,0,0,0-.48-.53m-62.31,23.45a.5.5,0,0,0-.59.4q-.43,2.4-.75,4.86a.51.51,0,0,0,.43.56.5.5,0,0,0,.56-.43c.21-1.62.46-3.22.75-4.81a.5.5,0,0,0-.4-.58m-40.85,12.58a.5.5,0,0,0,.39.59q2.39.51,4.77.93a.5.5,0,1,0,.18-1c-1.58-.29-3.17-.59-4.75-.93a.51.51,0,0,0-.59.39M297.4,379.8a.48.48,0,0,0-.64.28,35.52,35.52,0,0,1-2.08,4.39.51.51,0,0,0,.2.68.5.5,0,0,0,.68-.2,38.24,38.24,0,0,0,2.13-4.51.5.5,0,0,0-.29-.64M205.75,408a.49.49,0,0,0,.42.57c1.6.24,3.21.46,4.81.66a.5.5,0,0,0,.55-.44.49.49,0,0,0-.43-.55c-1.59-.2-3.19-.42-4.78-.66a.5.5,0,0,0-.57.42m9.61,1.21a.5.5,0,0,0,.45.54c1.63.16,3.24.28,4.85.39a.5.5,0,0,0,.07-1c-1.6-.1-3.21-.23-4.82-.38a.5.5,0,0,0-.55.45m20.39-5.85a.5.5,0,0,0-.54.46c-.13,1.62-.22,3.26-.27,4.9a.51.51,0,0,0,.49.52.49.49,0,0,0,.51-.49c.05-1.62.14-3.24.27-4.85a.5.5,0,0,0-.46-.54m57-14.85a.5.5,0,0,0-.7.11c-.46.65-1,1.3-1.47,1.94s-1,1.2-1.56,1.78a.49.49,0,0,0,0,.7.5.5,0,0,0,.71,0c.56-.6,1.1-1.21,1.61-1.84s1-1.32,1.51-2a.49.49,0,0,0-.12-.69M225,409.83a.5.5,0,0,0,.48.51c1.64.06,3.26.1,4.87.11a.5.5,0,0,0,.5-.5.49.49,0,0,0-.49-.5c-1.6,0-3.22-.05-4.84-.11a.5.5,0,0,0-.52.49m9.71.08a.5.5,0,0,0,.51.49c1.63,0,3.25-.11,4.85-.2a.5.5,0,0,0,.47-.53.49.49,0,0,0-.52-.47c-1.59.09-3.2.16-4.83.2a.49.49,0,0,0-.48.51m51.47-14.32a.5.5,0,0,0-.7-.09,42,42,0,0,1-3.93,2.74.49.49,0,0,0-.17.68.51.51,0,0,0,.69.17,44,44,0,0,0,4-2.8.49.49,0,0,0,.08-.7m-41.82,13.79a.5.5,0,0,0,.55.45c1.64-.15,3.25-.33,4.84-.54a.5.5,0,0,0,.44-.56.51.51,0,0,0-.56-.43c-1.58.21-3.19.39-4.81.54a.5.5,0,0,0-.46.54m-9,3.71a.5.5,0,0,0-.49.51c0,1.63.11,3.27.23,4.91a.5.5,0,1,0,1-.08c-.12-1.62-.19-3.24-.23-4.85a.49.49,0,0,0-.51-.49M278,400.78a.5.5,0,0,0-.67-.23q-2.1,1.05-4.39,2a.5.5,0,0,0,.38.93c1.55-.62,3-1.29,4.46-2a.5.5,0,0,0,.22-.67m-24,7.38a.51.51,0,0,0,.58.41c1.62-.28,3.22-.59,4.78-.93a.5.5,0,1,0-.21-1c-1.55.33-3.13.64-4.74.91a.51.51,0,0,0-.41.58m9.47-2a.52.52,0,0,0,.62.35q2.4-.64,4.66-1.39a.5.5,0,1,0-.31-.95c-1.49.49-3,.95-4.61,1.37a.51.51,0,0,0-.36.62m-27.42,16.69a.5.5,0,0,0-.43.56q.31,2.43.75,4.86a.51.51,0,0,0,.59.4.5.5,0,0,0,.4-.58c-.29-1.6-.54-3.2-.75-4.81a.49.49,0,0,0-.56-.43m1.72,9.62a.51.51,0,0,0-.37.61q.59,2.39,1.32,4.74a.49.49,0,0,0,.63.32.49.49,0,0,0,.32-.62q-.72-2.33-1.29-4.68a.51.51,0,0,0-.61-.37m2.85,9.35a.5.5,0,0,0-.29.65q.89,2.3,1.92,4.53a.49.49,0,0,0,.66.24.5.5,0,0,0,.25-.66q-1-2.2-1.9-4.47a.49.49,0,0,0-.64-.29m4.05,8.89a.49.49,0,0,0-.19.68c.79,1.43,1.64,2.84,2.55,4.21a.5.5,0,0,0,.69.15.51.51,0,0,0,.14-.7c-.89-1.35-1.72-2.73-2.51-4.15a.49.49,0,0,0-.68-.19m5.31,8.2a.5.5,0,0,0-.09.7q1.5,1.93,3.18,3.77a.5.5,0,1,0,.73-.68c-1.09-1.19-2.13-2.43-3.12-3.7a.5.5,0,0,0-.7-.09m155.74-37.65a.5.5,0,0,0-.7.13q-1.19,1.78-2.73,4a.5.5,0,0,0,.82.58c1-1.45,1.95-2.79,2.74-4a.49.49,0,0,0-.13-.69M256.53,466.16a.48.48,0,0,0,0,.7q1.79,1.67,3.74,3.2A.52.52,0,0,0,261,470a.51.51,0,0,0-.09-.71q-1.92-1.5-3.68-3.14a.5.5,0,0,0-.71,0M400.21,429.1a.5.5,0,0,0-.7.1q-1.36,1.83-2.9,3.81a.5.5,0,1,0,.78.61c1-1.32,2-2.6,2.92-3.82a.5.5,0,0,0-.1-.7m-136,43.15a.5.5,0,0,0,.14.69c.69.45,1.39.9,2.1,1.33l2.12,1.24a.5.5,0,1,0,.5-.86c-.7-.4-1.4-.82-2.1-1.24s-1.39-.86-2.07-1.3a.49.49,0,0,0-.69.14m130.16-35.57a.51.51,0,0,0-.71.07c-1,1.2-2,2.43-3.07,3.67a.51.51,0,0,0,0,.71.49.49,0,0,0,.7-.06q1.62-1.87,3.1-3.69a.5.5,0,0,0-.07-.7M272.53,477.13a.49.49,0,0,0,.22.67q2.19,1.13,4.37,2.1a.5.5,0,1,0,.4-.92q-2.14-1-4.32-2.07a.5.5,0,0,0-.67.22M388.08,444a.5.5,0,0,0-.71,0c-1.05,1.16-2.13,2.34-3.25,3.52a.5.5,0,0,0,.72.69q1.7-1.78,3.27-3.54a.5.5,0,0,0,0-.71m-6.6,7a.5.5,0,0,0-.71,0q-1.66,1.66-3.42,3.33a.5.5,0,0,0,0,.71.49.49,0,0,0,.7,0q1.77-1.68,3.45-3.36a.5.5,0,0,0,0-.71M281.24,481.08a.5.5,0,0,0,.28.65q2.31.88,4.59,1.62a.5.5,0,0,0,.63-.33.51.51,0,0,0-.32-.63q-2.26-.72-4.54-1.59a.49.49,0,0,0-.64.28m93.3-23.49a.5.5,0,0,0-.71,0c-1.18,1.05-2.38,2.1-3.61,3.13a.5.5,0,0,0,.64.77c1.24-1,2.45-2.1,3.64-3.16a.49.49,0,0,0,0-.7m-84.16,26.48a.5.5,0,0,0,.36.61c1.57.4,3.14.75,4.69,1a.51.51,0,0,0,.59-.4.5.5,0,0,0-.4-.58c-1.54-.29-3.08-.63-4.63-1a.5.5,0,0,0-.61.36m76.83-20.29a.5.5,0,0,0-.7-.08c-1.25,1-2.52,1.95-3.81,2.89a.49.49,0,0,0-.11.7.5.5,0,0,0,.7.11q1.95-1.42,3.84-2.91a.52.52,0,0,0,.08-.71m-67.42,22.14a.49.49,0,0,0,.43.55c1.62.2,3.22.35,4.81.44a.49.49,0,0,0,.52-.47.5.5,0,0,0-.47-.53c-1.56-.09-3.14-.23-4.73-.43a.5.5,0,0,0-.56.44m59.69-16.44a.5.5,0,0,0-.69-.14c-1.32.89-2.65,1.76-4,2.6a.51.51,0,0,0-.16.69.49.49,0,0,0,.69.16c1.37-.85,2.71-1.72,4-2.62a.49.49,0,0,0,.13-.69m-50.15,17.06a.5.5,0,0,0,.51.49c1.62,0,3.23-.07,4.83-.19a.5.5,0,1,0-.07-1c-1.58.12-3.17.18-4.77.19a.51.51,0,0,0-.5.51m42-12a.49.49,0,0,0-.68-.19c-1.38.78-2.79,1.53-4.21,2.25a.49.49,0,0,0-.22.67.49.49,0,0,0,.67.22q2.16-1.08,4.25-2.27a.5.5,0,0,0,.19-.68m-32.43,11.34a.5.5,0,0,0,.56.43c1.6-.22,3.19-.49,4.76-.81a.49.49,0,0,0,.39-.58.51.51,0,0,0-.59-.4c-1.55.32-3.12.58-4.7.8a.5.5,0,0,0-.42.56m23.89-7a.49.49,0,0,0-.66-.25c-1.45.64-2.92,1.26-4.4,1.83a.5.5,0,1,0,.36.93q2.25-.87,4.45-1.85a.5.5,0,0,0,.25-.66m-14.49,5.15a.5.5,0,0,0,.61.35c1.57-.41,3.11-.87,4.64-1.37a.5.5,0,0,0,.32-.63.51.51,0,0,0-.63-.32c-1.51.5-3,.95-4.58,1.35a.51.51,0,0,0-.36.62"/><path class="cls-13" d="M408.81,414.74a1.9,1.9,0,0,1,2.73,2.11l-7,29.72a1.9,1.9,0,0,1-3,1.07L394.27,442a1.57,1.57,0,0,1-.52-1.77,1.57,1.57,0,0,0-2.11-2l-.43.19a1.77,1.77,0,0,1-1.8-.21l-7.88-6.1a1.9,1.9,0,0,1,.27-3.18Z"/><path class="cls-12" d="M403,426a.49.49,0,0,1,.08.7l-9.38,11.78a.5.5,0,0,1-.79-.62l9.39-11.78a.49.49,0,0,1,.7-.08"/><path class="cls-15" d="M505.15,105.87a2.4,2.4,0,0,1-2.36,3.54l-35.65-3.78a2.4,2.4,0,0,1-1.93-3.38l15.31-33.68a2.41,2.41,0,0,1,4.3-.15l2.66,4.89a2.4,2.4,0,0,0,3.26,1l14.78-8a2.41,2.41,0,0,1,3.26,1l10.31,19a2.41,2.41,0,0,1-1,3.26l-14.79,8a2.4,2.4,0,0,0-1,3.26Z"/></g></g></svg>