<svg id="success" xmlns="http://www.w3.org/2000/svg" width="64.592" height="64.592" viewBox="0 0 64.592 64.592">
  <path id="Path_5684" data-name="Path 5684" d="M32.3,0a32.3,32.3,0,1,0,32.3,32.3A32.333,32.333,0,0,0,32.3,0Zm0,62.108A29.812,29.812,0,1,1,62.108,32.3,29.847,29.847,0,0,1,32.3,62.108Z" fill="#5001bc"/>
  <path id="Path_5685" data-name="Path 5685" d="M44.609,15.417,25.518,36.894l-11.5-9.2a1.242,1.242,0,0,0-1.551,1.94l12.422,9.937a1.243,1.243,0,0,0,1.705-.145L46.467,17.067a1.242,1.242,0,0,0-1.858-1.65Z" transform="translate(2.906 3.632)" fill="#5001bc"/>
</svg>
