<svg xmlns="http://www.w3.org/2000/svg" width="662.442" height="495.729" viewBox="0 0 662.442 495.729">
  <g id="Layer_25" data-name="Layer 25" transform="translate(-154.117 -175.938)">
    <path id="Path_5412" data-name="Path 5412" d="M701.836,574.774V613.52H482.41l56.908-273.24H701.836V565.356" transform="translate(113.375 56.755)" fill="#fff"/>
    <path id="Path_5413" data-name="Path 5413" d="M702.194,615.239H482.768a1.224,1.224,0,0,1-1.076-.538,1.049,1.049,0,0,1-.269-1.076L538.2,340.277a1.345,1.345,0,0,1,1.345-1.076H702.194a1.265,1.265,0,0,1,1.345,1.345V565.757a1.345,1.345,0,1,1-2.691,0V342h-160.1L484.517,612.683H700.849V575.147a1.345,1.345,0,1,1,2.691,0v38.746a1.265,1.265,0,0,1-1.345,1.345Z" transform="translate(113.016 56.381)"/>
    <rect id="Rectangle_949" data-name="Rectangle 949" width="302.434" height="91.08" transform="translate(325.908 579.195)" fill="#fff"/>
    <path id="Path_5414" data-name="Path 5414" d="M584.59,568.451H282.156a1.264,1.264,0,0,1-1.345-1.345v-91.08a1.265,1.265,0,0,1,1.345-1.345H584.59a1.265,1.265,0,0,1,1.345,1.345v91.08A1.345,1.345,0,0,1,584.59,568.451ZM283.5,565.761H583.244V477.371H283.5Z" transform="translate(43.752 103.169)"/>
    <path id="Path_5415" data-name="Path 5415" d="M286.023,477.371H270.955a1.345,1.345,0,1,1,0-2.691h15.068a1.345,1.345,0,0,1,0,2.691Z" transform="translate(39.885 103.169)"/>
    <rect id="Rectangle_950" data-name="Rectangle 950" width="302.434" height="91.08" transform="translate(374.475 488.115)" fill="#fff"/>
    <path id="Path_5416" data-name="Path 5416" d="M620.69,500.744H318.256a1.265,1.265,0,0,1-1.345-1.345V408.346A1.265,1.265,0,0,1,318.256,407H620.69a1.265,1.265,0,0,1,1.345,1.345v91.08A1.345,1.345,0,0,1,620.69,500.744ZM319.6,498.054H619.344V409.691H319.6Z" transform="translate(56.219 79.795)"/>
    <path id="Path_5417" data-name="Path 5417" d="M322.123,409.691H307.055a1.345,1.345,0,1,1,0-2.691h15.068a1.265,1.265,0,0,1,1.345,1.345,1.345,1.345,0,0,1-1.345,1.345Z" transform="translate(52.352 79.796)"/>
    <path id="Path_5418" data-name="Path 5418" d="M442.03,340.28H353.91v91.08H656.344V340.28H551.138" transform="translate(68.998 56.755)" fill="#fff"/>
    <path id="Path_5419" data-name="Path 5419" d="M656.69,433.071H354.256a1.265,1.265,0,0,1-1.345-1.345v-91.08a1.265,1.265,0,0,1,1.345-1.345h88.12a1.345,1.345,0,1,1,0,2.691H355.6v88.389H655.345V341.991h-104a1.345,1.345,0,0,1,0-2.691H656.69a1.264,1.264,0,0,1,1.345,1.345v91.08a1.264,1.264,0,0,1-1.345,1.345Z" transform="translate(68.652 56.416)"/>
    <path id="Path_5420" data-name="Path 5420" d="M358.123,341.971H343.055a1.345,1.345,0,1,1,0-2.691h15.068a1.345,1.345,0,0,1,0,2.691Z" transform="translate(64.785 56.409)"/>
    <path id="Path_5421" data-name="Path 5421" d="M596.739,500.172c1.345-5.247,11.3-31.75,45.2-32.692,1.883,7.534-10.09,22.2-26.5,27.041-18.7,5.516-20.449,17.22-20.449,17.22A73.751,73.751,0,0,1,596.739,500.172Z" transform="translate(152.254 100.683)" fill="#cbcbca"/>
    <path id="Path_5422" data-name="Path 5422" d="M627.136,557.409H580.318L569.69,500.38h67.94Z" transform="translate(143.517 112.045)" fill="#cbcbca"/>
    <path id="Path_5423" data-name="Path 5423" d="M639.666,516.471H569.035a1.345,1.345,0,1,1,0-2.691h70.631a1.265,1.265,0,0,1,1.345,1.345,1.345,1.345,0,0,1-1.345,1.345Z" transform="translate(142.826 116.672)"/>
    <path id="Path_5424" data-name="Path 5424" d="M582.2,473.146a.807.807,0,0,1-.538-.135,31.761,31.761,0,0,0-13.588-2.018,1.352,1.352,0,0,1-.269-2.691,33.312,33.312,0,0,1,14.8,2.287,1.238,1.238,0,0,1,.673,1.749,1.13,1.13,0,0,1-1.076.807Z" transform="translate(142.444 100.936)"/>
    <path id="Path_5425" data-name="Path 5425" d="M599.766,511.5a1.345,1.345,0,0,1-1.345-1.345c0-.269-1.48-25.023-16.682-35.652a1.345,1.345,0,1,1,1.615-2.153c16.279,11.435,17.758,36.728,17.758,37.8A1.345,1.345,0,0,1,599.766,511.5Z" transform="translate(147.491 102.271)"/>
    <path id="Path_5426" data-name="Path 5426" d="M215.294,519.95l-.027,14.664-.027,15.741,67.94.108.054-30.4Z" transform="translate(21.109 118.803)" fill="#fff"/>
    <path id="Path_5427" data-name="Path 5427" d="M283.491,552.154l-67.805-.108a1.265,1.265,0,0,1-1.345-1.345V520.3a1.265,1.265,0,0,1,1.345-1.345l67.805.108a1.345,1.345,0,0,1,1.345,1.345v30.4A1.426,1.426,0,0,1,283.491,552.154Zm-66.595-2.8,65.115.108V521.749l-65.115-.108Z" transform="translate(20.797 118.457)"/>
    <path id="Path_5428" data-name="Path 5428" d="M217.574,532.941h-7.668a1.345,1.345,0,0,1,0-2.691h7.668a1.345,1.345,0,0,1,0,2.691Z" transform="translate(18.802 122.36)"/>
    <rect id="Rectangle_951" data-name="Rectangle 951" width="7.803" height="9.956" transform="matrix(0.002, -1, 1, 0.002, 218.736, 657.774)" fill="#81a8ff"/>
    <path id="Path_5429" data-name="Path 5429" d="M318.066,492.324l-14.678-.027-15.727-.027-.121,67.805,30.4.054Z" transform="translate(46.077 109.244)" fill="#fff"/>
    <path id="Path_5430" data-name="Path 5430" d="M318.291,561.807h-30.4a1.265,1.265,0,0,1-1.345-1.345l.108-67.805a1.345,1.345,0,0,1,1.345-1.345h30.4a1.251,1.251,0,0,1,1.345,1.345l-.108,67.805A1.453,1.453,0,0,1,318.291,561.807Zm-29.059-2.691h27.714L317.053,494H289.339Z" transform="translate(45.731 108.911)"/>
    <path id="Path_5431" data-name="Path 5431" d="M299.266,495.95a1.265,1.265,0,0,1-1.345-1.345v-7.668a1.345,1.345,0,0,1,1.345-1.345,1.251,1.251,0,0,1,1.345,1.345V494.6a1.453,1.453,0,0,1-1.345,1.345Z" transform="translate(49.661 106.936)"/>
    <rect id="Rectangle_952" data-name="Rectangle 952" width="9.956" height="7.803" transform="matrix(0.002, -1, 1, 0.002, 345.017, 593.689)" fill="#81a8ff"/>
    <path id="Path_5432" data-name="Path 5432" d="M305.656,503.678a1.265,1.265,0,0,1-1.345-1.345v-9.686a1.345,1.345,0,0,1,1.345-1.345A1.251,1.251,0,0,1,307,492.646v9.686A1.345,1.345,0,0,1,305.656,503.678Z" transform="translate(51.868 108.908)"/>
    <path id="Path_5433" data-name="Path 5433" d="M305.646,511.73a1.265,1.265,0,0,1-1.345-1.345v-4.44a1.345,1.345,0,0,1,2.691,0v4.305a1.48,1.48,0,0,1-1.345,1.48Z" transform="translate(51.865 113.502)"/>
    <path id="Path_5434" data-name="Path 5434" d="M289.966,492.274l-14.664-.027-15.754-.027-.108,67.805,30.4.054Z" transform="translate(36.373 109.227)" fill="#fff"/>
    <path id="Path_5435" data-name="Path 5435" d="M290.151,561.757h-30.4a1.265,1.265,0,0,1-1.345-1.345l.108-67.805a1.345,1.345,0,0,1,1.345-1.345h30.4a1.251,1.251,0,0,1,1.345,1.345l-.108,67.805A1.453,1.453,0,0,1,290.151,561.757Zm-29.059-2.691h27.714l.108-65.115H261.2Z" transform="translate(36.013 108.894)"/>
    <path id="Path_5436" data-name="Path 5436" d="M271.166,495.9a1.265,1.265,0,0,1-1.345-1.345v-7.669a1.345,1.345,0,0,1,1.345-1.345,1.251,1.251,0,0,1,1.345,1.345v7.668A1.453,1.453,0,0,1,271.166,495.9Z" transform="translate(39.957 106.919)"/>
    <rect id="Rectangle_953" data-name="Rectangle 953" width="9.956" height="7.803" transform="matrix(0.002, -1, 1, 0.002, 307.207, 593.621)" fill="#81a8ff"/>
    <path id="Path_5437" data-name="Path 5437" d="M271.225,492.25h-11.7V512.7a5.785,5.785,0,0,0,11.57,0v-8.664a3.336,3.336,0,0,0,3.363,3.363h0a3.323,3.323,0,0,0,3.363-3.35V492.21Z" transform="translate(36.401 109.223)" fill="#cbcbca"/>
    <path id="Path_5438" data-name="Path 5438" d="M648.119,545.1H179.535a1.345,1.345,0,1,1,0-2.691H648.254a1.264,1.264,0,0,1,1.345,1.345,1.345,1.345,0,0,1-1.48,1.345Z" transform="translate(8.314 126.559)"/>
    <path id="Path_5439" data-name="Path 5439" d="M479.125,310.6h-8.61a35.3,35.3,0,0,0-25.561,10.9L422.62,344.906l-9.283-33.365-31.077,2.825,15.606,50.989,99.017,62.962C505.225,417.69,509.8,381.9,509.8,381.9l.4,2.96,6.458,41.571,39.419-6.189L526.885,335.22a34.306,34.306,0,0,0-26.638-22.871L495,311.407Z" transform="translate(78.788 46.505)" fill="#fff"/>
    <path id="Path_5440" data-name="Path 5440" d="M530.23,401.879c7.668-.135,6.592-2.825,6.592-2.825s-.134-2.422-5.247-2.691-18.566,4.44-18.566,4.44C518.378,405.108,530.23,402.013,530.23,401.879Z" transform="translate(123.942 76.119)" fill="#fff"/>
    <path id="Path_5441" data-name="Path 5441" d="M512.654,402.224a1.345,1.345,0,0,1-.538-1.345,1.534,1.534,0,0,1,.942-1.076c.538-.134,13.723-4.709,18.969-4.44s6.323,2.96,6.458,3.767a2.691,2.691,0,0,1-.4,2.153c-.942,1.48-3.363,2.287-7.4,2.422a35.3,35.3,0,0,1-8.745,1.076C518.574,404.78,514.941,404.3,512.654,402.224Zm23.14-2.422s-.4-1.48-4.036-1.614c-3.229-.135-10.359,1.883-15.068,3.363,5.381,1.614,13.319-.4,13.453-.4h.269c4.305-.135,5.247-1.076,5.381-1.211Z" transform="translate(123.625 75.773)"/>
    <path id="Path_5442" data-name="Path 5442" d="M389.386,292.739c2.825-1.749.942-14.126.807-16.01s-2.825-4.709-5.112-2.691-4.171,18.835-4.171,18.835C382.794,294.623,386.56,294.757,389.386,292.739Z" transform="translate(78.322 33.638)" fill="#fff"/>
    <path id="Path_5443" data-name="Path 5443" d="M380.314,294.279a2.166,2.166,0,0,1-.4-1.211c.538-4.036,2.153-17.49,4.709-19.642a3.7,3.7,0,0,1,4.171-.673,5.381,5.381,0,0,1,3.229,4.305,8.4,8.4,0,0,0,.135,1.614c.942,8.341.942,14.126-1.614,15.741a10.681,10.681,0,0,1-5.247,1.48,7.884,7.884,0,0,1-4.978-1.615Zm6.054-18.7c-1.076,1.076-2.691,9.687-3.632,17.22a6.727,6.727,0,0,0,6.323-.538c.673-.4,1.48-2.691.4-13.184,0-.807-.135-1.48-.135-1.749a3.336,3.336,0,0,0-1.614-2.018.807.807,0,0,0-.538-.135A1.157,1.157,0,0,0,386.368,275.579Z" transform="translate(77.977 33.309)"/>
    <path id="Path_5444" data-name="Path 5444" d="M382.81,263.96H415.5l6.727,54.352H389.537Z" transform="translate(78.978 30.398)" fill="#d7d7d7"/>
    <circle id="Ellipse_75" data-name="Ellipse 75" cx="1.749" cy="1.749" r="1.749" transform="translate(485.197 300.143)"/>
    <path id="Path_5445" data-name="Path 5445" d="M356.914,448l-3.363,14.664s-43.993,10.763-45.2,15.741,5.516,5.112,5.516,5.112h76.012l.269-34.441Z" transform="translate(53.213 93.955)" fill="#fff"/>
    <path id="Path_5446" data-name="Path 5446" d="M307.935,482.477a4.83,4.83,0,0,1-.673-4.171c1.211-4.978,31.481-13.05,45.338-16.413l3.094-13.857a1.345,1.345,0,0,1,1.345-1.076l33.365,1.076a1.345,1.345,0,0,1,1.345,1.345l-.269,34.441a1.345,1.345,0,0,1-1.345,1.345H314.124C313.707,485.168,309.819,485.033,307.935,482.477Zm81.124-31.885-30.943-.942-3.094,13.588a1.144,1.144,0,0,1-.942,1.076c-20.718,5.112-42.917,12.108-44.262,14.8a1.978,1.978,0,0,0,.269,1.883,5.812,5.812,0,0,0,4.036,1.48h74.667Z" transform="translate(52.817 93.596)"/>
    <path id="Path_5447" data-name="Path 5447" d="M438.12,366.66l-86.64,9.148-18.969,104.4,63.635,7.4-6.458-75.743,69.42,10.494Z" transform="translate(61.607 65.865)" fill="#81a8ff"/>
    <path id="Path_5448" data-name="Path 5448" d="M334.191,394.7l-13.05,7.534s-37.535-25.158-42.109-22.736,0,7.534,0,7.534l51.258,56.1,25.7-23.005Z" transform="translate(42.437 70.243)" fill="#fff"/>
    <path id="Path_5449" data-name="Path 5449" d="M329.574,444.28l-51.258-56.1c-.269-.269-2.825-3.229-2.287-6.189a5,5,0,0,1,2.691-3.363c4.574-2.556,30.943,14.4,42.782,22.333l12.377-7.13a1.251,1.251,0,0,1,1.749.269l21.795,25.427a1.44,1.44,0,0,1-.135,1.883l-25.562,23.005a1.452,1.452,0,0,1-.942.4A1.641,1.641,0,0,1,329.574,444.28Zm4.709-47.625-12.108,7a1.453,1.453,0,0,1-1.48,0c-17.759-11.974-37.8-23.678-40.764-22.736-1.076.538-1.211,1.211-1.211,1.48a5.879,5.879,0,0,0,1.614,4.036l50.45,55.159,23.678-21.256Z" transform="translate(42.076 69.908)"/>
    <path id="Path_5450" data-name="Path 5450" d="M487.85,427.516a1.345,1.345,0,0,1-.538-.942l-9.687-63.1a1.345,1.345,0,1,1,2.556-.4l9.552,61.751,36.459-5.65-28.656-83.546a33.432,33.432,0,0,0-25.7-21.929l-5.247-.942a1.372,1.372,0,0,1,.538-2.691l5.247.942a35.679,35.679,0,0,1,27.714,23.678l29.194,85.026a1.077,1.077,0,0,1-.134,1.076c-.269.4-.538.673-.942.673l-39.419,6.189h-.269A5.831,5.831,0,0,1,487.85,427.516Z" transform="translate(107.532 46.312)"/>
    <path id="Path_5451" data-name="Path 5451" d="M511.854,392.66a35.678,35.678,0,0,0,9.686,9.283c16.413-2.153,24.485,4.978,24.485,4.978s3.632,2.825,3.229,4.843c-.673,3.094-3.9,3.094-5.785,1.883a4.251,4.251,0,0,1-2.287,6.592c-3.094.673-5.247-3.363-5.247-3.363s2.018,6.054-2.018,6.592-4.709-3.5-4.709-3.5a11.476,11.476,0,0,0-4.978-6.323c-3.9-2.287-20.718-1.614-20.718-1.614,2.287,3.363,13.992,9.148,9.552,12.243-3.5,2.287-11.7-2.825-11.7-2.825-5.381-2.422-8.341-11.166-8.341-11.166l-4.709-13.723S507.683,393.467,511.854,392.66Z" transform="translate(115.412 74.844)" fill="#fff"/>
    <path id="Path_5452" data-name="Path 5452" d="M501.155,422.845c-5.92-2.691-8.879-11.57-9.014-11.974l-4.709-13.723a1.076,1.076,0,0,1,.135-1.076c.269-.4.538-.673.942-.673l23.544-3.632a1.184,1.184,0,0,1,1.345.673c1.076,2.153,5.516,6.323,8.745,8.476,16.548-2.018,24.754,4.978,25.023,5.247.673.538,4.305,3.5,3.633,6.189a4.225,4.225,0,0,1-2.556,3.229,5.124,5.124,0,0,1-2.422.4,5.919,5.919,0,0,1-.269,2.153,5.381,5.381,0,0,1-3.9,3.632,4.52,4.52,0,0,1-3.767-.673,5.76,5.76,0,0,1-.673,2.153,3.767,3.767,0,0,1-2.96,1.884,5.489,5.489,0,0,1-6.188-4.574,9.713,9.713,0,0,0-4.305-5.516c-2.287-1.211-10.628-1.614-16.951-1.48.673.538,1.48,1.211,2.287,1.749,3.5,2.556,6.727,5.112,6.592,7.669a3,3,0,0,1-1.614,2.691,5.893,5.893,0,0,1-3.094.807C506.94,426.478,501.962,423.518,501.155,422.845ZM525.1,412.621a12.943,12.943,0,0,1,5.516,7.265,2.839,2.839,0,0,0,3.229,2.422,1.049,1.049,0,0,0,1.076-.538,6.364,6.364,0,0,0-.134-4.171,1.184,1.184,0,0,1,.673-1.614,1.345,1.345,0,0,1,1.749.538c0,.135,1.749,3.094,3.767,2.691a2.475,2.475,0,0,0,1.883-1.749,2.421,2.421,0,0,0-.269-2.556,1.413,1.413,0,0,1,0-1.749,1.345,1.345,0,0,1,1.749-.269,4.2,4.2,0,0,0,2.825.269,1.843,1.843,0,0,0,1.076-1.345c.135-.538-1.076-2.287-2.691-3.5,0,0-7.8-6.592-23.409-4.574a1.1,1.1,0,0,1-.942-.135,40.5,40.5,0,0,1-9.552-9.014l-21.122,3.363L494.7,410.2c0,.135,2.691,8.207,7.534,10.359a.135.135,0,0,0,.135.135c2.422,1.48,8.207,4.171,10.225,2.825.269-.269.4-.4.4-.538,0-1.211-3.5-3.9-5.516-5.516a26.908,26.908,0,0,1-4.843-4.44,1.238,1.238,0,0,1-.135-1.345,1.413,1.413,0,0,1,1.211-.673c.673,0,2.691-.135,5.381-.135C514.474,410.925,522.411,411.141,525.1,412.621Z" transform="translate(115.079 74.525)"/>
    <path id="Path_5453" data-name="Path 5453" d="M524.458,413.568c-.673-1.614-2.96-6.054-5.92-7.13a1.362,1.362,0,1,1,.942-2.556c4.574,1.749,7.265,8.341,7.4,8.61a1.238,1.238,0,0,1-.673,1.749.807.807,0,0,1-.538.134A1.345,1.345,0,0,1,524.458,413.568Z" transform="translate(125.544 78.69)"/>
    <path id="Path_5454" data-name="Path 5454" d="M530.151,410.67a18.068,18.068,0,0,0-6.189-4.978,1.345,1.345,0,0,1,1.076-2.422,22,22,0,0,1,7.265,5.919,1.453,1.453,0,0,1-.269,1.883,1.91,1.91,0,0,1-.807.269A1.1,1.1,0,0,1,530.151,410.67Z" transform="translate(127.519 78.494)"/>
    <path id="Path_5455" data-name="Path 5455" d="M397.529,365.765l-15.606-50.989a1.8,1.8,0,0,1,.135-1.211,1.13,1.13,0,0,1,.942-.538l31.078-2.825a1.238,1.238,0,0,1,1.48.942l8.61,31.077,20.718-21.66a37.064,37.064,0,0,1,26.5-11.3H480a1.345,1.345,0,0,1,0,2.691h-8.61a33.863,33.863,0,0,0-24.62,10.494l-22.333,23.409a1.345,1.345,0,0,1-1.345.4,1.628,1.628,0,0,1-.942-.942l-8.879-32.288-28.387,2.556,15.068,49.509a1.466,1.466,0,0,1-.942,1.614h-.4C397.932,366.76,397.394,366.3,397.529,365.765Z" transform="translate(78.655 46.042)"/>
    <path id="Path_5456" data-name="Path 5456" d="M481.963,432.4c-20.853,0-35.114-9.283-45.473-21.122l-26.638-30.4s-63.231,61.751-63.5,61.751S310.7,400.922,310.7,400.922l72.783-53.141a32.705,32.705,0,0,1,34.575-.4c32.961,20.046,101.17,61.482,102.919,62.693C520.978,410.071,502.963,432.538,481.963,432.4Z" transform="translate(54.075 57.568)" fill="#81a8ff"/>
    <path id="Path_5457" data-name="Path 5457" d="M336.31,433.386a1.467,1.467,0,0,1,.538-1.211c1.884-1.614,42.244-40.9,63.366-61.617a1.345,1.345,0,0,1,1.884,0l26.638,30.4c12.243,13.992,26.772,20.718,44.531,20.718a1.345,1.345,0,1,1,0,2.691c-18.566,0-33.768-7.13-46.549-21.66l-25.7-29.329c-62.559,60.944-62.559,60.944-63.231,61.079h-.135a1.345,1.345,0,0,1-1.345-1.076Z" transform="translate(62.919 67.079)"/>
    <path id="Path_5458" data-name="Path 5458" d="M410.968,372.905a1.345,1.345,0,0,1,.4-1.883c18.162-10.9,36.324-41.033,36.459-41.3a1.362,1.362,0,0,1,2.287,1.48c-.673,1.211-18.7,30.943-37.4,42.244a1.009,1.009,0,0,1-.673.135,1.2,1.2,0,0,1-1.076-.673Z" transform="translate(88.625 52.893)"/>
    <path id="Path_5459" data-name="Path 5459" d="M467.448,411.1a1.345,1.345,0,0,1-.269-1.883c8.072-10.225,12.646-45.338,12.646-45.742a1.352,1.352,0,1,1,2.691.269c-.269,1.48-4.709,36.324-13.184,47.087a1.224,1.224,0,0,1-1.076.538A1.44,1.44,0,0,1,467.448,411.1Z" transform="translate(108.022 64.344)"/>
    <path id="Path_5460" data-name="Path 5460" d="M385.219,373.99l-5.65-6.592a1.345,1.345,0,0,1,2.018-1.749l5.65,6.592a1.345,1.345,0,0,1-.135,1.883,1.44,1.44,0,0,1-.807.269A1.533,1.533,0,0,1,385.219,373.99Z" transform="translate(77.78 65.396)"/>
    <path id="Path_5461" data-name="Path 5461" d="M394.135,404.69l-26.638-3.9a1.345,1.345,0,1,1,.4-2.556l26.638,3.9a1.264,1.264,0,0,1,1.076,1.48,1.426,1.426,0,0,1-1.345,1.211A.135.135,0,0,1,394.135,404.69Z" transform="translate(73.169 76.725)"/>
    <path id="Path_5462" data-name="Path 5462" d="M408.812,321.026c-1.48-5.381-7.534-9.283-7.534-9.283s.135,0,5.65,1.614,5.65-1.883,5.65-1.883.673-3.767-5.65-5.247c2.556-.538,5.516-.942,5.65-3.363.135-3.229-5.65-3.632-5.65-3.632s4.44.135,4.574-3.229c0-2.691-6.054-3.9-6.054-3.9s4.44,0,3.9-4.305c-.807-4.843-16.413-5.516-23.678-2.96-.4.135-.673.269-1.076.4-6.727,3.094-4.44,17.086,0,23.274a31.212,31.212,0,0,1,4.978,14.261S405.314,321.295,408.812,321.026Z" transform="translate(78.134 37.102)" fill="#fff"/>
    <path id="Path_5463" data-name="Path 5463" d="M388.76,324.277a1.224,1.224,0,0,1-.4-.942,29.437,29.437,0,0,0-4.709-13.588c-3.229-4.44-5.516-13.184-3.9-19.373a8.072,8.072,0,0,1,4.44-5.785,4.778,4.778,0,0,1,1.211-.538c6.323-2.153,18.028-2.153,23.005.807a4.8,4.8,0,0,1,2.422,3.229,4.708,4.708,0,0,1-1.076,4.036.472.472,0,0,1-.135.269c1.749.807,3.5,2.018,3.5,4.036a5.018,5.018,0,0,1-1.345,3.094h0a4.036,4.036,0,0,1,2.422,3.9,3.754,3.754,0,0,1-2.691,3.5,5.771,5.771,0,0,1,2.825,5.112,3.363,3.363,0,0,1-1.48,2.691q-2.018,1.413-5.65.4a17.006,17.006,0,0,1,3.363,5.92,1.009,1.009,0,0,1-.135,1.076,1.13,1.13,0,0,1-.942.538l-19.508,1.749h0A10.424,10.424,0,0,0,388.76,324.277Zm12.377-11.166a1.345,1.345,0,0,1-.538-1.749,1.453,1.453,0,0,1,1.614-.673l5.65,1.614a4.507,4.507,0,0,0,3.5.135.874.874,0,0,0,.4-.673v-.135c.135-.135.269-2.691-4.574-3.767a1.345,1.345,0,1,1,0-2.691l.4-.135c2.287-.4,3.9-.807,4.036-2.018.135-1.614-3.363-2.287-4.305-2.287a1.345,1.345,0,0,1-1.211-1.345,1.238,1.238,0,0,1,1.345-1.211,4.426,4.426,0,0,0,2.691-.807,1.345,1.345,0,0,0,.4-1.076c0-.942-2.691-2.153-4.978-2.556a1.453,1.453,0,0,1-1.076-1.48,1.426,1.426,0,0,1,1.345-1.211A3.2,3.2,0,0,0,408,290.24a2.112,2.112,0,0,0,.4-1.883,2.368,2.368,0,0,0-1.211-1.345c-3.9-2.287-14.664-2.556-20.718-.538-.269.135-.673.269-.942.4a6,6,0,0,0-2.96,4.036c-1.48,5.247.673,13.184,3.5,17.086a31.225,31.225,0,0,1,5.112,13.588l16.413-1.48a20.179,20.179,0,0,0-6.458-7Z" transform="translate(77.737 36.81)"/>
    <path id="Path_5464" data-name="Path 5464" d="M390.52,290.629a1.345,1.345,0,0,1,.942-1.614c1.614-.4,8.476-.135,10.628,0a1.345,1.345,0,1,1-.135,2.556,74.893,74.893,0,0,0-9.821,0h-.4A1.345,1.345,0,0,1,390.52,290.629Z" transform="translate(81.628 38.977)"/>
    <path id="Path_5465" data-name="Path 5465" d="M403.423,296.993c-.135,0-8.745-.673-11.032-.538a1.352,1.352,0,1,1-.269-2.691c2.691-.135,11.032.538,11.435.538a1.466,1.466,0,0,1,1.211,1.48,1.345,1.345,0,0,1-1.345,1.211Z" transform="translate(81.774 40.685)"/>
    <path id="Path_5466" data-name="Path 5466" d="M403.471,302.294c-2.287-.538-8.745-1.883-11.166-1.211a1.345,1.345,0,1,1-.673-2.556c3.363-.942,11.435.942,12.377,1.211a1.375,1.375,0,0,1-.4,2.691C403.471,302.429,403.323,302.429,403.471,302.294Z" transform="translate(81.592 42.245)"/>
    <path id="Path_5467" data-name="Path 5467" d="M556.73,206.032l1.83,20.5,45.957-49.5Z" transform="translate(139.041 0.381)" fill="#81a8ff"/>
    <path id="Path_5468" data-name="Path 5468" d="M536.22,204.189l27.593,1.843L611.6,177.04Z" transform="translate(131.958 0.381)" fill="#fff"/>
    <path id="Path_5469" data-name="Path 5469" d="M564.276,207.673h-.269l-27.58-1.722a1.265,1.265,0,0,1-1.184-1.1,1.345,1.345,0,0,1,.821-1.426L611.4,176.273a1.345,1.345,0,0,1,1.682.659,1.184,1.184,0,0,1-.525,1.668l-47.652,28.858C564.666,207.5,564.518,207.646,564.276,207.673Zm-21.162-4.036,20.638,1.265,35.88-21.727Z" transform="translate(131.616 0.085)"/>
    <path id="Path_5470" data-name="Path 5470" d="M604.517,177.04l-23.853,42.93L556.73,206.032Z" transform="translate(139.041 0.381)" fill="#fff"/>
    <path id="Path_5471" data-name="Path 5471" d="M581.14,221.682a1.83,1.83,0,0,1-.821-.188l-23.961-14.072a1.346,1.346,0,0,1-.646-1.157,1.05,1.05,0,0,1,.713-1.144l47.787-28.992a1.345,1.345,0,0,1,1.91,1.722L582.27,220.768a1.345,1.345,0,0,1-.888.632C581.274,221.669,581.274,221.669,581.14,221.682Zm-21.364-15.377,20.813,12.189,20.691-37.374Z" transform="translate(138.686 0)"/>
    <path id="Path_5472" data-name="Path 5472" d="M438.893,272.929s-11.5-.457-11.5,5.583c0,4.036,8.139,6.377,10.763,8.355s1.278,17.072,8.247,24.391c3.484,3.592,10.682,6.041,17.772,4.641l.578-.121,1.628,8.368s7.077,3.592,12.418,1.049c.471-5.691,1.507-24.216,1.507-24.216s7.547,3.027,9.3-3.834-4.991-10.561-10.1-7.2l1.978-19.158-40.293-.7Z" transform="translate(94.374 32.515)" fill="#fff"/>
    <path id="Path_5473" data-name="Path 5473" d="M477.112,296.187l-.7-18.458-37.737-1.507s-14.045-17.49,6.861-22.185c6.269-1.157,8.933,6.269,8.933,6.269s10.332-11.382,24.391-6.041,11.731,19.521,11.731,19.521,10.211,3.014,9.162,11.61-6.848,11.839-6.848,11.839,10.332,6.969,4.036,15.323-19.508,1.52-19.508,1.52l.35-6.861s4.292,1.52,6.5,0a7.225,7.225,0,0,0,2.8-4.641,6.848,6.848,0,0,0-2.1-6.5C481.417,293.295,477.112,296.187,477.112,296.187Z" transform="translate(96.677 26.558)" fill="#81a8ff"/>
    <path id="Path_5474" data-name="Path 5474" d="M460.4,317.175a23.41,23.41,0,0,0,8.718-1.736,1.157,1.157,0,0,0,.578-1.507,1.144,1.144,0,0,0-1.507-.578c-7.79,3.363-16.723.928-20.557-3.135-4.036-4.305-5.112-11.5-5.92-16.844-.578-4.036-1.049-6.727-2.435-7.776a19.076,19.076,0,0,0-3.484-1.978c-2.8-1.345-6.727-3.363-6.727-5.462a2.973,2.973,0,0,1,.928-2.206c2.206-2.085,7.426-2.314,9.3-2.206a1.157,1.157,0,0,0,1.157-1.157,1.09,1.09,0,0,0-1.157-1.157c-.35,0-7.669-.35-11.032,2.893a4.844,4.844,0,0,0-1.628,3.834c0,3.606,4.413,5.812,8,7.547a23.205,23.205,0,0,1,3.135,1.749c.7.457,1.17,3.713,1.52,6.269.807,5.57,2.085,13.238,6.619,18C448.91,314.968,454.48,317.175,460.4,317.175Z" transform="translate(94.11 32.975)"/>
    <circle id="Ellipse_76" data-name="Ellipse 76" cx="1.735" cy="1.735" r="1.735" transform="translate(549.532 309.17)"/>
    <circle id="Ellipse_77" data-name="Ellipse 77" cx="1.735" cy="1.735" r="1.735" transform="translate(542.213 308.592)"/>
    <path id="Path_5475" data-name="Path 5475" d="M465.056,322.926a12.836,12.836,0,0,0,5.018-1.036,1.17,1.17,0,0,0,.578-.928c.35-4.641,1.157-18.229,1.345-22.642a9.014,9.014,0,0,0,5.933-.457,6.525,6.525,0,0,0,3.363-4.642c.807-3.484-.121-6.619-2.785-8.489a8.072,8.072,0,0,0-9.175.121,1.2,1.2,0,0,0,1.345,1.978,5.771,5.771,0,0,1,6.5-.121,5.583,5.583,0,0,1,1.857,6.041,4.278,4.278,0,0,1-2.206,3.135c-2.314,1.157-5.449-.121-5.57-.121a1.171,1.171,0,0,0-1.049.121,1.587,1.587,0,0,0-.578.928c0,.229-.928,17.194-1.345,23.463-3.834,1.507-8.718-.35-10.225-1.049l-1.507-7.776a1.186,1.186,0,0,0-2.327.457l1.628,8.368a1.52,1.52,0,0,0,.578.807C456.809,320.949,460.751,322.926,465.056,322.926Z" transform="translate(103.634 37.098)"/>
    <path id="Path_5476" data-name="Path 5476" d="M371.975,271.108a1.345,1.345,0,0,1-.807-.269s-2.328-1.776-6.512-4.655a1.345,1.345,0,0,1,1.534-2.153c4.251,2.933,6.525,4.668,6.619,4.736a1.345,1.345,0,0,1-.821,2.408Z" transform="translate(72.58 30.38)"/>
    <path id="Path_5477" data-name="Path 5477" d="M595.583,511.416h0c-5.314,0-10.763-.108-16.077-.242a1.345,1.345,0,1,1,0-2.691c5.381.135,10.763.215,16.023.242a1.346,1.346,0,0,1,.054,2.691Zm16.036-.081a1.345,1.345,0,0,1,0-2.691c5.381-.094,10.763-.242,16-.444a1.345,1.345,0,1,1,0,2.691c-5.233.215-10.642.363-16.063.457Zm-48.11-.727h0c-5.274-.242-10.682-.538-16.037-.888a1.348,1.348,0,0,1,.161-2.691c5.381.336,10.763.632,16,.874a1.346,1.346,0,0,1-.067,2.691Zm80.169-.552a1.346,1.346,0,0,1-.081-2.691c5.381-.35,10.763-.767,15.956-1.238a1.351,1.351,0,1,1,.242,2.691c-5.22.471-10.6.9-16.023,1.251ZM531.5,508.551H531.4c-5.3-.431-10.7-.942-16-1.48a1.352,1.352,0,1,1,.269-2.691c5.3.538,10.655,1.036,15.942,1.48a1.346,1.346,0,0,1-.108,2.691ZM675.618,507.1a1.348,1.348,0,1,1-.161-2.691c5.381-.659,10.763-1.413,15.848-2.22a1.361,1.361,0,1,1,.417,2.691c-5.139.821-10.494,1.574-15.929,2.247Zm-176.025-1.8h-.161c-5.3-.646-10.669-1.345-15.929-2.085a1.358,1.358,0,0,1,.377-2.691c5.247.74,10.588,1.44,15.875,2.072a1.348,1.348,0,1,1-.161,2.691ZM707.3,502.039a1.352,1.352,0,0,1-.269-2.691c5.381-1.09,10.628-2.287,15.579-3.552a1.346,1.346,0,0,1,.659,2.61c-4.978,1.278-10.265,2.475-15.7,3.579Zm-239.471-1.211h-.215c-5.287-.848-10.615-1.749-15.835-2.691a1.366,1.366,0,0,1,.471-2.691c5.206.942,10.521,1.843,15.781,2.691a1.349,1.349,0,0,1-.2,2.691Zm-31.575-5.677h-.269c-5.274-1.063-10.561-2.179-15.714-3.336a1.345,1.345,0,1,1,.592-2.623c5.126,1.144,10.4,2.26,15.66,3.323a1.352,1.352,0,1,1-.269,2.691Zm302.1-1.117a1.353,1.353,0,0,1-.484-2.637c5.3-1.722,10.319-3.592,14.906-5.543a1.347,1.347,0,0,1,1.063,2.475c-4.668,1.978-9.754,3.875-15.135,5.637a1.591,1.591,0,0,1-.35.067Zm-333.39-5.879a1.476,1.476,0,0,1-.336,0c-5.22-1.345-10.453-2.691-15.552-4.036a1.346,1.346,0,0,1,.713-2.6c5.072,1.345,10.278,2.691,15.485,4.036a1.354,1.354,0,1,1-.31,2.691Zm362.746-6.875a1.342,1.342,0,0,1-.673-2.5,78.84,78.84,0,0,0,12.754-9.189,1.345,1.345,0,0,1,1.8,1.991,79.907,79.907,0,0,1-13.2,9.512,1.265,1.265,0,0,1-.686.188ZM374,479.76a1.238,1.238,0,0,1-.377-.067c-5.18-1.534-10.332-3.148-15.35-4.789a1.346,1.346,0,1,1,.848-2.556c4.978,1.628,10.117,3.242,15.27,4.776a1.359,1.359,0,1,1-.39,2.691Zm-30.445-10.05a1.345,1.345,0,0,1-.471-.081c-5.032-1.857-10.077-3.807-14.987-5.825a1.345,1.345,0,0,1,1.009-2.489c4.9,2,9.9,3.942,14.906,5.785a1.345,1.345,0,0,1-.457,2.61Zm447.085-10.2a1.342,1.342,0,0,1-1.184-1.978,31.817,31.817,0,0,0,3.834-14.678,1.345,1.345,0,0,1,1.345-1.345h0a1.345,1.345,0,0,1,1.345,1.345,34.4,34.4,0,0,1-4.144,15.9,1.346,1.346,0,0,1-1.2.753Zm-476.764-1.951a1.346,1.346,0,0,1-.552-.121c-4.884-2.22-9.767-4.547-14.53-6.929a1.348,1.348,0,1,1,1.211-2.408c4.736,2.368,9.579,4.682,14.422,6.875a1.345,1.345,0,0,1-.552,2.583ZM285.225,443.18a1.345,1.345,0,0,1-.659-.175c-4.7-2.6-9.417-5.381-13.911-8.072a1.346,1.346,0,1,1,1.4-2.3c4.493,2.691,9.148,5.381,13.817,8.072a1.345,1.345,0,0,1-.646,2.529Zm506.281-14.57a1.345,1.345,0,0,1-1.251-.848,63.323,63.323,0,0,0-5.193-10.036c-.78-1.251-1.6-2.475-2.435-3.7a1.345,1.345,0,1,1,2.22-1.52c.861,1.251,1.709,2.529,2.5,3.794a65.832,65.832,0,0,1,5.381,10.467,1.373,1.373,0,0,1-1.224,1.843ZM257.834,426.5a1.345,1.345,0,0,1-.753-.229c-4.467-2.987-8.893-6.108-13.158-9.256a1.347,1.347,0,1,1,1.6-2.166c4.224,3.135,8.624,6.216,13.063,9.189a1.346,1.346,0,0,1-.753,2.462Zm-25.777-19.05a1.345,1.345,0,0,1-.861-.309c-4.2-3.417-8.3-6.956-12.2-10.494a1.345,1.345,0,0,1,1.8-1.991c3.875,3.511,7.938,7.009,12.108,10.4a1.345,1.345,0,0,1-.848,2.395Zm541.757-5.381a1.345,1.345,0,0,1-1-.444,147.679,147.679,0,0,0-11.261-11.207,1.348,1.348,0,0,1,1.8-2,153.057,153.057,0,0,1,11.462,11.409,1.345,1.345,0,0,1-1.009,2.247Zm-565.5-16.144a1.345,1.345,0,0,1-.969-.4c-3.807-3.875-7.507-7.843-10.965-11.8a1.345,1.345,0,0,1,2.018-1.776c3.431,3.928,7.09,7.857,10.87,11.678a1.332,1.332,0,0,1-.955,2.287Zm541.744-5.381a1.346,1.346,0,0,1-.807-.269c-4.036-3.027-8.449-6.108-13.077-9.121a1.347,1.347,0,1,1,1.466-2.26c4.682,3.054,9.135,6.162,13.225,9.229a1.375,1.375,0,0,1-.807,2.462Zm-26.826-17.57a1.345,1.345,0,0,1-.673-.188c-4.319-2.516-8.893-5.059-13.992-7.79a1.362,1.362,0,0,1,1.345-2.368c5.112,2.691,9.713,5.3,14.059,7.83a1.345,1.345,0,0,1-.673,2.516Zm-535.986-1.265a1.345,1.345,0,0,1-1.076-.538c-3.31-4.345-6.431-8.785-9.283-13.184a1.347,1.347,0,0,1,2.26-1.466c2.812,4.345,5.893,8.731,9.162,13.023a1.407,1.407,0,0,1-1.063,2.206Zm507.72-13.965a1.426,1.426,0,0,1-.605-.148c-3.942-2.018-7.857-4.036-11.7-5.919l-2.691-1.345a1.345,1.345,0,0,1,1.211-2.395l2.691,1.345q5.771,2.879,11.718,5.92a1.345,1.345,0,0,1-.619,2.543ZM169.889,334.772a1.345,1.345,0,0,1-1.13-.7,154.721,154.721,0,0,1-6.807-14.678,1.347,1.347,0,0,1,2.5-1,152.7,152.7,0,0,0,6.727,14.422,1.382,1.382,0,0,1-1.292,1.991Zm496.433-1.561a1.346,1.346,0,0,1-.619-.148c-5.476-2.852-10.09-5.381-14.153-7.7a1.35,1.35,0,1,1,1.345-2.341c4.036,2.314,8.61,4.816,14.045,7.655a1.345,1.345,0,0,1-.619,2.529ZM638.648,317a1.345,1.345,0,0,1-.78-.242A84.585,84.585,0,0,1,625.409,306.3a1.347,1.347,0,1,1,1.951-1.857,80.8,80.8,0,0,0,12.108,10.1,1.383,1.383,0,0,1-.807,2.489Zm-480.49-12a1.345,1.345,0,0,1-1.345-1.009,97.376,97.376,0,0,1-2.691-16.01,1.35,1.35,0,1,1,2.691-.215,93.4,93.4,0,0,0,2.623,15.566,1.345,1.345,0,0,1-.969,1.628Zm459.557-11.543a1.345,1.345,0,0,1-1.265-.888,28.347,28.347,0,0,1-1.709-9.673,31.291,31.291,0,0,1,.767-6.727,1.345,1.345,0,1,1,2.623.592,29.2,29.2,0,0,0-.7,6.189,25.671,25.671,0,0,0,1.547,8.758,1.313,1.313,0,0,1-1.251,1.789ZM424.563,273.909a1.346,1.346,0,0,1-.7-.2c-4.453-2.691-9.095-5.476-13.776-8.072a1.35,1.35,0,0,1,1.345-2.341c4.722,2.691,9.417,5.381,13.871,8.18a1.345,1.345,0,0,1-.713,2.489Zm-268.652-.632h-.188a1.345,1.345,0,0,1-1.144-1.52,59.478,59.478,0,0,1,4.413-15.741,1.343,1.343,0,1,1,2.462,1.076,57.083,57.083,0,0,0-4.211,15.028,1.345,1.345,0,0,1-1.332,1.157Zm467.279-10.1a1.336,1.336,0,0,1-1.13-2.058,96.871,96.871,0,0,1,9.888-12.888,1.348,1.348,0,1,1,2,1.8,94.545,94.545,0,0,0-9.619,12.512A1.345,1.345,0,0,1,623.19,263.173Zm-226.583-5a1.346,1.346,0,0,1-.619-.148c-4.722-2.422-9.552-4.776-14.368-7a1.348,1.348,0,1,1,1.13-2.449c4.843,2.247,9.713,4.615,14.476,7.05a1.345,1.345,0,0,1-.619,2.543Zm-29.113-13.453a1.345,1.345,0,0,1-.511-.094c-4.937-2.045-9.956-4.036-14.893-5.812a1.345,1.345,0,1,1,.915-2.529c4.991,1.83,10.036,3.794,15,5.852a1.345,1.345,0,0,1-.511,2.583Zm-198.734-.3a1.353,1.353,0,0,1-1.022-2.233,59.263,59.263,0,0,1,12.431-10.628,1.349,1.349,0,0,1,1.453,2.274,55.979,55.979,0,0,0-11.853,10.13A1.345,1.345,0,0,1,168.759,244.419Zm475.459-5.3a1.345,1.345,0,0,1-.915-2.341c3.686-3.377,7.79-6.915,12.216-10.507a1.344,1.344,0,1,1,1.7,2.085c-4.372,3.565-8.449,7.063-12.108,10.413a1.412,1.412,0,0,1-.848.35Zm-306.9-5.381a1.347,1.347,0,0,1-.4,0c-5.112-1.614-10.278-3.108-15.35-4.44a1.343,1.343,0,0,1,.686-2.6c5.112,1.345,10.319,2.839,15.471,4.467a1.36,1.36,0,0,1-.4,2.691ZM195.248,227.01a1.345,1.345,0,0,1-.457-2.61,100.687,100.687,0,0,1,15.673-4.292,1.368,1.368,0,0,1,.5,2.691,97.067,97.067,0,0,0-15.229,4.144,1.439,1.439,0,0,1-.444.04ZM306.307,225.6a1.02,1.02,0,0,1-.282,0c-5.247-1.1-10.534-2.058-15.7-2.852a1.36,1.36,0,1,1,.4-2.691c5.22.807,10.561,1.776,15.848,2.892a1.323,1.323,0,0,1-.229,2.623Zm-31.683-4.87h-.135c-5.381-.511-10.669-.861-15.915-1.036a1.345,1.345,0,0,1,0-2.691c5.3.188,10.763.538,16.077,1.049a1.347,1.347,0,0,1-.121,2.691Zm-48.015-.108a1.342,1.342,0,0,1-.148-2.677c5.287-.525,10.763-.861,16.144-1.022a1.345,1.345,0,1,1,0,2.691c-5.381.148-10.682.5-15.9,1.009Z" transform="translate(0 14.153)"/>
    <path id="Path_5478" data-name="Path 5478" d="M537.445,220.086a1.357,1.357,0,0,1-.807-2.435q3.175-2.341,6.552-4.762a1.345,1.345,0,0,1,1.561,2.179c-2.233,1.614-4.4,3.188-6.5,4.749a1.346,1.346,0,0,1-.807.269Z" transform="translate(131.916 12.696)"/>
  </g>
</svg>
