<svg id="Layer_1" data-name="Layer 1" xmlns="http://www.w3.org/2000/svg" viewBox="0 0 907.17 758.19"><defs><style>.cls-1,.cls-3{fill:#2e1407;}.cls-1,.cls-11,.cls-5,.cls-6,.cls-8{fill-rule:evenodd;}.cls-2{fill:#d5cda0;}.cls-11,.cls-4{fill:#ae4f39;}.cls-10,.cls-5{fill:#f1e7de;}.cls-6{fill:#f8f4f1;}.cls-7{fill:#f59289;}.cls-8{fill:#311c19;}.cls-9{fill:#f99184;}</style></defs><path class="cls-1" d="M703.15,457.46a1.11,1.11,0,0,1,1.26,1L724.73,605a1.12,1.12,0,1,1-2.22.31L702.18,458.73a1.14,1.14,0,0,1,1-1.27"/><path class="cls-2" d="M151.53,613.58a7.23,7.23,0,0,1,7.23-7.22H803.13a7.22,7.22,0,0,1,7.22,7.22V636.7a7.22,7.22,0,0,1-7.22,7.22H158.76a7.23,7.23,0,0,1-7.23-7.22Z"/><path class="cls-3" d="M320.87,243.06c12.83,29.22-11.9,68.47-11.9,68.47l-57.72,44.74L226.52,479.51s-79.93-23.3-79.93-67.13c0-57.51,43.72-71.43,43.72-71.43s-8-40.65,6.78-67.74c27.21-49.88,67-39.28,67-39.28s37.52-34.78,56.79,9.13"/><path class="cls-4" d="M278,363.64,233.89,360s-29.62-1.26-59.24,21c-33.23,24.93-59.23,111.25-59.23,111.25L179,494.39,147.92,613.58l189-11.52S328.06,405.42,317.17,381c-6.06-13.6-39.22-17.33-39.22-17.33"/><path class="cls-5" d="M255.58,371.42a1.13,1.13,0,0,1,1.37.1L278.73,391a9.54,9.54,0,1,1-15.53,9.75l-5.53-19.21,5.19,41.19a1.12,1.12,0,1,1-2.23.28l-4.84-38.46L252.4,423a1.12,1.12,0,0,1-2.24-.2l3.6-40.86-7.4,19.37a9.75,9.75,0,0,1-16.44,2.94l-1.34-1.54a9.74,9.74,0,0,1,1.93-14.52Zm2.78,4.37,7,24.32a7.29,7.29,0,1,0,11.87-7.46Zm-4.46-.54L231.75,390a7.49,7.49,0,0,0-1.48,11.17l1.34,1.54a7.51,7.51,0,0,0,12.65-2.26Z"/><rect class="cls-3" x="324.91" y="582.92" width="256.09" height="23.43" rx="8.37"/><path class="cls-3" d="M460.16,474.6a8.36,8.36,0,0,1,7.86-5.5h171a8.36,8.36,0,0,1,7.79,11.41L597.74,606.36H412Z"/><path class="cls-6" d="M534.6,547.31a11.95,11.95,0,1,0-6-15.81,12,12,0,0,0,6,15.81m-.92,2a14.19,14.19,0,1,0-7.09-18.77,14.2,14.2,0,0,0,7.09,18.77"/><path class="cls-7" d="M94.47,573.13l21-80.91,64.29,2.17-18.06,77.29,117.75,1.45,39-6.5,42.11,19.88a1.44,1.44,0,0,1-.87,2.73l-41.24-7.45L362.26,602a1.44,1.44,0,0,1-.09,2.66l-6,2.3a1.46,1.46,0,0,1-.46.1L288.79,610,140.26,629.28c-31.37,4.08-56.1-26.24-45.79-56.15"/><path class="cls-1" d="M321,588.71a1.13,1.13,0,0,0-.91,2.06l36.12,15.89a1.12,1.12,0,1,0,.91-2Zm.71,7.22a1.13,1.13,0,0,0-.89,2.07l21.67,9.39a1.13,1.13,0,0,0,1.48-.59,1.12,1.12,0,0,0-.59-1.47Z"/><path class="cls-1" d="M193,445.62a1.13,1.13,0,0,1,.82,1.36l-30.72,124.3h72.25a1.13,1.13,0,1,1,0,2.25H161.65a1.14,1.14,0,0,1-.89-.43,1.11,1.11,0,0,1-.2-1l31.06-125.7a1.13,1.13,0,0,1,1.36-.82"/><path class="cls-7" d="M278.64,344.5s16.86,3.28,26.9-9.65,2.34-32,2.34-32l-12.57-39S268.56,269,264.23,282c-11.56,24.57-15.11,18.75-15.11,18.75s-22.44-11.63-24.78,8.79c-1.65,14.42,15,19.33,15,19.33l-4.69,30.43s2.07,15,22.4,15.89c20.92.93,22.85-11.23,22.85-11.23Z"/><polygon class="cls-3" points="279.55 358.92 279.36 344.45 254.85 334.41 279.55 358.92"/><path class="cls-8" d="M232.31,308.49a.85.85,0,0,1,1.18-.17l9.87,7.34a.84.84,0,1,1-1,1.36l-9.87-7.35a.85.85,0,0,1-.18-1.18"/><path class="cls-8" d="M275.84,321.66l-.84,0h0v.2a3,3,0,0,0,0,.46,6.44,6.44,0,0,0,.38,1.46,5.93,5.93,0,0,0,3.33,3.3,5.69,5.69,0,0,0,5-.32,7.65,7.65,0,0,0,1.42-1,5,5,0,0,0,.39-.37,1.13,1.13,0,0,0,.11-.11l0,0h0l-.63-.56.64.56a.85.85,0,0,0-.08-1.19.84.84,0,0,0-1.19.08h0l-.07.08-.3.27a6.32,6.32,0,0,1-1.12.77,4,4,0,0,1-3.52.25,4.19,4.19,0,0,1-2.41-2.36,4.53,4.53,0,0,1-.28-1.06c0-.14,0-.24,0-.31v-.09a.84.84,0,1,0-1.68,0Z"/><path class="cls-8" d="M282.81,294.11a.84.84,0,0,1,1,.61l.28,1.14c.81,3.31,1.33,5.42,2.54,7.51,1.34,2.3,3.55,4.61,8.11,8.29a1.12,1.12,0,0,1,.43,1.17,1.37,1.37,0,0,1-.63.78,7.56,7.56,0,0,1-1.63.66c-.33.11-.68.21-1,.31a21,21,0,0,0-2.94,1,.85.85,0,0,1-.72-1.53,24,24,0,0,1,3.29-1.14l.89-.28c.25-.07.46-.14.64-.21-4.17-3.42-6.44-5.77-7.87-8.23s-1.92-4.68-2.71-7.92c-.09-.38-.19-.77-.29-1.17a.85.85,0,0,1,.62-1m10.89,18s0,0,0,0v0"/><path class="cls-3" d="M296.06,289.38c1.62-.48,3.55,1.21,4.31,3.77s.08,5-1.54,5.52-3.56-1.21-4.32-3.77-.07-5,1.55-5.52"/><path class="cls-3" d="M272.94,298.05c1.62-.48,3.55,1.2,4.32,3.77s.07,5-1.55,5.52-3.55-1.21-4.32-3.77-.07-5,1.55-5.52"/><polygon class="cls-9" points="671.66 512.45 751.11 512.45 741.01 606.36 681.77 606.36 671.66 512.45"/><polygon class="cls-10" points="678.88 583.24 676 552.18 747.5 552.18 743.9 583.24 678.88 583.24"/><path class="cls-3" d="M673.1,493.66h76.57a7.23,7.23,0,0,1,7.23,7.23v4.33a7.22,7.22,0,0,1-7.22,7.22H673.11a7.23,7.23,0,0,1-7.23-7.23v-4.33A7.22,7.22,0,0,1,673.1,493.66Z"/><path class="cls-11" d="M712.11,579.12a11.77,11.77,0,1,0-11.77-11.77,11.77,11.77,0,0,0,11.77,11.77m0,1.23a13,13,0,1,0-13-13,13,13,0,0,0,13,13"/><path class="cls-7" d="M334.42,559l-13.12-68.9L348,432.26l24.57,41.18L414.47,381l1.85-4.31,2.18-31.61a1.23,1.23,0,0,1,2.3-.52l9.07,16.12,37.92-32.06a1.45,1.45,0,0,1,2.22,1.79L455.73,357l30.74-22a1.23,1.23,0,0,1,1.66,1.8l-24.39,28.78L494,350.48a1.23,1.23,0,0,1,1.42,2l-26,26.06,17.4-7.24a1.23,1.23,0,0,1,1.25,2.08l-17.55,14.4L452.78,401.2l-46,137.13A45.6,45.6,0,0,1,334.42,559"/><polygon class="cls-4" points="317.69 380.25 288.79 423.59 312.63 495.83 373.31 471.27 317.69 380.25"/><path class="cls-1" d="M301.48,413.85a1.13,1.13,0,0,1,1.37.81L319.46,479a1.12,1.12,0,0,1-2.17.57l-16.62-64.3a1.13,1.13,0,0,1,.81-1.37"/><path class="cls-1" d="M533.64,449.22a.55.55,0,0,1-.62-.49l.55-.07-.55.07h0v0s0-.08,0-.15,0-.31,0-.55c-.05-.49-.11-1.2-.18-2.12a.57.57,0,0,1,.53-.6.55.55,0,0,1,.59.52c.07.91.13,1.61.17,2.09q0,.36.06.54c0,.06,0,.11,0,.14v0h0a.56.56,0,0,1-.49.63m-.54-8.58a.56.56,0,0,1-.57-.55c0-1.73,0-3.67.05-5.78a.57.57,0,0,1,1.13,0c-.07,2.1-.08,4-.05,5.73a.57.57,0,0,1-.56.57m.32-11.49a.56.56,0,0,1-.52-.6c.15-1.84.34-3.76.59-5.75a.56.56,0,1,1,1.11.14q-.37,3-.58,5.7a.55.55,0,0,1-.6.51m1.38-11.41a.55.55,0,0,1-.45-.65q.48-2.77,1.15-5.66a.56.56,0,1,1,1.09.26c-.44,1.89-.81,3.76-1.14,5.6a.55.55,0,0,1-.65.45m2.54-11.2a.56.56,0,0,1-.38-.7q.79-2.74,1.78-5.5a.56.56,0,0,1,1.06.38c-.65,1.81-1.24,3.63-1.77,5.43a.56.56,0,0,1-.69.39m3.83-10.83a.56.56,0,0,1-.29-.74c.76-1.75,1.59-3.5,2.5-5.22a.56.56,0,1,1,1,.52q-1.33,2.55-2.46,5.15a.57.57,0,0,1-.74.29m5.27-10.21a.55.55,0,0,1-.18-.77c1-1.62,2.1-3.22,3.26-4.78a.57.57,0,0,1,.91.67q-1.73,2.31-3.22,4.7a.55.55,0,0,1-.77.18m6.79-9.25a.57.57,0,0,1-.05-.79q1-1.08,2-2.13c.7-.73,1.41-1.43,2.12-2.12a.56.56,0,1,1,.78.81c-.7.68-1.4,1.38-2.1,2.09s-1.31,1.39-1.94,2.1a.56.56,0,0,1-.79,0m8.39-8.24a.56.56,0,0,1,.07-.79q2.34-2,4.69-3.68a.57.57,0,0,1,.79.13.56.56,0,0,1-.13.78c-1.54,1.12-3.09,2.33-4.63,3.63a.56.56,0,0,1-.79-.07m9.54-7a.56.56,0,0,1,.18-.77q2.61-1.59,5.2-2.9a.57.57,0,0,1,.51,1q-2.55,1.28-5.12,2.85a.57.57,0,0,1-.77-.19m58.14,24.15a28.45,28.45,0,0,1-3.1-1.11,7,7,0,0,1-2.2-1.72.57.57,0,0,1,0-.8.56.56,0,0,1,.79,0,5.81,5.81,0,0,0,1.81,1.44,28.58,28.58,0,0,0,3,1.08.56.56,0,0,1,.38.7.57.57,0,0,1-.7.37m6,.39a.56.56,0,0,1,.53-.59,9.73,9.73,0,0,0,5.69-1.92.56.56,0,0,1,.79.09.57.57,0,0,1-.09.79,10.87,10.87,0,0,1-6.34,2.17.56.56,0,0,1-.58-.54m-13.49-7.36A.57.57,0,0,1,621,378a35.78,35.78,0,0,1-2.13-4.79.56.56,0,1,1,1.06-.38,35.25,35.25,0,0,0,2.06,4.63.56.56,0,0,1-.22.76m-40.1-22.57a.57.57,0,0,1,.32-.73q2.84-1.12,5.63-1.95A.56.56,0,0,1,588,354q-2.75.81-5.54,1.92a.57.57,0,0,1-.73-.32m36.41,13a.55.55,0,0,1-.67-.42,40,40,0,0,1-.81-5.18.57.57,0,0,1,.51-.61.56.56,0,0,1,.61.51,39.45,39.45,0,0,0,.78,5,.56.56,0,0,1-.42.67m26.84,10a.57.57,0,0,1-.44-.66,14.49,14.49,0,0,0-.24-6.16.56.56,0,0,1,.41-.68.57.57,0,0,1,.68.42,15.58,15.58,0,0,1,.25,6.64.56.56,0,0,1-.66.44M593,352.16a.56.56,0,0,1,.44-.66q3-.58,5.91-.88a.56.56,0,1,1,.11,1.11c-1.9.2-3.84.49-5.8.88a.56.56,0,0,1-.66-.45m24.06,6.17a.56.56,0,0,1-.53-.59,34.89,34.89,0,0,1,.66-5.2.5.5,0,0,1,0-.13l-.23,0a.57.57,0,0,1-.45-.66.55.55,0,0,1,.65-.45q3.06.54,5.83,1.31a.57.57,0,0,1,.39.69.56.56,0,0,1-.69.39c-1.42-.39-2.89-.74-4.43-1a.38.38,0,0,1,0,.15,34.07,34.07,0,0,0-.64,5,.56.56,0,0,1-.59.53m-12.31-7.48a.57.57,0,0,1,.56-.57c2,0,4,.06,6,.22a.55.55,0,0,1,.51.6.58.58,0,0,1-.61.52c-1.89-.16-3.85-.23-5.86-.21a.57.57,0,0,1-.57-.56m38,15.25a.55.55,0,0,1-.76-.23c-.47-.89-1-1.8-1.62-2.72a10.32,10.32,0,0,0-1.9-2,.56.56,0,0,1-.07-.79.57.57,0,0,1,.79-.06,11,11,0,0,1,2.11,2.26c.63.94,1.19,1.88,1.69,2.81a.56.56,0,0,1-.24.76m-8.36-8.41a.55.55,0,0,1-.76.23,49.52,49.52,0,0,0-5.32-2.44.56.56,0,1,1,.4-1,49.18,49.18,0,0,1,5.45,2.49.57.57,0,0,1,.23.76M619,348.23a.57.57,0,0,1-.33-.73,33.8,33.8,0,0,1,2.23-4.74.56.56,0,1,1,1,.55,32.72,32.72,0,0,0-2.15,4.59.56.56,0,0,1-.72.33m4.92-9a.56.56,0,0,1-.1-.79,38,38,0,0,1,3.51-3.88.56.56,0,0,1,.79,0,.57.57,0,0,1,0,.8,35.72,35.72,0,0,0-3.4,3.77.57.57,0,0,1-.79.09m7.27-7.29a.57.57,0,0,1,.1-.79q1-.78,2.13-1.53c.78-.54,1.56-1,2.34-1.55a.57.57,0,0,1,.78.17.56.56,0,0,1-.17.78c-.78.49-1.55,1-2.32,1.52s-1.41,1-2.07,1.5a.56.56,0,0,1-.79-.1M640.3,326a.58.58,0,0,1,.23-.77q2.49-1.35,5-2.49a.56.56,0,0,1,.74.27.56.56,0,0,1-.27.75q-2.47,1.13-4.93,2.46a.57.57,0,0,1-.77-.22m10.06-4.69a.56.56,0,0,1,.33-.72c1.76-.67,3.53-1.26,5.28-1.79a.56.56,0,0,1,.32,1.08c-1.73.52-3.46,1.1-5.21,1.76a.56.56,0,0,1-.72-.33M661,318a.56.56,0,0,1,.42-.67c1.84-.42,3.67-.78,5.47-1.07a.56.56,0,1,1,.18,1.11c-1.78.29-3.59.64-5.4,1.05A.56.56,0,0,1,661,318m10.93-1.84a.56.56,0,0,1,.51-.61c1.88-.18,3.73-.31,5.56-.37a.56.56,0,0,1,0,1.12c-1.8.07-3.64.19-5.5.37a.57.57,0,0,1-.61-.51m11.08-.47a.56.56,0,0,1,.57-.55q2.87.06,5.58.27a.55.55,0,0,1,.51.6.56.56,0,0,1-.6.52c-1.78-.14-3.62-.23-5.51-.27a.56.56,0,0,1-.55-.57m11.06.78a.56.56,0,0,1,.63-.49q2.88.39,5.51.87A.56.56,0,0,1,700,318q-2.6-.48-5.46-.86a.56.56,0,0,1-.48-.63M705,318.45a.56.56,0,0,1,.67-.42c2,.48,3.79,1,5.38,1.44a.56.56,0,0,1-.31,1.08c-1.58-.47-3.36-.95-5.33-1.42a.56.56,0,0,1-.41-.68m10.66,3.1a.56.56,0,0,1,.72-.33c.83.3,1.48.56,1.91.73l.5.21.13,0,0,0h0a.57.57,0,0,1,.28.75.55.55,0,0,1-.74.28h0l-.12-.06-.48-.2c-.42-.17-1.06-.42-1.88-.72a.56.56,0,0,1-.33-.72"/><path class="cls-3" d="M730.45,326.87a2.14,2.14,0,0,1-1.47,3.6l-34.28,1.42a2.14,2.14,0,0,1-2.07-2.93l3.91-9.61a1.76,1.76,0,0,1,1.75-1.09,1.76,1.76,0,0,0,1.48-2.87l-.33-.41a2,2,0,0,1-.31-2l4.22-10.38a2.13,2.13,0,0,1,3.52-.66Z"/><path class="cls-5" d="M346,287.31a53.25,53.25,0,0,1-2.89-17.38c0-29.89,24.54-54.12,54.81-54.12s54.8,24.23,54.8,54.12S428.22,324,398,324A55,55,0,0,1,353,300.94H344.5a3.7,3.7,0,0,1-3.19-5.56Z"/><path class="cls-7" d="M406.57,279.15a4.26,4.26,0,0,0-4.22-4.87H390.89a4.26,4.26,0,0,0-4.22,4.87l1.6,11.12a4.26,4.26,0,0,0,4.22,3.65h8.25a4.26,4.26,0,0,0,4.22-3.65Z"/><path class="cls-2" d="M378.86,264.45a18.48,18.48,0,1,0,18.47-18.24,18.36,18.36,0,0,0-18.47,18.24"/><polygon class="cls-5" points="403.58 261.09 389.66 261.09 389.66 281.29 390.79 281.29 390.79 262.21 402.45 262.21 402.45 282 403.58 282 403.58 261.09"/></svg>