<svg xmlns="http://www.w3.org/2000/svg" width="681.773" height="495.729" viewBox="0 0 681.773 495.729">
  <g id="Layer_16" data-name="Layer 16" transform="translate(-196 -145.556)">
    <path id="Path_5533" data-name="Path 5533" d="M383,516.89H357.59C360.251,516.89,369.564,517.422,383,516.89Z" transform="translate(53.401 122.716)" fill="#fff"/>
    <path id="Path_5534" data-name="Path 5534" d="M371.391,518.784c-4.657,0-8.249-.133-10.777-.133H357.82a1.33,1.33,0,1,1,0-2.661h25.412a1.33,1.33,0,1,1,0,2.661C378.975,518.784,374.984,518.784,371.391,518.784Z" transform="translate(53.038 122.418)"/>
    <path id="Path_5535" data-name="Path 5535" d="M745.264,327.274h71.313L659.449,195.69,502.32,327.274h71.446c-.532,29.936-1.2,65.858-1.2,98.189,0,173.228-137.3,195.58-195.979,197.841,42.575,0,99.253-.133,121.605-.133,255.451,0,246.936-159.657,246.936-193.717C745.264,410.029,745.264,363.862,745.264,327.274Z" transform="translate(59.68 16.568)" fill="#fff"/>
    <path id="Path_5536" data-name="Path 5536" d="M376.92,624.883a1.33,1.33,0,1,1,0-2.661C449.7,619.429,571.7,590.158,571.7,425.712c0-31.8.665-67.854,1.2-96.858H502.783a1.33,1.33,0,0,1-1.2-.931,1.5,1.5,0,0,1,.4-1.464L659.114,194.874a1.4,1.4,0,0,1,1.73,0L817.972,326.458a1.5,1.5,0,0,1,.4,1.464,1.331,1.331,0,0,1-1.2.931H747.191v103.91c.133,22.485.532,82.356-45.9,129.189-41.378,41.644-109.5,62.8-202.365,62.8H456.084C431.071,624.883,401.667,624.883,376.92,624.883ZM506.376,326.325H574.23a1.211,1.211,0,0,1,.931.4,1.437,1.437,0,0,1,.4.931v1.064c-.532,29-1.2,65.193-1.2,96.992,0,75.3-25.811,130.519-76.5,164.047-29.27,19.292-62.266,28.339-90.605,32.33h91.537c92.2,0,159.657-20.888,200.5-62,45.635-46.034,45.369-104.974,45.236-127.193V327.656a1.25,1.25,0,0,1,1.33-1.33h67.322L659.779,197.8Z" transform="translate(59.35 16.199)"/>
    <path id="Path_5537" data-name="Path 5537" d="M290.13,361.71c.532-11.442,14.635-60.537,14.635-60.537l.266-.4a30.375,30.375,0,0,1,1.33-13.3c4.923-14.9,14.236-35.923,17.562-43.107l1.2-2.528c18.627-37.386,58.009-42.974,58.009-42.974l25.013,1.464s23.15,7.717,31.931,21.554L474,266.448l78.631,21.288-13.438,40.712-68.785-19.159a56.265,56.265,0,0,1-27.94-18.094l-5.987-7.318-.8-.931,3.326,64.927Z" transform="translate(31.107 17.615)" fill="#fff"/>
    <path id="Path_5538" data-name="Path 5538" d="M410.09,168.16s4.258.665,7.451.931c5.588.532,9.18,9.047-4.657,11.974-8.249,1.33-4.391,15.167-7.85,21.82-2.129,4.124-5.322,10.644-20.356,7.052l-.8-.266-.931,9.712s-10.378,3.592-19.425-1.73c-.4-4.657-1.33-15.966-1.6-17.828,0,0-11.043,4.923-9.979-5.987.532-5.056,3.858-7.451,9.712-4.923L360.2,169.091Z" transform="translate(51.513 7.47)" fill="#fff"/>
    <path id="Path_5539" data-name="Path 5539" d="M508.749,501.346s26.21-.133,26.21-11.309-16.9-10.777-23.15-10.777c-34.326,0-42.442,22.219-71.979,22.219C455.929,501.346,508.749,501.346,508.749,501.346Z" transform="translate(80.579 110.28)" fill="#fff"/>
    <path id="Path_5540" data-name="Path 5540" d="M509.112,503.007H440.06a1.33,1.33,0,0,1,0-2.661c13.837,0,22.884-5.056,32.464-10.245,10.511-5.854,21.421-11.841,39.515-11.841h.665c5.189,0,15.966,0,21.021,5.056a9.633,9.633,0,0,1,2.794,7.052C536.653,502.741,510.309,503.007,509.112,503.007Zm-52.021-2.661h52.021c6.918,0,24.88-1.863,24.88-9.979a7.025,7.025,0,0,0-2-5.189c-4.258-4.258-14.369-4.258-19.159-4.258h-.665c-17.429,0-28.073,5.854-38.318,11.575A101.677,101.677,0,0,1,457.091,500.346Z" transform="translate(80.216 109.95)"/>
    <path id="Path_5541" data-name="Path 5541" d="M388.527,470l-16.9,34.459H479.265s12.64.133,11.176-5.854c-1.6-6.253-41.777-14.9-60.137-14.1,1.464-8.781,1.73-12.639,1.73-12.639Z" transform="translate(58.041 107.22)" fill="#fff"/>
    <path id="Path_5542" data-name="Path 5542" d="M479.612,506.113H371.844a1.184,1.184,0,0,1-1.064-.665,1.211,1.211,0,0,1,0-1.33l16.9-34.459a1.33,1.33,0,0,1,1.2-.8l43.373,1.863a1.211,1.211,0,0,1,.931.4.878.878,0,0,1,.266.931c0,.133-.266,3.459-1.464,11.176h.4c17.429,0,57.609,7.584,59.472,15.167a4.258,4.258,0,0,1-.8,3.991C488.526,505.98,480.81,506.113,479.612,506.113Zm-105.507-2.661H479.612c2.927,0,8.116-.665,9.579-2.528a1.637,1.637,0,0,0,.266-1.73c-1.2-4.79-38.983-13.97-58.807-13.172a1.517,1.517,0,0,1-1.064-.4,1.038,1.038,0,0,1-.266-1.064c.931-5.721,1.33-9.313,1.6-11.176l-41.151-1.676Z" transform="translate(57.694 106.843)"/>
    <path id="Path_5543" data-name="Path 5543" d="M323.827,470l-16.9,34.459H414.565s12.64.133,11.176-5.854c-1.6-6.253-41.777-14.9-60.137-14.1,1.464-8.781,1.73-12.639,1.73-12.639Z" transform="translate(36.659 107.22)" fill="#fff"/>
    <path id="Path_5544" data-name="Path 5544" d="M414.912,506.113H307.144a1.184,1.184,0,0,1-1.064-.665,1.211,1.211,0,0,1,0-1.33l16.9-34.459a1.33,1.33,0,0,1,1.2-.8l43.373,1.863a1.21,1.21,0,0,1,.931.4.878.878,0,0,1,.266.931c0,.133-.266,3.459-1.464,11.176h.4c17.429,0,57.609,7.584,59.472,15.167a4.257,4.257,0,0,1-.8,3.991C423.826,505.98,416.11,506.113,414.912,506.113Zm-105.507-2.661H414.912c2.927,0,8.116-.665,9.579-2.528a1.637,1.637,0,0,0,.266-1.73c-1.2-4.79-38.983-13.97-58.807-13.172a1.517,1.517,0,0,1-1.064-.4,1.038,1.038,0,0,1-.266-1.064c.931-5.721,1.33-9.313,1.6-11.176l-41.112-1.73Z" transform="translate(36.313 106.843)"/>
    <path id="Path_5545" data-name="Path 5545" d="M340.39,311.46h79.828L475.7,386.1a41.843,41.843,0,0,1,7.983,28.738L472.639,528.46h-107.1l39.781-123.6L345.446,364.28a56.026,56.026,0,0,1-7.185-36.056Z" transform="translate(46.839 54.827)" fill="#ffa5c0"/>
    <path id="Path_5546" data-name="Path 5546" d="M354.552,169.126l10.91-.266L363.6,188.684l.665,16.365s-16.5,3.326-18.76-11.309S354.552,169.126,354.552,169.126Z" transform="translate(49.308 7.701)" fill="#ffa5c0"/>
    <path id="Path_5547" data-name="Path 5547" d="M383.879,204.768l-.931,9.712s-10.378,3.592-19.425-1.73c-.4-4.657-1.331-15.966-1.6-17.828,0,0-11.043,4.923-9.979-5.987.532-5.056,3.858-7.451,9.712-4.923" transform="translate(51.513 12.373)" fill="#fff"/>
    <path id="Path_5548" data-name="Path 5548" d="M375.157,217.323a23.257,23.257,0,0,1-11.974-3.06,1.331,1.331,0,0,1-.665-1.064v-.8c-.266-3.858-.931-11.841-1.33-15.433-2,.665-5.455,1.2-7.85-.532-1.863-1.33-2.661-3.858-2.395-7.318.266-2.927,1.464-5.189,3.459-6.253,1.464-.8,3.991-1.464,8.116.266a1.33,1.33,0,0,1-1.064,2.395c-2.395-1.064-4.391-1.2-5.721-.4a5.561,5.561,0,0,0-2.129,4.258c-.266,2.528.133,4.124,1.33,4.923,1.863,1.33,5.588.266,6.918-.4a1.849,1.849,0,0,1,1.2,0,1,1,0,0,1,.665.931c.266,1.6.931,9.313,1.6,17.3h0c6.918,3.725,14.5,2.129,16.9,1.464l.8-8.914a1.45,1.45,0,0,1,1.464-1.2,1.331,1.331,0,0,1,1.2,1.464l-.931,9.712a1.424,1.424,0,0,1-.931,1.2A22.618,22.618,0,0,1,375.157,217.323Z" transform="translate(51.188 12.058)"/>
    <path id="Path_5549" data-name="Path 5549" d="M352.23,176.5l57.743-1.2s3.326-29.27-26.21-28.738S352.23,176.5,352.23,176.5Z" transform="translate(51.63 0.33)" fill="#fff"/>
    <path id="Path_5550" data-name="Path 5550" d="M352.561,178.158a1.211,1.211,0,0,1-.931-.4,1.517,1.517,0,0,1-.4-1.064c0-.266,2.262-30.468,32.73-31.133,9.18-.133,16.232,2.395,21.021,7.584,8.116,8.781,6.652,21.953,6.652,22.618a1.41,1.41,0,0,1-1.33,1.2l-57.743,1.2Zm32.464-29.936h-.931c-24.614.532-29.137,21.421-29.936,27.142l54.949-1.2c.133-3.326-.133-12.773-5.987-19.292C398.994,150.484,392.874,148.222,385.024,148.222Z" transform="translate(51.299 0)"/>
    <path id="Path_5551" data-name="Path 5551" d="M386.219,212.56a44.158,44.158,0,0,1-13.97-2.794,1.347,1.347,0,0,1,.931-2.528c18.494,6.386,21.82.133,24.215-4.524l.133-.266c1.2-2.262,1.464-5.721,1.73-8.914.4-5.854.931-12.506,7.052-13.438,6.519-1.33,8.648-3.991,8.515-5.987a4.111,4.111,0,0,0-3.725-3.459c-3.193-.266-7.451-.931-7.584-.931a1.33,1.33,0,1,1,.4-2.528s4.258.665,7.451.931a6.652,6.652,0,0,1,6.12,5.854c.133,1.863-.665,6.652-10.644,8.781-3.858.665-4.524,4.657-4.923,11.043-.266,3.592-.532,7.185-2,9.979l-.133.266C397.927,207.5,395.266,212.56,386.219,212.56Z" transform="translate(57.954 7.109)"/>
    <path id="Path_5552" data-name="Path 5552" d="M377.4,229.894a2.262,2.262,0,0,1-.931-.133c-13.571-2.262-14.236-54.682-14.236-60.67a1.251,1.251,0,0,1,1.33-1.33h0a1.251,1.251,0,0,1,1.33,1.33c.133,21.687,3.459,56.545,12.107,58.009,3.459.532,7.451-5.987,9.846-16.365a1.33,1.33,0,0,1,2.528.665C388.042,216.988,384.184,229.894,377.4,229.894Z" transform="translate(54.934 7.337)"/>
    <circle id="Ellipse_81" data-name="Ellipse 81" cx="1.863" cy="1.863" r="1.863" transform="translate(441.113 183.746)"/>
    <circle id="Ellipse_82" data-name="Ellipse 82" cx="1.863" cy="1.863" r="1.863" transform="translate(449.096 183.347)"/>
    <path id="Path_5553" data-name="Path 5553" d="M316.743,243.462a.8.8,0,0,1-.532-.133,1.171,1.171,0,0,1-.532-1.73c18.76-37.519,58.674-43.64,59.073-43.64a1.33,1.33,0,0,1,.4,2.528c-.4,0-38.983,5.987-56.944,42.176A2.049,2.049,0,0,1,316.743,243.462Z" transform="translate(39.486 17.318)"/>
    <path id="Path_5554" data-name="Path 5554" d="M510.1,329.82h-.4l-68.785-19.106a56.718,56.718,0,0,1-28.605-18.627l-5.987-7.318a1.33,1.33,0,1,1,2-1.73l5.987,7.318a52.886,52.886,0,0,0,27.275,17.7l67.588,18.893,12.64-38.185-77.3-20.888a1.33,1.33,0,0,1-.665-.532L409.915,222.77c-8.515-13.438-31-21.021-31.266-21.021a1.347,1.347,0,0,1,.931-2.528c.931.266,23.682,7.983,32.6,22.086L445.7,265.478l78.232,21.155c.4.133.665.266.8.665a1.411,1.411,0,0,1,.133,1.064L511.43,329.075a1.557,1.557,0,0,1-1.33.745Z" transform="translate(60.069 17.707)"/>
    <path id="Path_5555" data-name="Path 5555" d="M477.23,304.961s17.429,9.047,23.283,15.7c6.253,7.051,10.378,3.459,10.378,3.459s2.927-2.395.266-6.386c-3.592-5.455-7.051-10.777-7.051-10.777s46.833,11.309,47.5-2.129c0,0,.665-4.258-5.721-4.923,0,0,6.253-1.064,6.785-4.524s-3.858-6.12-7.051-6.12c0,0,4.657-3.459,2.661-6.519-1.464-2.262-6.386-2-6.386-2l-20.09.931s12.107-3.326,10.511-8.781c-1.064-2.395-3.193-3.326-7.185-1.863s-29.67,6.12-37.652,3.459C486.41,277.287,477.23,304.961,477.23,304.961Z" transform="translate(92.939 41.236)" fill="#fff"/>
    <path id="Path_5556" data-name="Path 5556" d="M508.282,326.744h-.439q-3.991-.2-7.983-4.79c-5.588-6.386-22.751-15.3-22.884-15.434a1.437,1.437,0,0,1-.665-1.6l10.112-30.468a1.331,1.331,0,0,1,.665-.8,2.661,2.661,0,0,1,1.064-.133c7.451,2.528,32.863-2,36.721-3.459,5.455-2.129,7.85.266,8.914,2.528v.133a4.617,4.617,0,0,1-.4,3.725,11.534,11.534,0,0,1-3.858,3.725l12.64-.665c.532,0,5.721-.133,7.584,2.661,1.464,2.262.4,4.524-1.064,6.386a9.633,9.633,0,0,1,4.124,2.661,5.322,5.322,0,0,1,1.464,4.524,6.2,6.2,0,0,1-3.725,4.391,6.293,6.293,0,0,1,1.73,1.464,5.455,5.455,0,0,1,1.064,3.592,6.32,6.32,0,0,1-2.661,4.79c-8.116,5.987-34.06,1.2-43.24-.8,1.33,2.129,3.326,5.056,5.322,8.116,2.661,3.858.8,7.051-.532,8.116A6.652,6.652,0,0,1,508.282,326.744Zm-29.137-22.086c3.858,2.129,17.429,9.579,22.618,15.567s8.382,3.459,8.515,3.326c.4-.266,1.863-1.863,0-4.524-3.592-5.322-7.051-10.777-7.051-10.91a1.437,1.437,0,0,1,0-1.464,1.33,1.33,0,0,1,1.33-.532c9.846,2.395,36.987,7.318,44.172,2a3.5,3.5,0,0,0,1.6-2.927v-.133a2.4,2.4,0,0,0-.532-1.73c-.665-.931-2.129-1.464-4.124-1.73a1.41,1.41,0,0,1-1.2-1.33,1.33,1.33,0,0,1,1.064-1.33c1.331-.266,5.322-1.33,5.588-3.459a2.927,2.927,0,0,0-.8-2.395,6.865,6.865,0,0,0-4.923-2.262,1.33,1.33,0,0,1-1.2-.931,1.423,1.423,0,0,1,.4-1.464s3.592-2.794,2.395-4.657c-.8-1.2-3.858-1.464-5.189-1.464l-20.09.931a1.211,1.211,0,0,1-1.33-1.064,1.224,1.224,0,0,1,.931-1.463c2.129-.532,7.85-2.661,9.313-5.322a2.289,2.289,0,0,0,.266-1.6c-.4-.931-1.331-2.661-5.455-1.064s-27.807,5.854-37.253,3.858Z" transform="translate(92.62 40.874)"/>
    <path id="Path_5557" data-name="Path 5557" d="M536.332,292.757s-20.356,2.528-30.2-1.2" transform="translate(102.49 48.25)" fill="#fff"/>
    <path id="Path_5558" data-name="Path 5558" d="M522.447,295.237c-5.721,0-12.107-.532-16.5-2.129a1.347,1.347,0,0,1,.931-2.528c9.446,3.459,29.4,1.2,29.536,1.2a1.251,1.251,0,0,1,1.464,1.2,1.33,1.33,0,0,1-1.2,1.464C536.284,294.439,529.764,295.237,522.447,295.237Z" transform="translate(102.138 47.899)"/>
    <path id="Path_5559" data-name="Path 5559" d="M535.206,284.36s-18.76,3.193-26.876,1.064" transform="translate(103.217 45.871)" fill="#fff"/>
    <path id="Path_5560" data-name="Path 5560" d="M516.138,287.89a33.954,33.954,0,0,1-7.85-.8,1.33,1.33,0,0,1,.665-2.528c7.717,2,26.077-1.064,26.343-1.2a1.357,1.357,0,0,1,.532,2.661,134.37,134.37,0,0,1-19.691,1.863Z" transform="translate(102.953 45.534)"/>
    <path id="Path_5561" data-name="Path 5561" d="M402.986,325.881a1.33,1.33,0,0,1-1.33-1.2l-4.124-80.893a1.224,1.224,0,0,1,1.2-1.33,1.331,1.331,0,0,1,1.331,1.2l4.124,80.893a1.144,1.144,0,0,1-1.2,1.33Z" transform="translate(66.599 32.024)"/>
    <path id="Path_5562" data-name="Path 5562" d="M290.66,337.914h0a1.33,1.33,0,0,1-1.33-1.33c.532-11.442,14.1-58.94,14.635-60.936a1.33,1.33,0,0,1,2.528.665c-.133.532-14.1,49.228-14.5,60.27a1.437,1.437,0,0,1-1.33,1.33Z" transform="translate(30.843 42.742)"/>
    <path id="Path_5563" data-name="Path 5563" d="M300.51,311.46h79.828l51.622,69.584a41.338,41.338,0,0,1,5.721,38.983L398.433,528.46H291.33l74.107-123.6-51.489-34.725a35.151,35.151,0,0,1-14.5-20.622,57.21,57.21,0,0,1-1.2-21.288Z" transform="translate(31.504 54.827)" fill="#ffa5c0"/>
    <path id="Path_5564" data-name="Path 5564" d="M372.149,521.4a.492.492,0,0,1-.4-.133,1.331,1.331,0,0,1-.8-1.73L410.2,411.1a40.1,40.1,0,0,0-5.588-37.785l-25.585-34.326a1.33,1.33,0,0,1,2.129-1.6L406.7,371.718a42.576,42.576,0,0,1,5.854,40.18L373.307,520.332A1.331,1.331,0,0,1,372.149,521.4Z" transform="translate(57.788 63.221)"/>
    <path id="Path_5565" data-name="Path 5565" d="M367.814,396.664a1.011,1.011,0,0,1-.665-.266l-31.266-20.622a1.347,1.347,0,1,1,1.464-2.262l31.266,20.622a1.331,1.331,0,0,1,.4,1.863,1.158,1.158,0,0,1-1.2.665Z" transform="translate(46.024 75.262)"/>
    <path id="Path_5566" data-name="Path 5566" d="M553.483,497.522H269.16a1.33,1.33,0,1,1,0-2.661H553.483a1.251,1.251,0,0,1,1.331,1.33A1.331,1.331,0,0,1,553.483,497.522Z" transform="translate(23.738 115.435)"/>
    <path id="Path_5567" data-name="Path 5567" d="M321.428,231.16s-12.639,27.408-18.627,45.5a30.441,30.441,0,0,0,14.236,36.056c29.27,15.966,76.768,40.446,76.768,40.446l17.7-39.515-65.459-27.541" transform="translate(34.801 28.29)" fill="#fff"/>
    <path id="Path_5568" data-name="Path 5568" d="M394.144,354.773a1.2,1.2,0,0,1-.665-.133c-.532-.266-47.764-24.614-76.768-40.446a31.931,31.931,0,0,1-14.9-37.652c5.854-17.961,18.627-45.369,18.76-45.635a1.33,1.33,0,0,1,2.395,1.064c-.133.266-12.773,27.541-18.627,45.369A28.885,28.885,0,0,0,317.908,311.8c26.343,14.369,67.721,35.79,75.438,39.781l16.5-36.987-64.262-27.009a1.33,1.33,0,0,1,1.064-2.395l65.459,27.541a1.331,1.331,0,0,1,.665.8,1.463,1.463,0,0,1,0,1.064l-17.7,39.515c-.133.4-.4.532-.8.665Z" transform="translate(34.463 28.012)"/>
    <path id="Path_5569" data-name="Path 5569" d="M384.736,298.56s21.82,8.382,29.8,7.584,12.24.266,12.639,3.193c.532,4.258-5.189,7.318-13.3,5.987a85.283,85.283,0,0,0,33.661,12.107c3.459.266,8.515.8,8.914,3.725.4,3.459-1.863,5.987-8.249,5.056,0,0,5.588,3.193,4.657,7.451-.532,2.528-4.258,4.124-8.249,2.927,2.661,1.863,3.991,3.991,2,6.785-2.395,3.326-8.515.931-8.515.931s-21.154-7.318-26.742-11.575a64.207,64.207,0,0,0,12.506,9.712c3.06,1.73,4.258,3.592,2.661,6.519s-4.391,1.73-7.318.266c-4.391-2.262-46.966-32.33-46.966-32.33Z" transform="translate(58.239 50.564)" fill="#fff"/>
    <path id="Path_5570" data-name="Path 5570" d="M424.056,362.334a12.6,12.6,0,0,1-5.229-1.676c-4.391-2.262-45.369-31.266-47.1-32.464a1.33,1.33,0,0,1-.4-1.6l12.506-28.206a1.33,1.33,0,0,1,1.73-.665c.266.133,21.554,8.249,29.137,7.451,8.914-.931,13.571.532,14.1,4.391a5.575,5.575,0,0,1-1.863,4.923,12.174,12.174,0,0,1-7.318,2.794,86.574,86.574,0,0,0,28.472,9.18c3.459.266,9.446.8,9.979,4.923a5.681,5.681,0,0,1-1.464,4.923,7.065,7.065,0,0,1-4.258,1.863,7.051,7.051,0,0,1,2.129,6.253,5.189,5.189,0,0,1-2.528,3.326,10.285,10.285,0,0,1-3.592,1.064,5.056,5.056,0,0,1-.532,5.854c-2.927,4.124-9.712,1.464-10.112,1.33s-8.382-2.927-15.7-5.987c.931.532,1.73,1.064,2.528,1.6,2.528,1.464,5.588,3.858,3.193,8.249A3.872,3.872,0,0,1,424.056,362.334Zm-49.893-35.79c6.12,4.391,42.043,29.67,45.9,31.665s4.79,1.73,5.588.266c.931-1.73.931-2.927-2.129-4.79a66.139,66.139,0,0,1-12.773-9.845,1.365,1.365,0,1,1,1.863-2c5.322,4.124,26.077,11.309,26.343,11.442s5.322,2,6.918-.4c1.2-1.6,1.2-2.927-1.6-5.056a1.41,1.41,0,0,1-.4-1.73,1.331,1.331,0,0,1,1.6-.665,7.158,7.158,0,0,0,5.322-.266,2.661,2.661,0,0,0,1.33-1.6c.665-3.193-3.991-5.987-4.124-5.987a1.237,1.237,0,0,1-.532-1.6,1.437,1.437,0,0,1,1.464-.931c2.794.4,4.923.133,5.987-.931a2.661,2.661,0,0,0,.665-2.661c-.266-2-5.322-2.395-7.717-2.661a88.623,88.623,0,0,1-34.326-12.373,1.53,1.53,0,0,1-.532-1.6,1.33,1.33,0,0,1,1.464-.8c4.391.8,8.648,0,10.644-1.863a3.153,3.153,0,0,0,1.064-2.661c-.133-1.6-3.193-2.927-11.176-2-7.318.8-24.481-5.455-29.27-7.185Z" transform="translate(57.903 50.253)"/>
    <path id="Path_5571" data-name="Path 5571" d="M436.219,330.183h-.266c-.665-.133-16.9-2.661-26.476-6.918a1.33,1.33,0,0,1,1.064-2.395c9.313,3.991,25.678,6.652,25.944,6.652a1.33,1.33,0,0,1,1.064,1.464A1.41,1.41,0,0,1,436.219,330.183Z" transform="translate(70.354 57.923)"/>
    <path id="Path_5572" data-name="Path 5572" d="M433.988,338.852h-.4c-.931-.266-21.82-6.918-28.206-10.777a1.347,1.347,0,1,1,1.464-2.262c6.253,3.725,27.408,10.511,27.674,10.511a1.53,1.53,0,0,1,.931,1.73A1.836,1.836,0,0,1,433.988,338.852Z" transform="translate(68.992 59.499)"/>
    <path id="Path_5573" data-name="Path 5573" d="M269.44,501.346s-26.21-.133-26.21-11.309,16.9-10.777,23.15-10.777c34.326,0,42.442,22.219,71.979,22.219C322.393,501.346,269.44,501.346,269.44,501.346Z" transform="translate(15.608 110.28)" fill="#fff"/>
    <path id="Path_5574" data-name="Path 5574" d="M338.823,503.007H269.772c-1.064,0-27.541-.266-27.541-12.64a9.633,9.633,0,0,1,2.794-7.052c5.056-5.056,15.833-5.056,21.022-5.056h.665c18.094,0,29,5.987,39.515,11.841,9.579,5.322,18.627,10.245,32.464,10.245a1.251,1.251,0,0,1,1.331,1.331,1.224,1.224,0,0,1-1.2,1.33Zm-69.052-2.661h51.982a93.618,93.618,0,0,1-16.9-7.983c-10.245-5.721-20.755-11.575-38.318-11.575h-.665c-4.79,0-14.768,0-19.159,4.258a7.025,7.025,0,0,0-2,5.189c.133,8.249,18.094,10.112,25.013,10.112Z" transform="translate(15.277 109.95)"/>
    <circle id="Ellipse_83" data-name="Ellipse 83" cx="10.511" cy="10.511" r="10.511" transform="translate(367.139 617.879)" fill="#fff"/>
    <path id="Path_5575" data-name="Path 5575" d="M335.471,523.242A11.841,11.841,0,1,1,347.312,511.4a11.841,11.841,0,0,1-11.841,11.841Zm0-21.021a9.18,9.18,0,1,0,9.18,9.18,9.18,9.18,0,0,0-9.18-9.18Z" transform="translate(42.178 116.989)"/>
    <circle id="Ellipse_84" data-name="Ellipse 84" cx="10.511" cy="10.511" r="10.511" transform="translate(501.25 617.879)" fill="#fff"/>
    <path id="Path_5576" data-name="Path 5576" d="M436.271,523.242A11.841,11.841,0,1,1,448.112,511.4a11.841,11.841,0,0,1-11.841,11.841Zm0-21.021a9.18,9.18,0,1,0,9.18,9.18,9.18,9.18,0,0,0-9.18-9.18Z" transform="translate(75.49 116.989)"/>
    <path id="Path_5577" data-name="Path 5577" d="M301.147,298.021H277.73a1.33,1.33,0,1,1,0-2.661h23.416a1.33,1.33,0,1,1,0,2.661Z" transform="translate(26.57 49.506)"/>
    <path id="Path_5578" data-name="Path 5578" d="M263.164,313.121h-13.7a1.33,1.33,0,1,1,0-2.661h13.7a1.33,1.33,0,1,1,0,2.661Z" transform="translate(17.228 54.496)"/>
    <path id="Path_5579" data-name="Path 5579" d="M328.327,313.121H266.06a1.33,1.33,0,1,1,0-2.661h62.266a1.33,1.33,0,1,1,0,2.661Z" transform="translate(22.713 54.496)"/>
    <path id="Path_5580" data-name="Path 5580" d="M607.569,518.812H197.33a1.33,1.33,0,1,1,0-2.661H607.648a1.251,1.251,0,0,1,1.33,1.331,1.33,1.33,0,0,1-1.41,1.33Z" transform="translate(0 122.471)"/>
    <path id="Path_5581" data-name="Path 5581" d="M489.606,172.25l-.6,11.815,9.619,7.916L486.8,195.267l-4.431,11.562-6.812-10.418-12.586-.758,8.023-9.46-3.007-11.908,11.854,4.231Z" transform="translate(88.226 8.822)" fill="#fff"/>
    <circle id="Ellipse_85" data-name="Ellipse 85" cx="12.347" cy="12.347" r="12.347" transform="translate(259.143 291.471) rotate(-78.17)" fill="#ffa5c0"/>
    <circle id="Ellipse_86" data-name="Ellipse 86" cx="8.342" cy="8.342" r="8.342" transform="translate(565.904 454.678) rotate(-78.17)" fill="#ffa5c0"/>
    <path id="Path_5582" data-name="Path 5582" d="M482.27,208.856a1.251,1.251,0,0,1-.825-.585l-6.32-10.178-11.974-.492a1.237,1.237,0,0,1-1.171-.785,1.8,1.8,0,0,1,.16-1.437l7.69-9.127L466.61,174.7a1.45,1.45,0,0,1,.426-1.33,1.251,1.251,0,0,1,1.331-.253l11.149,4.484,9.979-6.652a1.024,1.024,0,0,1,1.331,0,1.251,1.251,0,0,1,.692,1.211l-.878,11.894,9.313,7.451a1.517,1.517,0,0,1,.532,1.33,1.331,1.331,0,0,1-1.011,1l-11.628,2.94-4.218,11.189a1.33,1.33,0,0,1-1.118.838C482.523,208.909,482.4,208.883,482.27,208.856Zm-6.094-13.225a1.211,1.211,0,0,1,.825.572l5.322,8.5,3.552-9.313a1.144,1.144,0,0,1,.971-.732l9.752-2.382-7.823-6.2a1.051,1.051,0,0,1-.426-1.171l.758-10.032-8.382,5.535a1.863,1.863,0,0,1-1.237.146l-9.313-3.685,2.661,9.673a1.251,1.251,0,0,1-.24,1.158l-6.439,7.65,9.965.479C475.924,195.578,476.057,195.6,476.177,195.631Z" transform="translate(87.872 8.311)"/>
  </g>
</svg>
