<svg id="Layer_1" data-name="Layer 1" xmlns="http://www.w3.org/2000/svg" xmlns:xlink="http://www.w3.org/1999/xlink" viewBox="0 0 732.77 600"><defs><style>.cls-1{fill:none;}.cls-2{clip-path:url(#clip-path);}.cls-18,.cls-3{fill:#f1e7de;}.cls-11,.cls-16,.cls-17,.cls-3,.cls-6,.cls-7{fill-rule:evenodd;}.cls-17,.cls-4{fill:#f99184;}.cls-5,.cls-7{fill:#2e1407;}.cls-15,.cls-6{fill:#f8f4f1;}.cls-8{fill:#bd4d2d;}.cls-16,.cls-9{fill:#c0c8d3;}.cls-10{fill:#fff;}.cls-11{fill:#311c19;}.cls-12{fill:#d5cda0;}.cls-13{fill:#f59289;}.cls-14{fill:#5a74ca;}</style><clipPath id="clip-path"><rect class="cls-1" x="45.29" y="31.97" width="659.36" height="535"/></clipPath></defs><g class="cls-2"><g class="cls-2"><path class="cls-3" d="M609,298.57a1,1,0,0,1,1-.93h67.73a1,1,0,0,1,1,.94l14.79,264.7a1,1,0,0,1-2,.11L676.83,299.64H611L592.43,563.4a1,1,0,1,1-2-.14Z"/><path class="cls-3" d="M362.9,298.57a1,1,0,0,1,1-.93h67.74a1,1,0,0,1,1,.94l14.79,266.58a1,1,0,1,1-2,.11L430.69,299.64H364.83L346.29,565.29a1,1,0,0,1-2-.14Z"/><rect class="cls-4" x="355.79" y="282.63" width="332.96" height="20.72" rx="4.77"/><path class="cls-5" d="M512.29,274.3a4.62,4.62,0,0,1,4.62-4.63H649.14a4.63,4.63,0,0,1,4.63,4.63v3.53a4.62,4.62,0,0,1-4.63,4.62H516.91a4.62,4.62,0,0,1-4.62-4.62Z"/><path class="cls-5" d="M587,210.61a4.61,4.61,0,0,1,4.33-3h94.48a4.62,4.62,0,0,1,4.3,6.32L663,282.45H560.37Z"/><path class="cls-6" d="M628.46,249.54a5.85,5.85,0,0,0,7.71-2.86,5.72,5.72,0,0,0-2.92-7.61,5.86,5.86,0,0,0-7.72,2.87,5.73,5.73,0,0,0,2.93,7.6m-.83,1.82A7.88,7.88,0,0,0,638,247.49a7.7,7.7,0,0,0-3.92-10.24,7.88,7.88,0,0,0-10.37,3.87,7.7,7.7,0,0,0,3.92,10.24"/><path class="cls-7" d="M91,248.14a.49.49,0,0,0-.49.5h0v.16c0,.11,0,.27,0,.48,0,.42,0,1.05.08,1.86a.5.5,0,0,0,.53.47.49.49,0,0,0,.47-.52c0-.81-.06-1.43-.08-1.84,0-.21,0-.37,0-.47v-.15h0m-.51-.49a.5.5,0,0,1,.51.49Zm.41,7.56a.49.49,0,0,0-.45.54c.12,1.49.28,3.17.49,5a.5.5,0,0,0,.55.45.5.5,0,0,0,.44-.56c-.2-1.85-.36-3.52-.49-5a.49.49,0,0,0-.54-.45m1.09,10.05a.51.51,0,0,0-.43.57c.22,1.58.46,3.26.74,5a.5.5,0,1,0,1-.16c-.27-1.74-.51-3.41-.73-5a.5.5,0,0,0-.56-.43m1.56,10a.5.5,0,0,0-.4.58c.29,1.61.61,3.28,1,5a.5.5,0,1,0,1-.2c-.35-1.7-.67-3.36-1-5a.5.5,0,0,0-.58-.4m2,9.92a.5.5,0,0,0-.38.6c.37,1.61.77,3.26,1.19,4.93a.5.5,0,0,0,1-.24c-.42-1.67-.81-3.3-1.18-4.91a.5.5,0,0,0-.6-.38m2.46,9.82a.49.49,0,0,0-.35.62c.44,1.6.91,3.23,1.41,4.87a.5.5,0,0,0,1-.29q-.75-2.44-1.41-4.85a.5.5,0,0,0-.61-.35m2.92,9.7a.49.49,0,0,0-.32.63c.52,1.59,1.08,3.19,1.66,4.8a.49.49,0,0,0,.64.3.5.5,0,0,0,.3-.64q-.87-2.4-1.65-4.77a.49.49,0,0,0-.63-.32m3.4,9.54a.49.49,0,0,0-.28.64c.61,1.57,1.24,3.13,1.9,4.7a.5.5,0,0,0,.66.27.52.52,0,0,0,.27-.66c-.66-1.56-1.3-3.12-1.9-4.67a.5.5,0,0,0-.65-.28m3.91,9.33a.5.5,0,0,0-.25.66c.7,1.53,1.42,3.06,2.18,4.59a.5.5,0,0,0,.67.22.5.5,0,0,0,.22-.67q-1.11-2.28-2.16-4.56a.49.49,0,0,0-.66-.24m4.45,9.09a.5.5,0,0,0-.21.68c.79,1.48,1.61,3,2.46,4.44a.5.5,0,1,0,.86-.5c-.84-1.46-1.65-2.94-2.44-4.41a.49.49,0,0,0-.67-.21m5,8.8a.49.49,0,0,0-.16.69c.88,1.43,1.8,2.86,2.75,4.27a.49.49,0,0,0,.69.14.5.5,0,0,0,.14-.69c-.94-1.41-1.85-2.82-2.73-4.25a.5.5,0,0,0-.69-.16m5.59,8.44a.5.5,0,0,0-.11.69c1,1.37,2,2.73,3,4.07a.52.52,0,0,0,.71.08.5.5,0,0,0,.08-.7q-1.55-2-3-4a.49.49,0,0,0-.7-.11m6.19,8a.49.49,0,0,0-.06.7q1.63,1.93,3.35,3.83a.51.51,0,0,0,.71,0,.5.5,0,0,0,0-.71c-1.14-1.25-2.24-2.51-3.32-3.79a.51.51,0,0,0-.71-.06m6.8,7.51a.5.5,0,0,0,0,.7c1.19,1.2,2.4,2.38,3.65,3.54a.5.5,0,0,0,.68-.74c-1.24-1.15-2.44-2.31-3.62-3.5a.5.5,0,0,0-.71,0m7.38,6.91a.5.5,0,0,0,.06.7c.65.55,1.3,1.1,2,1.64s1.36,1.1,2,1.63a.5.5,0,0,0,.7-.08.5.5,0,0,0-.08-.7c-.68-.53-1.35-1.08-2-1.63s-1.3-1.07-1.94-1.62a.51.51,0,0,0-.71.06m8,6.39a.5.5,0,0,0,.1.7q2.1,1.56,4.2,3a.5.5,0,1,0,.57-.82q-2.09-1.44-4.18-3a.5.5,0,0,0-.69.11m8.41,5.86a.5.5,0,0,0,.15.69q2.19,1.41,4.38,2.71a.51.51,0,0,0,.69-.18.5.5,0,0,0-.18-.68c-1.45-.86-2.89-1.76-4.35-2.69a.5.5,0,0,0-.69.15m8.81,5.27a.51.51,0,0,0,.2.68q2.28,1.25,4.55,2.37a.5.5,0,0,0,.45-.9c-1.5-.74-3-1.53-4.52-2.35a.51.51,0,0,0-.68.2m97.86-48.28c-.7.37-1.42.76-2.14,1.17a8.41,8.41,0,0,0-2,1.72.5.5,0,0,0,0,.7.51.51,0,0,0,.71,0,7.22,7.22,0,0,1,1.73-1.51c.71-.41,1.41-.79,2.1-1.15a.5.5,0,0,0,.21-.68.49.49,0,0,0-.67-.21m4.15-1.37a.51.51,0,0,0,.65.28,35,35,0,0,1,4.52-1.44.5.5,0,0,0-.24-1,35,35,0,0,0-4.65,1.48.51.51,0,0,0-.28.65m-92.86,54.23a.5.5,0,0,0,.25.66q2.38,1.07,4.76,2a.5.5,0,0,0,.65-.28.51.51,0,0,0-.28-.65c-1.57-.62-3.14-1.29-4.72-2a.49.49,0,0,0-.66.25m82.47-46a.5.5,0,0,0-.68.21,41.45,41.45,0,0,0-2.08,4.54.49.49,0,0,0,.28.65.5.5,0,0,0,.65-.28,41.54,41.54,0,0,1,2-4.44.51.51,0,0,0-.2-.68m19.68-10.57a.5.5,0,0,0,.53.47,20.45,20.45,0,0,1,4.69.24.5.5,0,1,0,.17-1,21.94,21.94,0,0,0-4.92-.25.52.52,0,0,0-.47.53M257.3,358a.5.5,0,0,0-.62.34c-.45,1.52-.86,3.13-1.22,4.81a.5.5,0,0,0,.39.59.49.49,0,0,0,.59-.38c.35-1.66.76-3.24,1.2-4.74a.5.5,0,0,0-.34-.62m-69.2,40.73a.5.5,0,0,0,.3.64q2.46.85,4.88,1.59a.51.51,0,0,0,.63-.33.49.49,0,0,0-.34-.62q-2.4-.74-4.83-1.59a.51.51,0,0,0-.64.31m102-58.95a.5.5,0,0,0,.22.67,14.55,14.55,0,0,1,3.76,2.71.51.51,0,0,0,.71,0,.5.5,0,0,0,0-.71,15.41,15.41,0,0,0-4-2.89.5.5,0,0,0-.67.22m-35,27.84a.51.51,0,0,0-.56.43c-.23,1.6-.4,3.25-.52,4.94a.5.5,0,0,0,1,.07c.11-1.67.29-3.29.51-4.87a.5.5,0,0,0-.43-.57m-57.28,34.12a.51.51,0,0,0,.36.61c1.69.43,3.37.81,5,1.16a.5.5,0,0,0,.2-1c-1.65-.34-3.31-.73-5-1.15a.5.5,0,0,0-.61.36m99.22-55.51a.5.5,0,0,0-.21.67,19.45,19.45,0,0,1,1.68,4.37.49.49,0,1,0,1-.24,20.69,20.69,0,0,0-1.75-4.6.51.51,0,0,0-.68-.2m-89.18,57.64a.5.5,0,0,0,.42.57c1.71.27,3.41.51,5.1.7a.5.5,0,0,0,.11-1c-1.67-.19-3.36-.42-5.06-.69a.5.5,0,0,0-.57.42m46.49-26.41a.5.5,0,0,0-.5.5c0,1.63.06,3.28.19,5a.5.5,0,1,0,1-.08q-.18-2.47-.18-4.89a.49.49,0,0,0-.5-.49m45.33-22.06a.5.5,0,0,0-.47.53,30.21,30.21,0,0,1-.1,4.73.5.5,0,0,0,1,.1,32.3,32.3,0,0,0,.1-4.89.52.52,0,0,0-.53-.47M218.09,405.1a.5.5,0,0,0,.47.53c1.73.12,3.44.19,5.14.22a.52.52,0,0,0,.51-.49.5.5,0,0,0-.49-.51c-1.68,0-3.38-.1-5.09-.22a.51.51,0,0,0-.54.47m37-17.77a.51.51,0,0,0-.42.57c.24,1.62.55,3.25.92,4.88a.5.5,0,0,0,1-.22c-.37-1.61-.67-3.21-.91-4.81a.5.5,0,0,0-.57-.42m-26.73,18a.5.5,0,0,0,.51.48c1.74-.05,3.46-.14,5.15-.27a.5.5,0,0,0-.07-1q-2.52.19-5.1.27a.5.5,0,0,0-.49.52M299,365a.5.5,0,0,0-.59.39q-.49,2.24-1.26,4.59a.5.5,0,0,0,.31.63.52.52,0,0,0,.64-.32,48.57,48.57,0,0,0,1.28-4.69.5.5,0,0,0-.38-.6M238.56,404.6a.51.51,0,0,0,.56.44c1.73-.22,3.43-.47,5.1-.76a.5.5,0,0,0-.17-1c-1.66.28-3.34.53-5.05.75a.5.5,0,0,0-.44.55m57.58-30.41a.51.51,0,0,0-.66.26c-.31.72-.64,1.45-1,2.18a12.82,12.82,0,0,1-1.26,2.08.5.5,0,1,0,.81.59,15.08,15.08,0,0,0,1.36-2.24c.35-.74.69-1.48,1-2.21a.5.5,0,0,0-.26-.66M257.19,397a.51.51,0,0,0-.33.63c.49,1.56,1.05,3.13,1.68,4.68a.5.5,0,1,0,.93-.37c-.18-.43-.34-.86-.51-1.29a.49.49,0,0,0,.24,0q2.51-.81,4.86-1.7a.5.5,0,1,0-.36-.94c-1.55.59-3.16,1.16-4.81,1.69a.53.53,0,0,0-.23.16c-.3-.84-.58-1.67-.85-2.51a.5.5,0,0,0-.62-.33m-8.52,6a.5.5,0,0,0,.6.38q2.55-.57,5-1.24a.5.5,0,1,0-.26-1q-2.43.66-5,1.22a.5.5,0,0,0-.38.6m41.91-20.43a.5.5,0,0,0-.7,0c-1.12,1.07-2.41,2.18-3.85,3.31a.5.5,0,0,0,.61.79q2.21-1.72,3.93-3.38a.5.5,0,0,0,0-.71m-22.4,14.19a.5.5,0,0,0,.66.26c1.62-.71,3.18-1.45,4.67-2.2a.49.49,0,0,0,.22-.67.5.5,0,0,0-.67-.22c-1.48.74-3,1.47-4.62,2.17a.5.5,0,0,0-.26.66m14.39-7.77a.5.5,0,0,0-.7-.14q-2,1.33-4.32,2.67a.5.5,0,0,0,.5.86q2.32-1.34,4.38-2.7a.5.5,0,0,0,.14-.69m-21.75,17.22a.5.5,0,0,0-.22.67q1.11,2.19,2.43,4.33a.5.5,0,1,0,.85-.52c-.86-1.41-1.66-2.83-2.38-4.26a.5.5,0,0,0-.68-.22m5.1,8.42a.5.5,0,0,0-.11.7c1,1.31,2,2.61,3.1,3.88a.51.51,0,0,0,.71.05.49.49,0,0,0,.05-.7q-1.64-1.89-3.06-3.82a.5.5,0,0,0-.69-.11m6.39,7.5a.5.5,0,0,0,0,.71q1.74,1.71,3.66,3.36a.51.51,0,0,0,.71-.06.49.49,0,0,0-.06-.7c-1.27-1.08-2.47-2.19-3.61-3.31a.49.49,0,0,0-.7,0m7.44,6.46a.51.51,0,0,0,.11.7q2,1.44,4.08,2.82a.5.5,0,0,0,.54-.84q-2.1-1.37-4-2.79a.51.51,0,0,0-.7.11m8.24,5.4a.51.51,0,0,0,.19.69c.72.4,1.45.81,2.2,1.2s1.54.81,2.3,1.19a.49.49,0,0,0,.67-.22.49.49,0,0,0-.22-.67c-.76-.38-1.52-.78-2.28-1.18s-1.47-.79-2.18-1.19a.49.49,0,0,0-.68.18m9,4.65a.49.49,0,0,0,.25.66q2.36,1.1,4.71,2.09a.5.5,0,0,0,.65-.27.49.49,0,0,0-.27-.65q-2.33-1-4.67-2.07a.5.5,0,0,0-.67.24m9.43,4a.49.49,0,0,0,.29.64c1.6.61,3.21,1.19,4.81,1.73a.5.5,0,0,0,.32-.95q-2.38-.81-4.78-1.71a.49.49,0,0,0-.64.29m9.66,3.31a.5.5,0,0,0,.34.62q2.48.74,4.94,1.37a.5.5,0,1,0,.25-1c-1.63-.43-3.26-.88-4.91-1.37a.5.5,0,0,0-.62.34m9.88,2.59a.51.51,0,0,0,.38.6c1.69.37,3.36.7,5,1a.5.5,0,0,0,.58-.4.49.49,0,0,0-.4-.58c-1.66-.31-3.32-.64-5-1a.5.5,0,0,0-.6.38m10.06,1.87a.5.5,0,0,0,.42.57c1.71.25,3.4.46,5.09.65a.5.5,0,0,0,.55-.44.5.5,0,0,0-.44-.55c-1.68-.19-3.36-.4-5.06-.65a.5.5,0,0,0-.56.42m10.15,1.15a.5.5,0,0,0,.46.54c1.72.12,3.42.22,5.11.29a.5.5,0,0,0,.52-.48.5.5,0,0,0-.48-.52c-1.68-.07-3.37-.16-5.07-.29a.5.5,0,0,0-.54.46m10.21.44a.5.5,0,0,0,.5.5q2.59,0,5.13-.06a.5.5,0,1,0,0-1q-2.52.08-5.1.06a.5.5,0,0,0-.5.5m10.23-.26a.5.5,0,0,0,.53.47c1.72-.11,3.43-.24,5.11-.4a.5.5,0,1,0-.09-1c-1.68.15-3.37.29-5.08.39a.5.5,0,0,0-.47.53m10.18-.92a.49.49,0,0,0,.55.43c1.72-.21,3.41-.45,5.08-.71a.5.5,0,0,0,.41-.57.5.5,0,0,0-.57-.42c-1.65.26-3.34.5-5,.71a.5.5,0,0,0-.43.56m10.09-1.55a.5.5,0,0,0,.58.4c1.71-.32,3.38-.67,5-1a.5.5,0,1,0-.21-1c-1.63.35-3.3.69-5,1a.51.51,0,0,0-.4.59m10-2.16a.5.5,0,0,0,.6.37q2.55-.64,5-1.32a.5.5,0,1,0-.27-1q-2.4.67-4.93,1.3a.5.5,0,0,0-.36.61m9.86-2.74a.49.49,0,0,0,.62.33c1.69-.52,3.32-1.06,4.89-1.6a.5.5,0,0,0,.31-.63.51.51,0,0,0-.64-.31c-1.56.53-3.18,1.07-4.85,1.59a.48.48,0,0,0-.33.62m9.69-3.29a.52.52,0,0,0,.65.29c1.67-.63,3.26-1.26,4.75-1.87a.5.5,0,1,0-.38-.92c-1.48.6-3.06,1.23-4.73,1.85a.52.52,0,0,0-.29.65m9.48-3.85a.5.5,0,0,0,.66.25c1.72-.77,3.27-1.5,4.63-2.16a.5.5,0,1,0-.43-.9c-1.35.66-2.89,1.38-4.61,2.14a.51.51,0,0,0-.25.67m9.2-4.46a.48.48,0,0,0,.67.2c.73-.39,1.28-.7,1.65-.91l.42-.24.11-.07h0a.5.5,0,1,0-.52-.86h0l-.1.07-.42.23c-.36.21-.91.52-1.62.9a.51.51,0,0,0-.2.68"/><path class="cls-5" d="M210.71,402.71a2,2,0,0,1-1,3.47L178,410.74a2,2,0,0,1-2.19-2.53l2.71-9.27a1.65,1.65,0,0,1,1.53-1.18,1.64,1.64,0,0,0,1.1-2.81l-.35-.35a1.85,1.85,0,0,1-.47-1.83l2.93-10a2,2,0,0,1,3.21-.94Z"/><path class="cls-6" d="M197.51,401.34a.51.51,0,0,1-.63.33L181.8,397a.49.49,0,0,1-.33-.63.5.5,0,0,1,.62-.33l15.09,4.66a.5.5,0,0,1,.33.62"/><rect class="cls-4" x="45.29" y="52.83" width="245" height="194.51" rx="10"/><path class="cls-6" d="M163.89,85.6c15.26,15.58,14,41.22-2.78,57.26-12.05,11.51-28.82,15-43,10.24a25.69,25.69,0,0,1-6.29,9.39,26.12,26.12,0,0,1-11.43,6.41c4.94,8.14,3.42,19.2-4.2,26.48-8.81,8.41-22.43,8.61-30.43.44s-7.35-21.61,1.45-30a23.36,23.36,0,0,1,8.37-5.15c-6.83-9.26-5.48-22.74,3.63-31.44a26.09,26.09,0,0,1,13.47-6.87,42.27,42.27,0,0,1,13.12-35.9c16.8-16,42.8-16.43,58.07-.84"/><path class="cls-8" d="M231.81,115.94l-.44,22.95,16.74,9.16,11.09-19.9,4.05-7a1.36,1.36,0,0,0-2.21-1.57L257,124.32l5.43-13.85a1.36,1.36,0,0,0-2.42-1.23L253.15,120l5-16.19a1.36,1.36,0,0,0-2.45-1.13l-8.88,13.84L252,100.42a1.37,1.37,0,0,0-2.48-1.1L235.9,123.19l-1.4-7.46a1.36,1.36,0,0,0-2.69.21"/><path class="cls-9" d="M141.79,154s14.5-.95,23.5,6.42c20.5,16.78,27,22.21,27,22.21l35-46.4,27.5,8.89-46.36,70.17a20,20,0,0,1-31,3l-12.17-12.42,4.5,42.45-103.5-3s-4-63.19,13.5-80.47c13.18-13,34-10.86,34-10.86Z"/><path class="cls-10" d="M112.24,157.55a4,4,0,0,1,4.06-4l26.25.38a4,4,0,0,1,3.94,3.78l4.8,89.57h-40Z"/><path class="cls-9" d="M98.79,230.06l9.69-41.71A18.88,18.88,0,0,0,72,178.59L56.69,229.05a24,24,0,0,0,10.48,27.47L130.29,295l24.5-30.61Z"/><path class="cls-8" d="M167.79,276l-15-8.89-19,23.2,21.5,11.85,5,21.62a1,1,0,0,0,2-.22v-21.4l9.72,19.2a1,1,0,0,0,.89.55H179a1,1,0,0,0,1-1.22l-6.22-27.41,8.26,9.17a1,1,0,0,0,1.59-1.2Z"/><path class="cls-11" d="M168,296.74a1,1,0,0,0-.63,1.27l8,23.7a1,1,0,0,0,1.27.62,1,1,0,0,0,.62-1.26l-8-23.7a1,1,0,0,0-1.26-.63"/><path class="cls-11" d="M107.61,195.05a1,1,0,0,0-1.27.62l-10,29.13a1,1,0,0,0,.33,1.11l24.5,19.34a1,1,0,0,0,1.4-.16,1,1,0,0,0-.16-1.41l-24-18.91,9.77-28.45a1,1,0,0,0-.62-1.27"/><path class="cls-8" d="M162.6,145.82c-8.22,7.7-19.41,3.75-19.41,3.75v10.88s-1,11.2-15.21,8.43c-13.81-2.7-14.19-13.37-14.19-13.37l4.1-20.54s-10.85-5-8.22-14.6c3.4-12.39,15.51-5,17.57-3.6-.68-.66-1.34-3,13-9.14,17.5-7.41,22.7-10.84,22.7-10.84l4.54,27.65s3.29,13.67-4.93,21.38"/><polygon class="cls-5" points="143.29 160.94 143.29 149.59 127.95 140.31 143.29 160.94"/><path class="cls-11" d="M114.94,120.19a1,1,0,0,1,1.41,0l6,6a1,1,0,0,1-1.41,1.42l-6-6a1,1,0,0,1,0-1.41"/><path class="cls-11" d="M149.57,134a.81.81,0,0,1,1.13.08.83.83,0,0,1,0,1.15l-.54-.61.54.61h0l0,0-.08.06-.29.21a4.14,4.14,0,0,1-1,.49,4.43,4.43,0,0,1-3.58-.37,4.66,4.66,0,0,1-2.34-3.15,6.93,6.93,0,0,1-.16-1.34c0-.17,0-.31,0-.41a.57.57,0,0,0,0-.12v0h0l.79.13-.79-.13a.77.77,0,0,1,.89-.67.84.84,0,0,1,.69.93h0v.07a2.36,2.36,0,0,0,0,.29,4.87,4.87,0,0,0,.11,1,2.93,2.93,0,0,0,1.49,2,2.86,2.86,0,0,0,2.34.26,2.9,2.9,0,0,0,.68-.32l.17-.12,0,0"/><path class="cls-11" d="M150.87,112.83a.74.74,0,0,1,.81.67l.08.8a18.08,18.08,0,0,0,.94,5.28c.66,1.67,1.92,3.43,4.66,6.39a1,1,0,0,1,.2,1,1.12,1.12,0,0,1-.61.55,5.6,5.6,0,0,1-1.22.29l-.75.1a15.54,15.54,0,0,0-2.08.38.75.75,0,1,1-.42-1.43,16.7,16.7,0,0,1,2.4-.45l.63-.09.14,0a21.26,21.26,0,0,1-4.34-6.19,19.48,19.48,0,0,1-1.05-5.68c0-.26,0-.53-.07-.82a.74.74,0,0,1,.68-.81m5.52,13.33h0"/><path class="cls-5" d="M158.15,112.2c1.16-.16,2.31,1.18,2.56,3s-.47,3.41-1.63,3.57-2.31-1.18-2.56-3,.47-3.41,1.63-3.57"/><path class="cls-5" d="M143.76,115.9c1.16-.16,2.31,1.18,2.57,3s-.48,3.41-1.64,3.57-2.3-1.18-2.56-3,.48-3.41,1.63-3.57"/><path class="cls-12" d="M357.15,345.79l65.07-85.33h59.27L410,377.51l26,80.87-31.75,43.89L352.34,389.12a42.33,42.33,0,0,1,4.81-43.33"/><path class="cls-5" d="M440.86,566.33l4.23-20.4-44.45-12.56-6.46,18.73c-18.38,6.32-40.1,11.06-40.1,14.23,0,1.26,50,.31,86.78,0"/><path class="cls-12" d="M493.13,257.85,441.8,262l-23.28,118.6L397.88,541.75l56.62,11,20.64-172.09,27.45-73.7a42.35,42.35,0,0,0-1.77-33.65Z"/><path class="cls-7" d="M416.21,403.57a1,1,0,0,1,.87,1.12l-10.5,84.91a1,1,0,1,1-2-.25l10.5-84.91a1,1,0,0,1,1.12-.87"/><path class="cls-5" d="M455,68.2c-23.81,4.55-34.74,23.52-34.74,47.27,0,24.5,25,35,25,35l31.44,84.92s31.75,14.62,54.5-19.34c17.82-26.59-26.46-82-26.46-82S504.24,58.8,455,68.2"/><path class="cls-13" d="M360.31,163.29l-19.05,19.33L329.62,180l-17,1.48a1.06,1.06,0,0,1-.35-2.08l14.19-3.58-25.75,1a1.06,1.06,0,0,1-.25-2.1l26-5.2H303.26a1.06,1.06,0,0,1-.21-2.1l28.69-5.74-10.55-2.08a1.06,1.06,0,0,1,.2-2.1h26.22Z"/><path class="cls-14" d="M474.08,149.18,443.39,145s-13.05-1-21.17,2.09c-17.35,6.63-23.81,39.18-23.81,39.18l-37-23.51-22.23,22,51.57,42.71a13.76,13.76,0,0,0,19.6-2.1l7.68-9.79,4.23,44.93c25.93,7.84,46.57,7.32,70.91-1.56,0,0,25-82,2.12-97.7-4.56-3.12-21.17-12-21.17-12"/><path class="cls-7" d="M418.29,187.47a1,1,0,0,1,1,1V215a1,1,0,0,1-2,0v-26.5a1,1,0,0,1,1-1"/><path class="cls-14" d="M484.14,218.14,472,186.48a17.06,17.06,0,0,1,31.58-12.92l18.89,43.25a21.17,21.17,0,0,1-18.64,29.62L433.34,249l-8.47-25.6Z"/><path class="cls-7" d="M473.21,189a1,1,0,0,1,1.28.6L484,215.71a1,1,0,0,1-.08.86,1,1,0,0,1-.72.47L426.6,225.4a1,1,0,0,1-1.13-.84,1,1,0,0,1,.84-1.14l55.41-8.18-9.11-25a1,1,0,0,1,.6-1.28m23,57.32a1,1,0,0,1-.95,1.05l-61.38,3.13a1,1,0,0,1-.1-2l61.38-3.13a1,1,0,0,1,1.05.95"/><path class="cls-13" d="M432.81,248.45l-6.88-23.51-35.64,4.85a1.06,1.06,0,0,0,.07,2.1l13.34.88-25.46,8a1.06,1.06,0,0,0,.45,2.06l22.37-2.76L374.22,249a1.06,1.06,0,0,0,.52,2l26.32-4.72s-22.76,6.27-22.76,8.36S403.7,250,403.7,250l-7.71,4.4a1.06,1.06,0,0,0,.75,2Z"/><path class="cls-13" d="M444.06,137.7s-11.92,1.46-18.31-7.93-.09-22.16-.09-22.16l10.67-26.3s.69,6.21,10.33,16.18S466.78,109,466.78,109,483,102,483.66,116.19c.46,10-11.38,12.61-11.38,12.61l1.42,19.83s-2.52,11.25-16.76,10.9c-14.65-.37-14.67-8.47-14.67-8.47Z"/><polygon class="cls-5" points="442.74 147.6 443.56 137.64 461.16 131.88 442.74 147.6"/><path class="cls-11" d="M478.28,115a.74.74,0,0,0-1-.23L470,119.37a.74.74,0,0,0-.23,1,.75.75,0,0,0,1,.23l7.24-4.59a.74.74,0,0,0,.23-1"/><path class="cls-11" d="M446.37,119.75h0a.76.76,0,0,1,.78-.72.74.74,0,0,1,.72.78l-.74,0,.74,0h0v0a.41.41,0,0,1,0,.1c0,.08,0,.19-.05.33a4.63,4.63,0,0,1-.35,1,4.27,4.27,0,0,1-2.59,2.2,4.15,4.15,0,0,1-3.57-.47,6,6,0,0,1-1-.77l-.26-.27-.08-.09,0,0h0l.6-.46-.6.46a.75.75,0,0,1,.14-1.05.74.74,0,0,1,1.05.13h0l0,.05.19.19a3.81,3.81,0,0,0,.71.57,2.68,2.68,0,0,0,2.32.32,2.79,2.79,0,0,0,1.7-1.43,3,3,0,0,0,.23-.67,1.06,1.06,0,0,0,0-.2v0"/><path class="cls-11" d="M444.69,99.78a.75.75,0,0,0-.94.49c-.09.26-.17.52-.25.76a18.58,18.58,0,0,1-2.11,5c-1,1.49-2.67,3-6,5.28a.94.94,0,0,0-.42,1,1.08,1.08,0,0,0,.47.67,5.5,5.5,0,0,0,1.14.56l.71.26a16.24,16.24,0,0,1,2,.83.75.75,0,0,0,1-.29.74.74,0,0,0-.29-1,18.26,18.26,0,0,0-2.26-1l-.61-.22-.15-.06c2.93-2.07,4.58-3.56,5.68-5.17a19.87,19.87,0,0,0,2.3-5.37c.08-.26.17-.52.26-.79a.76.76,0,0,0-.49-1m-8.42,12h0"/><path class="cls-5" d="M437.65,97.57c-1.11-.41-2.54.66-3.2,2.39s-.29,3.47.82,3.88,2.54-.66,3.19-2.39.3-3.47-.81-3.88"/><path class="cls-5" d="M451,104.35c-1.11-.41-2.54.66-3.2,2.39s-.29,3.47.82,3.88,2.53-.66,3.19-2.39.3-3.47-.81-3.88"/><path class="cls-3" d="M402.94,103.71a43.11,43.11,0,0,0,2.35-14.11c0-24.27-19.92-43.94-44.5-43.94s-44.5,19.67-44.5,43.94,19.92,43.94,44.5,43.94a44.61,44.61,0,0,0,36.47-18.76h6.92a3,3,0,0,0,2.59-4.52Z"/><path class="cls-13" d="M353.79,97.09a3.46,3.46,0,0,1,3.42-4h9.31a3.47,3.47,0,0,1,3.43,4l-1.31,9a3.45,3.45,0,0,1-3.42,3h-6.7a3.47,3.47,0,0,1-3.43-3Z"/><path class="cls-12" d="M376.29,85.16a15,15,0,1,1-15-14.81,14.91,14.91,0,0,1,15,14.81"/><polygon class="cls-3" points="356.17 82.38 367.56 82.38 367.56 98.83 366.56 98.83 366.56 83.38 357.17 83.38 357.17 99.4 356.17 99.4 356.17 82.38"/><path class="cls-6" d="M197.66,90.13l-4.06,6.94a2,2,0,0,0,1.73,3h7.43l.3.42a43.63,43.63,0,0,0,35.66,18.34c24,0,43.5-19.23,43.5-42.94S262.76,33,238.72,33s-43.5,19.23-43.5,42.93a42.48,42.48,0,0,0,2.29,13.79ZM196.57,90l-3.83,6.55a3,3,0,0,0,2.59,4.51h6.92a44.61,44.61,0,0,0,36.47,18.76c24.58,0,44.5-19.67,44.5-43.94S263.3,32,238.72,32s-44.5,19.67-44.5,43.93A43.43,43.43,0,0,0,196.57,90"/><path class="cls-15" d="M228.29,75.9a5.5,5.5,0,1,1-5.5-5.43,5.46,5.46,0,0,1,5.5,5.43"/><path class="cls-14" d="M245.29,75.9a5.5,5.5,0,1,1-5.5-5.43,5.46,5.46,0,0,1,5.5,5.43"/><path class="cls-12" d="M262.29,75.9a5.5,5.5,0,1,1-5.5-5.43,5.46,5.46,0,0,1,5.5,5.43"/><path class="cls-16" d="M575.47,166.46a26.82,26.82,0,1,0-27.18-26.82,27,27,0,0,0,27.18,26.82m0,1a27.82,27.82,0,1,0-28.18-27.82,28,28,0,0,0,28.18,27.82"/><path class="cls-17" d="M563.31,138.63a1,1,0,0,1,1.42,0l10.72,10.58L593,133.68a1,1,0,0,1,1.42.08,1,1,0,0,1-.08,1.4l-18.24,16.16a1,1,0,0,1-1.38,0L563.31,140a1,1,0,0,1,0-1.41"/><rect class="cls-4" x="660.29" y="203.64" width="33" height="21.72" rx="3"/><path class="cls-18" d="M676.69,216.05l-14.86-10.6a1,1,0,0,1,.58-1.81h28.9a1,1,0,0,1,.6,1.8l-14,10.59a1,1,0,0,1-1.19,0"/><path class="cls-16" d="M676.47,241.5a26.83,26.83,0,1,0-27.18-26.82,27,27,0,0,0,27.18,26.82m0,1a27.83,27.83,0,1,0-28.18-27.82,28,28,0,0,0,28.18,27.82"/></g></g></svg>